Jinko-Black.ufo
<glyph name="exclam" format="1">
  <advance width="720"/>
  <unicode hex="0021"/>
  <outline>
    <contour>
      <point x="384" y="-29" type="curve" smooth="yes"/>
      <point x="509" y="-29"/>
      <point x="613" y="76"/>
      <point x="613" y="198" type="curve" smooth="yes"/>
      <point x="613" y="321"/>
      <point x="509" y="424"/>
      <point x="384" y="424" type="curve" smooth="yes"/>
      <point x="262" y="424"/>
      <point x="157" y="321"/>
      <point x="157" y="198" type="curve" smooth="yes"/>
      <point x="157" y="76"/>
      <point x="262" y="-29"/>
    </contour>
    <contour>
      <point x="258" y="546" type="line"/>
      <point x="512" y="546" type="line"/>
      <point x="592" y="1481" type="line"/>
      <point x="168" y="1481" type="line"/>
    </contour>
  </outline>
</glyph>
<glyph name="quotedbl" format="1">
  <advance width="1023"/>
  <unicode hex="0022"/>
  <outline>
    <contour>
      <point x="189" y="979" type="line"/>
      <point x="444" y="979" type="line"/>
      <point x="491" y="1481" type="line"/>
      <point x="141" y="1481" type="line"/>
    </contour>
    <contour>
      <point x="586" y="979" type="line"/>
      <point x="841" y="979" type="line"/>
      <point x="887" y="1481" type="line"/>
      <point x="539" y="1481" type="line"/>
    </contour>
  </outline>
</glyph>
<glyph name="numbersign" format="1">
  <advance width="1610"/>
  <unicode hex="0023"/>
  <outline>
    <contour>
      <point x="246" y="-23" type="line"/>
      <point x="535" y="-23" type="line"/>
      <point x="612" y="337" type="line"/>
      <point x="828" y="337" type="line"/>
      <point x="752" y="-23" type="line"/>
      <point x="1039" y="-23" type="line"/>
      <point x="1118" y="337" type="line"/>
      <point x="1409" y="337" type="line"/>
      <point x="1409" y="611" type="line"/>
      <point x="1177" y="611" type="line"/>
      <point x="1236" y="861" type="line"/>
      <point x="1526" y="861" type="line"/>
      <point x="1526" y="1131" type="line"/>
      <point x="1300" y="1131" type="line"/>
      <point x="1380" y="1507" type="line"/>
      <point x="1089" y="1507" type="line"/>
      <point x="1010" y="1131" type="line"/>
      <point x="798" y="1131" type="line"/>
      <point x="874" y="1507" type="line"/>
      <point x="584" y="1507" type="line"/>
      <point x="505" y="1131" type="line"/>
      <point x="202" y="1131" type="line"/>
      <point x="202" y="861" type="line"/>
      <point x="444" y="861" type="line"/>
      <point x="382" y="611" type="line"/>
      <point x="89" y="611" type="line"/>
      <point x="89" y="337" type="line"/>
      <point x="322" y="337" type="line"/>
    </contour>
    <contour>
      <point x="673" y="609" type="line"/>
      <point x="733" y="863" type="line"/>
      <point x="950" y="863" type="line"/>
      <point x="890" y="609" type="line"/>
    </contour>
  </outline>
</glyph>
<glyph name="dollar" format="1">
  <advance width="1284"/>
  <unicode hex="0024"/>
  <outline>
    <contour>
      <point x="538" y="-328" type="line"/>
      <point x="722" y="-328" type="line"/>
      <point x="722" y="3" type="line"/>
      <point x="1031" y="14"/>
      <point x="1222" y="238"/>
      <point x="1222" y="459" type="curve" smooth="yes"/>
      <point x="1222" y="701"/>
      <point x="1043" y="810"/>
      <point x="714" y="858" type="curve"/>
      <point x="714" y="1050" type="line"/>
      <point x="824" y="1044"/>
      <point x="913" y="1016"/>
      <point x="980" y="980" type="curve"/>
      <point x="1043" y="980" type="line"/>
      <point x="1096" y="1255" type="line"/>
      <point x="1025" y="1301"/>
      <point x="824" y="1344"/>
      <point x="722" y="1345" type="curve"/>
      <point x="722" y="1638" type="line"/>
      <point x="538" y="1638" type="line"/>
      <point x="538" y="1343" type="line"/>
      <point x="248" y="1308"/>
      <point x="79" y="1156"/>
      <point x="79" y="960" type="curve" smooth="yes"/>
      <point x="79" y="621"/>
      <point x="382" y="559"/>
      <point x="544" y="524" type="curve"/>
      <point x="544" y="310" type="line"/>
      <point x="388" y="310"/>
      <point x="222" y="391"/>
      <point x="222" y="391" type="curve"/>
      <point x="167" y="391" type="line"/>
      <point x="103" y="120" type="line"/>
      <point x="184" y="57"/>
      <point x="437" y="1"/>
      <point x="538" y="1" type="curve"/>
    </contour>
    <contour>
      <point x="556" y="886" type="line"/>
      <point x="490" y="900"/>
      <point x="442" y="931"/>
      <point x="442" y="964" type="curve" smooth="yes"/>
      <point x="442" y="1017"/>
      <point x="505" y="1051"/>
      <point x="556" y="1051" type="curve"/>
    </contour>
    <contour>
      <point x="707" y="308" type="curve"/>
      <point x="707" y="508" type="line"/>
      <point x="785" y="493"/>
      <point x="843" y="466"/>
      <point x="843" y="412" type="curve" smooth="yes"/>
      <point x="843" y="338"/>
      <point x="775" y="316"/>
    </contour>
  </outline>
</glyph>
<glyph name="percent" format="1">
  <advance width="2267"/>
  <unicode hex="0025"/>
  <outline>
    <contour>
      <point x="530" y="868" type="curve" smooth="yes"/>
      <point x="429" y="868"/>
      <point x="380" y="978"/>
      <point x="380" y="1090" type="curve" smooth="yes"/>
      <point x="380" y="1207"/>
      <point x="434" y="1327"/>
      <point x="531" y="1327" type="curve" smooth="yes"/>
      <point x="630" y="1327"/>
      <point x="680" y="1217"/>
      <point x="680" y="1107" type="curve" smooth="yes"/>
      <point x="680" y="990"/>
      <point x="625" y="868"/>
    </contour>
    <contour>
      <point x="531" y="662" type="curve" smooth="yes"/>
      <point x="789" y="662"/>
      <point x="926" y="883"/>
      <point x="926" y="1105" type="curve" smooth="yes"/>
      <point x="926" y="1323"/>
      <point x="798" y="1532"/>
      <point x="530" y="1532" type="curve"/>
      <point x="262" y="1529"/>
      <point x="128" y="1312"/>
      <point x="128" y="1093" type="curve" smooth="yes"/>
      <point x="128" y="874"/>
      <point x="264" y="662"/>
    </contour>
    <contour>
      <point x="599" y="0" type="line"/>
      <point x="863" y="0" type="line"/>
      <point x="1665" y="1528" type="line"/>
      <point x="1401" y="1528" type="line"/>
    </contour>
    <contour>
      <point x="1734" y="205" type="curve" smooth="yes"/>
      <point x="1635" y="205"/>
      <point x="1588" y="314"/>
      <point x="1588" y="424" type="curve" smooth="yes"/>
      <point x="1588" y="541"/>
      <point x="1639" y="663"/>
      <point x="1732" y="666" type="curve"/>
      <point x="1831" y="666"/>
      <point x="1881" y="551"/>
      <point x="1881" y="438" type="curve" smooth="yes"/>
      <point x="1881" y="321"/>
      <point x="1831" y="205"/>
    </contour>
    <contour>
      <point x="1734" y="-3" type="curve" smooth="yes"/>
      <point x="1992" y="-3"/>
      <point x="2130" y="220"/>
      <point x="2130" y="443" type="curve" smooth="yes"/>
      <point x="2130" y="660"/>
      <point x="2001" y="867"/>
      <point x="1734" y="867" type="curve"/>
      <point x="1467" y="864"/>
      <point x="1333" y="649"/>
      <point x="1333" y="431" type="curve" smooth="yes"/>
      <point x="1333" y="211"/>
      <point x="1467" y="-3"/>
    </contour>
  </outline>
</glyph>
<glyph name="ampersand" format="1">
  <advance width="1660"/>
  <unicode hex="0026"/>
  <outline>
    <contour>
      <point x="667" y="-25" type="curve" smooth="yes"/>
      <point x="829" y="-25"/>
      <point x="995" y="35"/>
      <point x="1101" y="129" type="curve"/>
      <point x="1234" y="0" type="line"/>
      <point x="1808" y="0" type="line"/>
      <point x="1808" y="0"/>
      <point x="1448" y="304"/>
      <point x="1371" y="376" type="curve"/>
      <point x="1508" y="504"/>
      <point x="1523" y="647"/>
      <point x="1548" y="774" type="curve"/>
      <point x="1175" y="773" type="line"/>
      <point x="1175" y="549" type="line"/>
      <point x="892" y="842" type="line"/>
      <point x="1075" y="885"/>
      <point x="1187" y="1017"/>
      <point x="1187" y="1178" type="curve" smooth="yes"/>
      <point x="1187" y="1366"/>
      <point x="1013" y="1505"/>
      <point x="695" y="1505" type="curve" smooth="yes"/>
      <point x="342" y="1505"/>
      <point x="205" y="1322"/>
      <point x="205" y="1154" type="curve" smooth="yes"/>
      <point x="205" y="1013"/>
      <point x="262" y="936"/>
      <point x="351" y="854" type="curve"/>
      <point x="231" y="777"/>
      <point x="100" y="645"/>
      <point x="100" y="444" type="curve" smooth="yes"/>
      <point x="100" y="183"/>
      <point x="314" y="-25"/>
    </contour>
    <contour>
      <point x="780" y="247" type="curve" smooth="yes"/>
      <point x="634" y="247"/>
      <point x="476" y="382"/>
      <point x="476" y="545" type="curve" smooth="yes"/>
      <point x="476" y="593"/>
      <point x="490" y="643"/>
      <point x="521" y="693" type="curve"/>
      <point x="921" y="300" type="line"/>
      <point x="880" y="263"/>
      <point x="831" y="247"/>
    </contour>
    <contour>
      <point x="737" y="999" type="curve"/>
      <point x="702" y="1026"/>
      <point x="589" y="1131"/>
      <point x="589" y="1187" type="curve" smooth="yes"/>
      <point x="589" y="1251"/>
      <point x="647" y="1281"/>
      <point x="708" y="1281" type="curve" smooth="yes"/>
      <point x="775" y="1281"/>
      <point x="844" y="1244"/>
      <point x="844" y="1174" type="curve" smooth="yes"/>
      <point x="844" y="1126"/>
      <point x="791" y="1052"/>
    </contour>
  </outline>
</glyph>
<glyph name="quotesingle" format="1">
  <advance width="647"/>
  <unicode hex="0027"/>
  <outline>
    <contour>
      <point x="198" y="819" type="line"/>
      <point x="458" y="819" type="line"/>
      <point x="497" y="1481" type="line"/>
      <point x="153" y="1481" type="line"/>
    </contour>
  </outline>
</glyph>
<glyph name="parenleft" format="1">
  <advance width="890"/>
  <unicode hex="0028"/>
  <outline>
    <contour>
      <point x="459" y="-349" type="curve"/>
      <point x="831" y="-349" type="line"/>
      <point x="826" y="-329"/>
      <point x="813" y="-306"/>
      <point x="808" y="-287" type="curve"/>
      <point x="613" y="-75"/>
      <point x="451" y="235"/>
      <point x="451" y="611" type="curve" smooth="yes"/>
      <point x="451" y="1005"/>
      <point x="633" y="1306"/>
      <point x="808" y="1510" type="curve"/>
      <point x="813" y="1531"/>
      <point x="826" y="1552"/>
      <point x="831" y="1573" type="curve"/>
      <point x="459" y="1573" type="line"/>
      <point x="228" y="1313"/>
      <point x="74" y="1040"/>
      <point x="74" y="611" type="curve" smooth="yes"/>
      <point x="74" y="226"/>
      <point x="232" y="-89"/>
    </contour>
  </outline>
</glyph>
<glyph name="parenright" format="1">
  <advance width="889"/>
  <unicode hex="0029"/>
  <outline>
    <contour>
      <point x="63" y="-349" type="curve"/>
      <point x="433" y="-349" type="line"/>
      <point x="664" y="-87"/>
      <point x="818" y="221"/>
      <point x="818" y="611" type="curve" smooth="yes"/>
      <point x="818" y="1028"/>
      <point x="667" y="1312"/>
      <point x="433" y="1573" type="curve"/>
      <point x="63" y="1573" type="line"/>
      <point x="68" y="1552"/>
      <point x="81" y="1533"/>
      <point x="84" y="1510" type="curve"/>
      <point x="263" y="1306"/>
      <point x="444" y="1003"/>
      <point x="444" y="611" type="curve" smooth="yes"/>
      <point x="444" y="225"/>
      <point x="274" y="-77"/>
      <point x="84" y="-287" type="curve"/>
      <point x="81" y="-307"/>
      <point x="68" y="-329"/>
    </contour>
  </outline>
</glyph>
<glyph name="asterisk" format="1">
  <advance width="1168"/>
  <unicode hex="002A"/>
  <outline>
    <contour>
      <point x="521" y="1100" type="curve"/>
      <point x="584" y="1100" type="line"/>
      <point x="584" y="1163"/>
      <point x="656" y="1300"/>
      <point x="656" y="1392" type="curve" smooth="yes"/>
      <point x="656" y="1450"/>
      <point x="624" y="1495"/>
      <point x="553" y="1495" type="curve" smooth="yes"/>
      <point x="485" y="1495"/>
      <point x="451" y="1456"/>
      <point x="451" y="1392" type="curve" smooth="yes"/>
      <point x="451" y="1299"/>
      <point x="521" y="1164"/>
    </contour>
  </outline>
</glyph>
<glyph name="plus" format="1">
  <advance width="1634"/>
  <unicode hex="002B"/>
  <outline>
    <contour>
      <point x="682" y="14" type="line"/>
      <point x="959" y="14" type="line"/>
      <point x="959" y="441" type="line"/>
      <point x="1451" y="441" type="line"/>
      <point x="1451" y="708" type="line"/>
      <point x="959" y="708" type="line"/>
      <point x="959" y="1154" type="line"/>
      <point x="682" y="1154" type="line"/>
      <point x="682" y="708" type="line"/>
      <point x="188" y="708" type="line"/>
      <point x="188" y="441" type="line"/>
      <point x="682" y="441" type="line"/>
    </contour>
  </outline>
</glyph>
<glyph name="comma" format="1">
  <advance width="591"/>
  <unicode hex="002C"/>
  <outline>
    <contour>
      <point x="106" y="-241" type="line"/>
      <point x="292" y="-241" type="line"/>
      <point x="577" y="352" type="line"/>
      <point x="182" y="352" type="line"/>
    </contour>
  </outline>
</glyph>
<glyph name="hyphen" format="1">
  <advance width="845"/>
  <unicode hex="002D"/>
  <outline>
    <contour>
      <point x="98" y="429" type="line"/>
      <point x="749" y="429" type="line"/>
      <point x="749" y="758" type="line"/>
      <point x="98" y="758" type="line"/>
    </contour>
  </outline>
</glyph>
<glyph name="period" format="1">
  <advance width="776"/>
  <unicode hex="002E"/>
  <outline>
    <contour>
      <point x="398" y="-29" type="curve" smooth="yes"/>
      <point x="523" y="-29"/>
      <point x="627" y="76"/>
      <point x="627" y="198" type="curve" smooth="yes"/>
      <point x="627" y="321"/>
      <point x="523" y="424"/>
      <point x="398" y="424" type="curve" smooth="yes"/>
      <point x="276" y="424"/>
      <point x="172" y="321"/>
      <point x="172" y="198" type="curve" smooth="yes"/>
      <point x="172" y="76"/>
      <point x="276" y="-29"/>
    </contour>
  </outline>
</glyph>
<glyph name="slash" format="1">
  <advance width="979"/>
  <unicode hex="002F"/>
  <outline>
    <contour>
      <point x="62" y="0" type="line"/>
      <point x="355" y="0" type="line"/>
      <point x="915" y="1482" type="line"/>
      <point x="620" y="1482" type="line"/>
    </contour>
  </outline>
</glyph>
<glyph name="zero" format="1">
  <advance width="1341"/>
  <unicode hex="0030"/>
  <outline>
    <contour>
      <point x="669" y="265" type="curve" smooth="yes"/>
      <point x="566" y="265"/>
      <point x="551" y="415"/>
      <point x="551" y="744" type="curve" smooth="yes"/>
      <point x="551" y="1054"/>
      <point x="570" y="1172"/>
      <point x="669" y="1172" type="curve" smooth="yes"/>
      <point x="771" y="1172"/>
      <point x="787" y="1056"/>
      <point x="787" y="744" type="curve" smooth="yes"/>
      <point x="787" y="408"/>
      <point x="776" y="265"/>
    </contour>
    <contour>
      <point x="669" y="-23" type="curve" smooth="yes"/>
      <point x="1072" y="-23"/>
      <point x="1242" y="242"/>
      <point x="1242" y="683" type="curve" smooth="yes"/>
      <point x="1242" y="1124"/>
      <point x="1123" y="1505"/>
      <point x="669" y="1505" type="curve" smooth="yes"/>
      <point x="258" y="1505"/>
      <point x="99" y="1213"/>
      <point x="99" y="801" type="curve" smooth="yes"/>
      <point x="99" y="336"/>
      <point x="219" y="-23"/>
    </contour>
  </outline>
</glyph>
<glyph name="one" format="1">
  <advance width="1127"/>
  <unicode hex="0031"/>
  <outline>
    <contour>
      <point x="133" y="0" type="line"/>
      <point x="1072" y="0" type="line"/>
      <point x="1072" y="324" type="line"/>
      <point x="830" y="324" type="line"/>
      <point x="830" y="1483" type="line"/>
      <point x="655" y="1484"/>
      <point x="617" y="1481"/>
      <point x="442" y="1483" type="curve"/>
      <point x="416" y="1338"/>
      <point x="334" y="1301"/>
      <point x="145" y="1292" type="curve"/>
      <point x="145" y="1022" type="line"/>
      <point x="390" y="1051" type="line"/>
      <point x="390" y="324" type="line"/>
      <point x="133" y="324" type="line"/>
    </contour>
  </outline>
</glyph>
<glyph name="two" format="1">
  <advance width="1309"/>
  <unicode hex="0032"/>
  <outline>
    <contour>
      <point x="129" y="2" type="line"/>
      <point x="1247" y="2" type="line"/>
      <point x="1247" y="340" type="line"/>
      <point x="714" y="340" type="line"/>
      <point x="811" y="393"/>
      <point x="1180" y="735"/>
      <point x="1180" y="1034" type="curve" smooth="yes"/>
      <point x="1180" y="1321"/>
      <point x="977" y="1505"/>
      <point x="620" y="1505" type="curve" smooth="yes"/>
      <point x="450" y="1505"/>
      <point x="230" y="1435"/>
      <point x="153" y="1369" type="curve"/>
      <point x="244" y="1052" type="line"/>
      <point x="296" y="1070"/>
      <point x="433" y="1137"/>
      <point x="574" y="1137" type="curve" smooth="yes"/>
      <point x="617" y="1137"/>
      <point x="719" y="1120"/>
      <point x="719" y="973" type="curve" smooth="yes"/>
      <point x="719" y="744"/>
      <point x="235" y="353"/>
      <point x="129" y="265" type="curve"/>
    </contour>
  </outline>
</glyph>
<glyph name="three" format="1">
  <advance width="1249"/>
  <unicode hex="0033"/>
  <outline>
    <contour>
      <point x="586" y="-23" type="curve" smooth="yes"/>
      <point x="984" y="-23"/>
      <point x="1205" y="160"/>
      <point x="1205" y="449" type="curve" smooth="yes"/>
      <point x="1205" y="622"/>
      <point x="1071" y="735"/>
      <point x="931" y="769" type="curve"/>
      <point x="1048" y="812"/>
      <point x="1151" y="917"/>
      <point x="1151" y="1103" type="curve" smooth="yes"/>
      <point x="1151" y="1317"/>
      <point x="975" y="1505"/>
      <point x="596" y="1505" type="curve" smooth="yes"/>
      <point x="418" y="1505"/>
      <point x="204" y="1432"/>
      <point x="109" y="1366" type="curve"/>
      <point x="109" y="991" type="line"/>
      <point x="194" y="991" type="line"/>
      <point x="194" y="991"/>
      <point x="288" y="1161"/>
      <point x="527" y="1161" type="curve" smooth="yes"/>
      <point x="539" y="1161"/>
      <point x="706" y="1156"/>
      <point x="706" y="1046" type="curve" smooth="yes"/>
      <point x="706" y="897"/>
      <point x="582" y="899"/>
      <point x="453" y="899" type="curve" smooth="yes"/>
      <point x="426" y="899" type="line"/>
      <point x="426" y="632" type="line"/>
      <point x="574" y="632" type="line" smooth="yes"/>
      <point x="704" y="632"/>
      <point x="755" y="596"/>
      <point x="755" y="486" type="curve" smooth="yes"/>
      <point x="755" y="331"/>
      <point x="564" y="324"/>
      <point x="483" y="324" type="curve" smooth="yes"/>
      <point x="270" y="324"/>
      <point x="189" y="488"/>
      <point x="189" y="488" type="curve"/>
      <point x="109" y="488" type="line"/>
      <point x="109" y="103" type="line"/>
      <point x="227" y="18"/>
      <point x="357" y="-23"/>
    </contour>
  </outline>
</glyph>
<glyph name="four" format="1">
  <advance width="1325"/>
  <unicode hex="0034"/>
  <outline>
    <contour>
      <point x="696" y="0" type="line"/>
      <point x="1135" y="0" type="line"/>
      <point x="1135" y="267" type="line"/>
      <point x="1297" y="267" type="line"/>
      <point x="1297" y="560" type="line"/>
      <point x="1135" y="560" type="line"/>
      <point x="1135" y="1481" type="line"/>
      <point x="522" y="1481" type="line"/>
      <point x="26" y="578" type="line"/>
      <point x="26" y="267" type="line"/>
      <point x="696" y="267" type="line"/>
    </contour>
    <contour>
      <point x="394" y="560" type="line"/>
      <point x="696" y="1184" type="line"/>
      <point x="696" y="560" type="line"/>
    </contour>
  </outline>
</glyph>
<glyph name="five" format="1">
  <advance width="1255"/>
  <unicode hex="0035"/>
  <outline>
    <contour>
      <point x="570" y="-25" type="curve" smooth="yes"/>
      <point x="941" y="-25"/>
      <point x="1209" y="156"/>
      <point x="1209" y="521" type="curve" smooth="yes"/>
      <point x="1209" y="872"/>
      <point x="851" y="957"/>
      <point x="713" y="972" type="curve" smooth="yes"/>
      <point x="659" y="977"/>
      <point x="542" y="989"/>
      <point x="542" y="990" type="curve" smooth="yes"/>
      <point x="542" y="1143" type="line"/>
      <point x="1085" y="1143" type="line"/>
      <point x="1085" y="1481" type="line"/>
      <point x="103" y="1481" type="line"/>
      <point x="103" y="744" type="line"/>
      <point x="103" y="744"/>
      <point x="430" y="725"/>
      <point x="508" y="724" type="curve"/>
      <point x="635" y="724"/>
      <point x="757" y="668"/>
      <point x="757" y="516" type="curve" smooth="yes"/>
      <point x="757" y="367"/>
      <point x="642" y="330"/>
      <point x="509" y="330" type="curve" smooth="yes"/>
      <point x="276" y="330"/>
      <point x="154" y="486"/>
      <point x="154" y="486" type="curve"/>
      <point x="85" y="486" type="line"/>
      <point x="85" y="136" type="line"/>
      <point x="178" y="36"/>
      <point x="349" y="-25"/>
    </contour>
  </outline>
</glyph>
<glyph name="six" format="1">
  <advance width="1272"/>
  <unicode hex="0036"/>
  <outline>
    <contour>
      <point x="659" y="-25" type="curve" smooth="yes"/>
      <point x="1000" y="-25"/>
      <point x="1222" y="180"/>
      <point x="1222" y="512" type="curve" smooth="yes"/>
      <point x="1222" y="828"/>
      <point x="1094" y="985"/>
      <point x="833" y="985" type="curve" smooth="yes"/>
      <point x="735" y="985"/>
      <point x="666" y="940"/>
      <point x="599" y="927" type="curve"/>
      <point x="667" y="1133"/>
      <point x="869" y="1146"/>
      <point x="1112" y="1171" type="curve"/>
      <point x="1041" y="1482" type="line"/>
      <point x="413" y="1432"/>
      <point x="92" y="1190"/>
      <point x="92" y="560" type="curve" smooth="yes"/>
      <point x="92" y="178"/>
      <point x="315" y="-25"/>
    </contour>
    <contour>
      <point x="640" y="258" type="curve" smooth="yes"/>
      <point x="538" y="258"/>
      <point x="512" y="370"/>
      <point x="512" y="501" type="curve" smooth="yes"/>
      <point x="512" y="632"/>
      <point x="594" y="696"/>
      <point x="637" y="695" type="curve"/>
      <point x="711" y="695"/>
      <point x="778" y="661"/>
      <point x="778" y="493" type="curve" smooth="yes"/>
      <point x="778" y="349"/>
      <point x="734" y="258"/>
    </contour>
  </outline>
</glyph>
<glyph name="seven" format="1">
  <advance width="1275"/>
  <unicode hex="0037"/>
  <outline>
    <contour>
      <point x="176" y="0" type="line"/>
      <point x="693" y="0" type="line"/>
      <point x="1215" y="1169" type="line"/>
      <point x="1215" y="1481" type="line"/>
      <point x="77" y="1481" type="line"/>
      <point x="77" y="1023" type="line"/>
      <point x="310" y="1023" type="line"/>
      <point x="310" y="1169" type="line"/>
      <point x="721" y="1169" type="line"/>
    </contour>
  </outline>
</glyph>
<glyph name="eight" format="1">
  <advance width="1337"/>
  <unicode hex="0038"/>
  <outline>
    <contour>
      <point x="668" y="-25" type="curve" smooth="yes"/>
      <point x="1044" y="-25"/>
      <point x="1267" y="159"/>
      <point x="1267" y="419" type="curve" smooth="yes"/>
      <point x="1267" y="586"/>
      <point x="1217" y="720"/>
      <point x="1032" y="799" type="curve"/>
      <point x="1175" y="855"/>
      <point x="1229" y="1043"/>
      <point x="1224" y="1149" type="curve"/>
      <point x="1200" y="1350"/>
      <point x="1031" y="1507"/>
      <point x="670" y="1507" type="curve" smooth="yes"/>
      <point x="295" y="1507"/>
      <point x="105" y="1295"/>
      <point x="105" y="1066" type="curve" smooth="yes"/>
      <point x="105" y="967"/>
      <point x="147" y="791"/>
      <point x="272" y="727" type="curve"/>
      <point x="108" y="655"/>
      <point x="70" y="562"/>
      <point x="70" y="426" type="curve" smooth="yes"/>
      <point x="70" y="158"/>
      <point x="261" y="-25"/>
    </contour>
    <contour>
      <point x="685" y="276" type="curve" smooth="yes"/>
      <point x="599" y="276"/>
      <point x="503" y="355"/>
      <point x="503" y="470" type="curve" smooth="yes"/>
      <point x="503" y="531"/>
      <point x="515" y="591"/>
      <point x="571" y="618" type="curve"/>
      <point x="865" y="613"/>
      <point x="835" y="451"/>
      <point x="835" y="420" type="curve" smooth="yes"/>
      <point x="835" y="300"/>
      <point x="686" y="276"/>
    </contour>
    <contour>
      <point x="737" y="913" type="curve"/>
      <point x="554" y="970"/>
      <point x="541" y="947"/>
      <point x="541" y="1070" type="curve" smooth="yes"/>
      <point x="541" y="1116"/>
      <point x="570" y="1213"/>
      <point x="668" y="1213" type="curve" smooth="yes"/>
      <point x="745" y="1213"/>
      <point x="799" y="1132"/>
      <point x="799" y="1044" type="curve" smooth="yes"/>
      <point x="799" y="988"/>
      <point x="790" y="954"/>
    </contour>
  </outline>
</glyph>
<glyph name="nine" format="1">
  <advance width="1262"/>
  <unicode hex="0039"/>
  <outline>
    <contour>
      <point x="221" y="2" type="curve"/>
      <point x="911" y="0"/>
      <point x="1173" y="325"/>
      <point x="1182" y="859" type="curve"/>
      <point x="1182" y="1292"/>
      <point x="963" y="1505"/>
      <point x="612" y="1505" type="curve" smooth="yes"/>
      <point x="271" y="1505"/>
      <point x="43" y="1292"/>
      <point x="43" y="967" type="curve" smooth="yes"/>
      <point x="43" y="575"/>
      <point x="298" y="494"/>
      <point x="430" y="494" type="curve" smooth="yes"/>
      <point x="469" y="494"/>
      <point x="558" y="492"/>
      <point x="648" y="537" type="curve"/>
      <point x="582" y="286"/>
      <point x="268" y="256"/>
      <point x="156" y="265" type="curve"/>
      <point x="186" y="160"/>
      <point x="194" y="119"/>
    </contour>
    <contour>
      <point x="632" y="796" type="curve"/>
      <point x="555" y="796"/>
      <point x="496" y="812"/>
      <point x="496" y="1006" type="curve" smooth="yes"/>
      <point x="496" y="1194"/>
      <point x="608" y="1202"/>
      <point x="615" y="1202" type="curve" smooth="yes"/>
      <point x="702" y="1202"/>
      <point x="734" y="1138"/>
      <point x="734" y="954" type="curve" smooth="yes"/>
      <point x="734" y="857"/>
      <point x="681" y="795"/>
    </contour>
  </outline>
</glyph>
<glyph name="colon" format="1">
  <advance width="651"/>
  <unicode hex="003A"/>
  <outline>
    <contour>
      <point x="322" y="0" type="curve" smooth="yes"/>
      <point x="444" y="0"/>
      <point x="546" y="98"/>
      <point x="546" y="220" type="curve" smooth="yes"/>
      <point x="546" y="342"/>
      <point x="444" y="441"/>
      <point x="322" y="441" type="curve" smooth="yes"/>
      <point x="200" y="441"/>
      <point x="102" y="342"/>
      <point x="102" y="220" type="curve" smooth="yes"/>
      <point x="102" y="98"/>
      <point x="200" y="0"/>
    </contour>
    <contour>
      <point x="322" y="593" type="curve" smooth="yes"/>
      <point x="444" y="593"/>
      <point x="546" y="693"/>
      <point x="546" y="815" type="curve" smooth="yes"/>
      <point x="546" y="937"/>
      <point x="444" y="1037"/>
      <point x="322" y="1037" type="curve" smooth="yes"/>
      <point x="200" y="1037"/>
      <point x="102" y="937"/>
      <point x="102" y="815" type="curve" smooth="yes"/>
      <point x="102" y="693"/>
      <point x="200" y="593"/>
    </contour>
  </outline>
</glyph>
<glyph name="semicolon" format="1">
  <advance width="624"/>
  <unicode hex="003B"/>
  <outline>
    <contour>
      <point x="79" y="-241" type="line"/>
      <point x="266" y="-241" type="line"/>
      <point x="551" y="352" type="line"/>
      <point x="155" y="352" type="line"/>
    </contour>
    <contour>
      <point x="307" y="593" type="curve" smooth="yes"/>
      <point x="429" y="593"/>
      <point x="531" y="693"/>
      <point x="531" y="815" type="curve" smooth="yes"/>
      <point x="531" y="937"/>
      <point x="429" y="1037"/>
      <point x="307" y="1037" type="curve" smooth="yes"/>
      <point x="186" y="1037"/>
      <point x="87" y="937"/>
      <point x="87" y="815" type="curve" smooth="yes"/>
      <point x="87" y="693"/>
      <point x="186" y="593"/>
    </contour>
  </outline>
</glyph>
<glyph name="less" format="1">
  <advance width="1266"/>
  <unicode hex="003C"/>
  <outline>
    <contour>
      <point x="1193" y="-16" type="line"/>
      <point x="1193" y="265" type="line"/>
      <point x="472" y="576" type="line"/>
      <point x="1193" y="880" type="line"/>
      <point x="1193" y="1166" type="line"/>
      <point x="70" y="681" type="line"/>
      <point x="70" y="472" type="line"/>
    </contour>
  </outline>
</glyph>
<glyph name="equal" format="1">
  <advance width="1277"/>
  <unicode hex="003D"/>
  <outline>
    <contour>
      <point x="153" y="227" type="line"/>
      <point x="1123" y="227" type="line"/>
      <point x="1123" y="474" type="line"/>
      <point x="153" y="474" type="line"/>
    </contour>
    <contour>
      <point x="153" y="679" type="line"/>
      <point x="1123" y="679" type="line"/>
      <point x="1123" y="926" type="line"/>
      <point x="153" y="926" type="line"/>
    </contour>
  </outline>
</glyph>
<glyph name="greater" format="1">
  <advance width="1266"/>
  <unicode hex="003E"/>
  <outline>
    <contour>
      <point x="74" y="-16" type="line"/>
      <point x="1197" y="472" type="line"/>
      <point x="1197" y="681" type="line"/>
      <point x="74" y="1166" type="line"/>
      <point x="74" y="880" type="line"/>
      <point x="795" y="576" type="line"/>
      <point x="74" y="265" type="line"/>
    </contour>
  </outline>
</glyph>
<glyph name="question" format="1">
  <advance width="1256"/>
  <unicode hex="003F"/>
  <outline>
    <contour>
      <point x="504" y="595" type="curve"/>
      <point x="709" y="595" type="line"/>
      <point x="957" y="668"/>
      <point x="1121" y="904"/>
      <point x="1121" y="1117" type="curve" smooth="yes"/>
      <point x="1121" y="1321"/>
      <point x="970" y="1505"/>
      <point x="596" y="1505" type="curve" smooth="yes"/>
      <point x="408" y="1505"/>
      <point x="261" y="1406"/>
      <point x="199" y="1370" type="curve"/>
      <point x="199" y="1025" type="line"/>
      <point x="247" y="1080"/>
      <point x="393" y="1162"/>
      <point x="524" y="1162" type="curve" smooth="yes"/>
      <point x="689" y="1162"/>
      <point x="760" y="1078"/>
      <point x="760" y="972" type="curve" smooth="yes"/>
      <point x="760" y="843"/>
      <point x="666" y="680"/>
    </contour>
    <contour>
      <point x="590" y="-32" type="curve" smooth="yes"/>
      <point x="724" y="-32"/>
      <point x="835" y="79"/>
      <point x="835" y="214" type="curve" smooth="yes"/>
      <point x="835" y="348"/>
      <point x="724" y="459"/>
      <point x="590" y="459" type="curve" smooth="yes"/>
      <point x="454" y="459"/>
      <point x="343" y="348"/>
      <point x="343" y="214" type="curve" smooth="yes"/>
      <point x="343" y="79"/>
      <point x="454" y="-32"/>
    </contour>
  </outline>
</glyph>
<glyph name="at" format="1">
  <advance width="1879"/>
  <unicode hex="0040"/>
  <outline>
    <contour>
      <point x="1037" y="-154" type="curve" smooth="yes"/>
      <point x="1205" y="-154"/>
      <point x="1397" y="-86"/>
      <point x="1540" y="16" type="curve"/>
      <point x="1487" y="151" type="line"/>
      <point x="1356" y="80"/>
      <point x="1192" y="47"/>
      <point x="1034" y="47" type="curve" smooth="yes"/>
      <point x="666" y="47"/>
      <point x="349" y="295"/>
      <point x="349" y="685" type="curve" smooth="yes"/>
      <point x="349" y="1063"/>
      <point x="637" y="1337"/>
      <point x="1039" y="1337" type="curve" smooth="yes"/>
      <point x="1387" y="1337"/>
      <point x="1651" y="1109"/>
      <point x="1651" y="751" type="curve" smooth="yes"/>
      <point x="1651" y="618"/>
      <point x="1632" y="369"/>
      <point x="1458" y="369" type="curve" smooth="yes"/>
      <point x="1373" y="369"/>
      <point x="1375" y="422"/>
      <point x="1375" y="456" type="curve" smooth="yes"/>
      <point x="1375" y="476"/>
      <point x="1379" y="503"/>
      <point x="1382" y="528" type="curve" smooth="yes"/>
      <point x="1452" y="1142" type="line"/>
      <point x="1232" y="1142" type="line"/>
      <point x="1226" y="1094" type="line"/>
      <point x="1172" y="1121"/>
      <point x="1138" y="1182"/>
      <point x="985" y="1182" type="curve" smooth="yes"/>
      <point x="738" y="1182"/>
      <point x="530" y="926"/>
      <point x="530" y="614" type="curve" smooth="yes"/>
      <point x="530" y="415"/>
      <point x="676" y="222"/>
      <point x="876" y="222" type="curve" smooth="yes"/>
      <point x="975" y="222"/>
      <point x="1124" y="245"/>
      <point x="1181" y="315" type="curve"/>
      <point x="1223" y="217"/>
      <point x="1297" y="196"/>
      <point x="1409" y="196" type="curve" smooth="yes"/>
      <point x="1686" y="196"/>
      <point x="1861" y="408"/>
      <point x="1861" y="769" type="curve" smooth="yes"/>
      <point x="1861" y="1215"/>
      <point x="1519" y="1539"/>
      <point x="1034" y="1539" type="curve" smooth="yes"/>
      <point x="523" y="1539"/>
      <point x="146" y="1185"/>
      <point x="146" y="688" type="curve" smooth="yes"/>
      <point x="146" y="197"/>
      <point x="512" y="-154"/>
    </contour>
    <contour>
      <point x="949" y="399" type="curve" smooth="yes"/>
      <point x="857" y="399"/>
      <point x="756" y="461"/>
      <point x="756" y="634" type="curve" smooth="yes"/>
      <point x="756" y="803"/>
      <point x="868" y="981"/>
      <point x="1029" y="981" type="curve" smooth="yes"/>
      <point x="1086" y="981"/>
      <point x="1147" y="940"/>
      <point x="1190" y="882" type="curve"/>
      <point x="1147" y="433" type="line"/>
      <point x="1050" y="392"/>
      <point x="987" y="399"/>
    </contour>
  </outline>
</glyph>
<glyph name="A" format="1">
  <advance width="1544"/>
  <unicode hex="0041"/>
  <outline>
    <contour>
      <point x="22" y="0" type="line"/>
      <point x="440" y="0" type="line"/>
      <point x="519" y="247" type="line"/>
      <point x="1014" y="247" type="line"/>
      <point x="1096" y="0" type="line"/>
      <point x="1522" y="0" type="line"/>
      <point x="1009" y="1481" type="line"/>
      <point x="546" y="1481" type="line"/>
    </contour>
    <contour>
      <point x="608" y="549" type="line"/>
      <point x="771" y="1104" type="line"/>
      <point x="927" y="549" type="line"/>
    </contour>
    <contour>
      <point x="772" y="1481" type="move" name="top"/>
    </contour>
    <contour>
      <point x="1390" y="10" type="move" name="ogonek"/>
    </contour>
  </outline>
</glyph>
<glyph name="B" format="1">
  <advance width="1519"/>
  <unicode hex="0042"/>
  <outline>
    <contour>
      <point x="155" y="0" type="line"/>
      <point x="841" y="0" type="line" smooth="yes"/>
      <point x="1170" y="0"/>
      <point x="1437" y="119"/>
      <point x="1437" y="419" type="curve" smooth="yes"/>
      <point x="1437" y="615"/>
      <point x="1282" y="741"/>
      <point x="1103" y="773" type="curve"/>
      <point x="1103" y="781" type="line"/>
      <point x="1255" y="841"/>
      <point x="1338" y="947"/>
      <point x="1337" y="1087" type="curve"/>
      <point x="1337" y="1411"/>
      <point x="1064" y="1481"/>
      <point x="608" y="1481" type="curve" smooth="yes"/>
      <point x="155" y="1481" type="line"/>
    </contour>
    <contour>
      <point x="586" y="295" type="line"/>
      <point x="586" y="623" type="line"/>
      <point x="715" y="623" type="line" smooth="yes"/>
      <point x="884" y="623"/>
      <point x="1010" y="599"/>
      <point x="1010" y="445" type="curve" smooth="yes"/>
      <point x="1010" y="319"/>
      <point x="862" y="295"/>
      <point x="794" y="295" type="curve" smooth="yes"/>
    </contour>
    <contour>
      <point x="586" y="878" type="curve"/>
      <point x="586" y="1186" type="line"/>
      <point x="813" y="1186"/>
      <point x="942" y="1172"/>
      <point x="942" y="1037" type="curve" smooth="yes"/>
      <point x="942" y="898"/>
      <point x="821" y="878"/>
    </contour>
  </outline>
</glyph>
<glyph name="C" format="1">
  <advance width="1493"/>
  <unicode hex="0043"/>
  <outline>
    <contour>
      <point x="893" y="-24" type="curve" smooth="yes"/>
      <point x="1086" y="-24"/>
      <point x="1211" y="3"/>
      <point x="1388" y="94" type="curve"/>
      <point x="1309" y="424" type="line"/>
      <point x="1309" y="424"/>
      <point x="1128" y="311"/>
      <point x="955" y="311" type="curve" smooth="yes"/>
      <point x="678" y="311"/>
      <point x="537" y="479"/>
      <point x="537" y="734" type="curve" smooth="yes"/>
      <point x="537" y="966"/>
      <point x="681" y="1170"/>
      <point x="949" y="1170" type="curve" smooth="yes"/>
      <point x="1143" y="1170"/>
      <point x="1297" y="1051"/>
      <point x="1297" y="1051" type="curve"/>
      <point x="1388" y="1398" type="line"/>
      <point x="1229" y="1468"/>
      <point x="1083" y="1505"/>
      <point x="893" y="1505" type="curve" smooth="yes"/>
      <point x="430" y="1505"/>
      <point x="110" y="1226"/>
      <point x="110" y="738" type="curve" smooth="yes"/>
      <point x="110" y="251"/>
      <point x="376" y="-24"/>
    </contour>
    <contour>
      <point x="747" y="1481" type="move" name="top"/>
    </contour>
    <contour>
      <point x="747" y="0" type="move" name="bottom"/>
    </contour>
  </outline>
</glyph>
<glyph name="D" format="1">
  <advance width="1581"/>
  <unicode hex="0044"/>
  <outline>
    <contour>
      <point x="586" y="326" type="line"/>
      <point x="586" y="1155" type="line"/>
      <point x="749" y="1155" type="line" smooth="yes"/>
      <point x="930" y="1155"/>
      <point x="1046" y="1021"/>
      <point x="1046" y="735" type="curve" smooth="yes"/>
      <point x="1046" y="427"/>
      <point x="917" y="326"/>
      <point x="670" y="326" type="curve" smooth="yes"/>
    </contour>
    <contour>
      <point x="155" y="0" type="line"/>
      <point x="597" y="0" type="line" smooth="yes"/>
      <point x="1129" y="0"/>
      <point x="1473" y="164"/>
      <point x="1473" y="737" type="curve" smooth="yes"/>
      <point x="1473" y="1306"/>
      <point x="1159" y="1481"/>
      <point x="617" y="1481" type="curve" smooth="yes"/>
      <point x="155" y="1481" type="line"/>
    </contour>
    <contour>
      <point x="791" y="1481" type="move" name="top"/>
    </contour>
    <contour>
      <point x="791" y="741" type="move" name="center"/>
    </contour>
  </outline>
</glyph>
<glyph name="E" format="1">
  <advance width="1363"/>
  <unicode hex="0045"/>
  <outline>
    <contour>
      <point x="155" y="0" type="line"/>
      <point x="1252" y="0" type="line"/>
      <point x="1252" y="326" type="line"/>
      <point x="586" y="326" type="line"/>
      <point x="586" y="606" type="line"/>
      <point x="1165" y="606" type="line"/>
      <point x="1165" y="928" type="line"/>
      <point x="586" y="928" type="line"/>
      <point x="586" y="1155" type="line"/>
      <point x="1254" y="1155" type="line"/>
      <point x="1254" y="1481" type="line"/>
      <point x="155" y="1481" type="line"/>
    </contour>
    <contour>
      <point x="682" y="1481" type="move" name="top"/>
    </contour>
    <contour>
      <point x="682" y="0" type="move" name="bottom"/>
    </contour>
    <contour>
      <point x="1227" y="10" type="move" name="ogonek"/>
    </contour>
  </outline>
</glyph>
<glyph name="F" format="1">
  <advance width="1308"/>
  <unicode hex="0046"/>
  <outline>
    <contour>
      <point x="155" y="0" type="line"/>
      <point x="586" y="0" type="line"/>
      <point x="586" y="577" type="line"/>
      <point x="1185" y="577" type="line"/>
      <point x="1185" y="900" type="line"/>
      <point x="586" y="900" type="line"/>
      <point x="586" y="1155" type="line"/>
      <point x="1247" y="1155" type="line"/>
      <point x="1247" y="1481" type="line"/>
      <point x="155" y="1481" type="line"/>
    </contour>
  </outline>
</glyph>
<glyph name="G" format="1">
  <advance width="1628"/>
  <unicode hex="0047"/>
  <outline>
    <contour>
      <point x="877" y="-24" type="curve" smooth="yes"/>
      <point x="1104" y="-24"/>
      <point x="1382" y="42"/>
      <point x="1464" y="129" type="curve"/>
      <point x="1464" y="832" type="line"/>
      <point x="815" y="832" type="line"/>
      <point x="815" y="552" type="line"/>
      <point x="1139" y="552" type="line"/>
      <point x="1139" y="329" type="line"/>
      <point x="1107.1" y="315.736"/>
      <point x="1035.51" y="299.471"/>
      <point x="958.191" y="299.471" type="curve" smooth="yes"/>
      <point x="774.918" y="299.471"/>
      <point x="537" y="362.771"/>
      <point x="537" y="746" type="curve" smooth="yes"/>
      <point x="537" y="1000"/>
      <point x="692" y="1170"/>
      <point x="981" y="1170" type="curve" smooth="yes"/>
      <point x="1190" y="1170"/>
      <point x="1381" y="1025"/>
      <point x="1381" y="1022" type="curve" smooth="yes"/>
      <point x="1467" y="1353" type="line"/>
      <point x="1268" y="1470"/>
      <point x="1189" y="1505"/>
      <point x="891" y="1505" type="curve" smooth="yes"/>
      <point x="398" y="1505"/>
      <point x="110" y="1235"/>
      <point x="110" y="740" type="curve" smooth="yes"/>
      <point x="110" y="268"/>
      <point x="388" y="-24"/>
    </contour>
    <contour>
      <point x="814" y="1481" type="move" name="top"/>
    </contour>
    <contour>
      <point x="814" y="0" type="move" name="bottom"/>
    </contour>
  </outline>
</glyph>
<glyph name="H" format="1">
  <advance width="1633"/>
  <unicode hex="0048"/>
  <outline>
    <contour>
      <point x="155" y="0" type="line"/>
      <point x="586" y="0" type="line"/>
      <point x="586" y="617" type="line"/>
      <point x="1047" y="617" type="line"/>
      <point x="1047" y="0" type="line"/>
      <point x="1478" y="0" type="line"/>
      <point x="1478" y="1481" type="line"/>
      <point x="1047" y="1481" type="line"/>
      <point x="1047" y="941" type="line"/>
      <point x="586" y="941" type="line"/>
      <point x="586" y="1481" type="line"/>
      <point x="155" y="1481" type="line"/>
    </contour>
    <contour>
      <point x="817" y="1481" type="move" name="top"/>
    </contour>
    <contour>
      <point x="817" y="741" type="move" name="center"/>
    </contour>
  </outline>
</glyph>
<glyph name="I" format="1">
  <advance width="1138"/>
  <unicode hex="0049"/>
  <outline>
    <contour>
      <point x="121" y="0" type="line"/>
      <point x="1026" y="0" type="line"/>
      <point x="1026" y="326" type="line"/>
      <point x="790" y="326" type="line"/>
      <point x="790" y="1155" type="line"/>
      <point x="1026" y="1155" type="line"/>
      <point x="1026" y="1481" type="line"/>
      <point x="121" y="1481" type="line"/>
      <point x="121" y="1155" type="line"/>
      <point x="357" y="1155" type="line"/>
      <point x="357" y="326" type="line"/>
      <point x="121" y="326" type="line"/>
    </contour>
    <contour>
      <point x="569" y="1481" type="move" name="top"/>
    </contour>
    <contour>
      <point x="1024" y="10" type="move" name="ogonek"/>
    </contour>
  </outline>
</glyph>
<glyph name="J" format="1">
  <advance width="1274"/>
  <unicode hex="004A"/>
  <outline>
    <contour>
      <point x="490" y="-24" type="curve" smooth="yes"/>
      <point x="821" y="-24"/>
      <point x="1119" y="169"/>
      <point x="1119" y="473" type="curve" smooth="yes"/>
      <point x="1119" y="1481" type="line"/>
      <point x="372" y="1481" type="line"/>
      <point x="372" y="1108" type="line"/>
      <point x="688" y="1108" type="line"/>
      <point x="688" y="627" type="line" smooth="yes"/>
      <point x="688" y="386.036"/>
      <point x="563.152" y="310.888"/>
      <point x="414.992" y="310.888" type="curve" smooth="yes"/>
      <point x="317.44" y="310.888"/>
      <point x="209.782" y="344.599"/>
      <point x="121" y="381" type="curve"/>
      <point x="50" y="69" type="line"/>
      <point x="167" y="-2"/>
      <point x="302" y="-24"/>
    </contour>
    <contour>
      <point x="637" y="1481" type="move" name="top"/>
    </contour>
  </outline>
</glyph>
<glyph name="K" format="1">
  <advance width="1603"/>
  <unicode hex="004B"/>
  <outline>
    <contour>
      <point x="155" y="0" type="line"/>
      <point x="586" y="0" type="line"/>
      <point x="586" y="524" type="line"/>
      <point x="680" y="626" type="line"/>
      <point x="783" y="446" type="line"/>
      <point x="1060" y="0" type="line"/>
      <point x="1588" y="0" type="line"/>
      <point x="1052" y="786" type="line"/>
      <point x="1558" y="1481" type="line"/>
      <point x="1065" y="1481" type="line"/>
      <point x="696" y="992" type="line"/>
      <point x="588" y="859" type="line"/>
      <point x="586" y="859" type="line"/>
      <point x="586" y="1481" type="line"/>
      <point x="155" y="1481" type="line"/>
    </contour>
    <contour>
      <point x="802" y="1481" type="move" name="top"/>
    </contour>
    <contour>
      <point x="802" y="0" type="move" name="bottom"/>
    </contour>
  </outline>
</glyph>
<glyph name="L" format="1">
  <advance width="1295"/>
  <unicode hex="004C"/>
  <outline>
    <contour>
      <point x="155" y="0" type="line"/>
      <point x="1218" y="0" type="line"/>
      <point x="1218" y="326" type="line"/>
      <point x="586" y="326" type="line"/>
      <point x="586" y="1481" type="line"/>
      <point x="155" y="1481" type="line"/>
    </contour>
    <contour>
      <point x="648" y="1481" type="move" name="top"/>
    </contour>
    <contour>
      <point x="648" y="0" type="move" name="bottom"/>
    </contour>
  </outline>
</glyph>
<glyph name="M" format="1">
  <advance width="1932"/>
  <unicode hex="004D"/>
  <outline>
    <contour>
      <point x="155" y="0" type="line"/>
      <point x="522" y="0" type="line"/>
      <point x="522" y="617" type="line"/>
      <point x="508" y="954" type="line"/>
      <point x="790" y="233" type="line"/>
      <point x="1117" y="233" type="line"/>
      <point x="1402" y="954" type="line"/>
      <point x="1388" y="617" type="line"/>
      <point x="1388" y="0" type="line"/>
      <point x="1777" y="0" type="line"/>
      <point x="1777" y="1481" type="line"/>
      <point x="1301" y="1481" type="line"/>
      <point x="963" y="627" type="line"/>
      <point x="627" y="1481" type="line"/>
      <point x="155" y="1481" type="line"/>
    </contour>
  </outline>
</glyph>
<glyph name="N" format="1">
  <advance width="1632"/>
  <unicode hex="004E"/>
  <outline>
    <contour>
      <point x="155" y="0" type="line"/>
      <point x="535" y="0" type="line"/>
      <point x="535" y="564" type="line"/>
      <point x="517" y="938" type="line"/>
      <point x="1117" y="0" type="line"/>
      <point x="1477" y="0" type="line"/>
      <point x="1477" y="1481" type="line"/>
      <point x="1099" y="1481" type="line"/>
      <point x="1099" y="1076" type="line"/>
      <point x="1116" y="677" type="line"/>
      <point x="605" y="1481" type="line"/>
      <point x="155" y="1481" type="line"/>
    </contour>
    <contour>
      <point x="816" y="1481" type="move" name="top"/>
    </contour>
    <contour>
      <point x="816" y="0" type="move" name="bottom"/>
    </contour>
  </outline>
</glyph>
<glyph name="O" format="1">
  <advance width="1626"/>
  <unicode hex="004F"/>
  <outline>
    <contour>
      <point x="815" y="311" type="curve" smooth="yes"/>
      <point x="644" y="311"/>
      <point x="537" y="442"/>
      <point x="537" y="740" type="curve" smooth="yes"/>
      <point x="537" y="1041"/>
      <point x="646" y="1170"/>
      <point x="815" y="1170" type="curve" smooth="yes"/>
      <point x="985" y="1170"/>
      <point x="1089" y="1037"/>
      <point x="1089" y="740" type="curve" smooth="yes"/>
      <point x="1089" y="453"/>
      <point x="989" y="311"/>
    </contour>
    <contour>
      <point x="814" y="-24" type="curve" smooth="yes"/>
      <point x="1272" y="-24"/>
      <point x="1516" y="243"/>
      <point x="1516" y="740" type="curve" smooth="yes"/>
      <point x="1516" y="1242"/>
      <point x="1270" y="1505"/>
      <point x="814" y="1505" type="curve" smooth="yes"/>
      <point x="359" y="1505"/>
      <point x="110" y="1240"/>
      <point x="110" y="740" type="curve" smooth="yes"/>
      <point x="110" y="243"/>
      <point x="356" y="-24"/>
    </contour>
    <contour>
      <point x="813" y="1481" type="move" name="top"/>
    </contour>
  </outline>
</glyph>
<glyph name="P" format="1">
  <advance width="1502"/>
  <unicode hex="0050"/>
  <outline>
    <contour>
      <point x="155" y="0" type="line"/>
      <point x="586" y="0" type="line"/>
      <point x="586" y="479" type="line"/>
      <point x="1133.94" y="479"/>
      <point x="1416" y="577.086"/>
      <point x="1416" y="1008" type="curve" smooth="yes"/>
      <point x="1416" y="1349"/>
      <point x="1140" y="1481"/>
      <point x="850" y="1481" type="curve" smooth="yes"/>
      <point x="155" y="1481" type="line"/>
    </contour>
    <contour>
      <point x="586" y="797" type="curve"/>
      <point x="586" y="1164" type="line"/>
      <point x="692" y="1164" type="line" smooth="yes"/>
      <point x="759" y="1164"/>
      <point x="989" y="1188"/>
      <point x="989" y="1002" type="curve" smooth="yes"/>
      <point x="989" y="803"/>
      <point x="914" y="798"/>
    </contour>
  </outline>
</glyph>
<glyph name="Q" format="1">
  <advance width="1627"/>
  <unicode hex="0051"/>
  <outline>
    <contour>
      <point x="1058" y="-423" type="line"/>
      <point x="1260" y="-335" type="line"/>
      <point x="1119" y="25" type="line"/>
      <point x="1380" y="124"/>
      <point x="1517" y="368"/>
      <point x="1517" y="740" type="curve" smooth="yes"/>
      <point x="1517" y="1242"/>
      <point x="1271" y="1505"/>
      <point x="815" y="1505" type="curve" smooth="yes"/>
      <point x="360" y="1505"/>
      <point x="110" y="1240"/>
      <point x="110" y="740" type="curve" smooth="yes"/>
      <point x="110" y="243"/>
      <point x="357" y="-24"/>
      <point x="815" y="-24" type="curve" smooth="yes"/>
      <point x="844" y="-24"/>
      <point x="872" y="-24"/>
      <point x="899" y="-22" type="curve"/>
    </contour>
    <contour>
      <point x="799" y="311" type="line"/>
      <point x="655" y="338"/>
      <point x="537" y="479"/>
      <point x="537" y="740" type="curve" smooth="yes"/>
      <point x="537" y="1041"/>
      <point x="648" y="1170"/>
      <point x="817" y="1170" type="curve" smooth="yes"/>
      <point x="987" y="1170"/>
      <point x="1090" y="1037"/>
      <point x="1090" y="740" type="curve" smooth="yes"/>
      <point x="1090" y="575"/>
      <point x="1040" y="411"/>
      <point x="991" y="344" type="curve"/>
      <point x="934" y="498" type="line"/>
      <point x="723" y="498" type="line"/>
    </contour>
  </outline>
</glyph>
<glyph name="R" format="1">
  <advance width="1567"/>
  <unicode hex="0052"/>
  <outline>
    <contour>
      <point x="155" y="0" type="line"/>
      <point x="586" y="0" type="line"/>
      <point x="586" y="534" type="line"/>
      <point x="738" y="534" type="line"/>
      <point x="1081" y="0" type="line"/>
      <point x="1491" y="0" type="line"/>
      <point x="1491" y="94" type="line"/>
      <point x="1121" y="615" type="line"/>
      <point x="1331" y="699"/>
      <point x="1439" y="818"/>
      <point x="1439" y="1042" type="curve" smooth="yes"/>
      <point x="1439" y="1517"/>
      <point x="947" y="1481"/>
      <point x="621" y="1481" type="curve" smooth="yes"/>
      <point x="155" y="1481" type="line"/>
    </contour>
    <contour>
      <point x="586" y="851" type="line"/>
      <point x="586" y="1164" type="line"/>
      <point x="691" y="1164" type="line" smooth="yes"/>
      <point x="934" y="1164"/>
      <point x="1012" y="1154"/>
      <point x="1012" y="1017" type="curve" smooth="yes"/>
      <point x="1012" y="867"/>
      <point x="922" y="851"/>
      <point x="712" y="851" type="curve" smooth="yes"/>
    </contour>
    <contour>
      <point x="784" y="1481" type="move" name="top"/>
    </contour>
    <contour>
      <point x="784" y="0" type="move" name="bottom"/>
    </contour>
  </outline>
</glyph>
<glyph name="S" format="1">
  <advance width="1511"/>
  <unicode hex="0053"/>
  <outline>
    <contour>
      <point x="724" y="-24" type="curve" smooth="yes"/>
      <point x="1135" y="-24"/>
      <point x="1392" y="179"/>
      <point x="1392" y="483" type="curve" smooth="yes"/>
      <point x="1392" y="722"/>
      <point x="1226" y="874"/>
      <point x="936" y="925" type="curve"/>
      <point x="683" y="971"/>
      <point x="610" y="987"/>
      <point x="610" y="1071" type="curve" smooth="yes"/>
      <point x="610" y="1139"/>
      <point x="686" y="1170"/>
      <point x="779" y="1170" type="curve" smooth="yes"/>
      <point x="948" y="1170"/>
      <point x="1091" y="1114"/>
      <point x="1202" y="1033" type="curve"/>
      <point x="1279" y="1033" type="line"/>
      <point x="1337" y="1382" type="line"/>
      <point x="1189" y="1454"/>
      <point x="987" y="1505"/>
      <point x="790" y="1505" type="curve" smooth="yes"/>
      <point x="424" y="1505"/>
      <point x="161" y="1296"/>
      <point x="161" y="1027" type="curve" smooth="yes"/>
      <point x="161" y="790"/>
      <point x="262" y="667"/>
      <point x="520" y="595" type="curve" smooth="yes"/>
      <point x="721" y="539"/>
      <point x="954" y="579"/>
      <point x="954" y="423" type="curve" smooth="yes"/>
      <point x="954" y="311"/>
      <point x="807" y="311"/>
      <point x="750" y="311" type="curve" smooth="yes"/>
      <point x="585" y="311"/>
      <point x="414" y="376"/>
      <point x="264" y="469" type="curve"/>
      <point x="188" y="469" type="line"/>
      <point x="126" y="124" type="line"/>
      <point x="284" y="34"/>
      <point x="474" y="-24"/>
    </contour>
    <contour>
      <point x="756" y="1481" type="move" name="top"/>
    </contour>
    <contour>
      <point x="756" y="0" type="move" name="bottom"/>
    </contour>
  </outline>
</glyph>
<glyph name="T" format="1">
  <advance width="1350"/>
  <unicode hex="0054"/>
  <outline>
    <contour>
      <point x="459" y="0" type="line"/>
      <point x="890" y="0" type="line"/>
      <point x="890" y="1155" type="line"/>
      <point x="1317" y="1155" type="line"/>
      <point x="1317" y="1481" type="line"/>
      <point x="33" y="1481" type="line"/>
      <point x="33" y="1155" type="line"/>
      <point x="459" y="1155" type="line"/>
    </contour>
    <contour>
      <point x="675" y="1481" type="move" name="top"/>
    </contour>
    <contour>
      <point x="675" y="0" type="move" name="bottom"/>
    </contour>
    <contour>
      <point x="675" y="741" type="move" name="center"/>
    </contour>
  </outline>
</glyph>
<glyph name="U" format="1">
  <advance width="1609"/>
  <unicode hex="0055"/>
  <outline>
    <contour>
      <point x="804" y="-24" type="curve" smooth="yes"/>
      <point x="1213" y="-24"/>
      <point x="1461" y="184"/>
      <point x="1461" y="522" type="curve" smooth="yes"/>
      <point x="1461" y="1481" type="line"/>
      <point x="1031" y="1481" type="line"/>
      <point x="1031" y="567" type="line" smooth="yes"/>
      <point x="1031" y="404"/>
      <point x="934" y="311"/>
      <point x="803" y="311" type="curve" smooth="yes"/>
      <point x="663" y="311"/>
      <point x="579" y="410"/>
      <point x="579" y="564" type="curve" smooth="yes"/>
      <point x="579" y="1481" type="line"/>
      <point x="148" y="1481" type="line"/>
      <point x="148" y="521" type="line" smooth="yes"/>
      <point x="148" y="176"/>
      <point x="412" y="-24"/>
    </contour>
    <contour>
      <point x="805" y="1481" type="move" name="top"/>
    </contour>
    <contour>
      <point x="1448" y="10" type="move" name="ogonek"/>
    </contour>
  </outline>
</glyph>
<glyph name="V" format="1">
  <advance width="1431"/>
  <unicode hex="0056"/>
  <outline>
    <contour>
      <point x="514" y="0" type="line"/>
      <point x="912" y="0" type="line"/>
      <point x="1413" y="1481" type="line"/>
      <point x="975" y="1481" type="line"/>
      <point x="787" y="812" type="line"/>
      <point x="719" y="531" type="line"/>
      <point x="718" y="531" type="line"/>
      <point x="651" y="809" type="line"/>
      <point x="471" y="1481" type="line"/>
      <point x="18" y="1481" type="line"/>
    </contour>
  </outline>
</glyph>
<glyph name="W" format="1">
  <advance width="2160"/>
  <unicode hex="0057"/>
  <outline>
    <contour>
      <point x="414" y="0" type="line"/>
      <point x="874" y="0" type="line"/>
      <point x="1072" y="863" type="line"/>
      <point x="1284" y="0" type="line"/>
      <point x="1748" y="0" type="line"/>
      <point x="2124" y="1481" type="line"/>
      <point x="1696" y="1481" type="line"/>
      <point x="1525" y="657" type="line"/>
      <point x="1488" y="418" type="line"/>
      <point x="1448" y="654" type="line"/>
      <point x="1258" y="1481" type="line"/>
      <point x="906" y="1481" type="line"/>
      <point x="708" y="665" type="line"/>
      <point x="666" y="416" type="line"/>
      <point x="662" y="416" type="line"/>
      <point x="626" y="671" type="line"/>
      <point x="470" y="1481" type="line"/>
      <point x="36" y="1481" type="line"/>
    </contour>
    <contour>
      <point x="1080" y="1481" type="move" name="top"/>
    </contour>
  </outline>
</glyph>
<glyph name="X" format="1">
  <advance width="1490"/>
  <unicode hex="0058"/>
  <outline>
    <contour>
      <point x="33" y="0" type="line"/>
      <point x="481" y="0" type="line"/>
      <point x="611" y="243" type="line"/>
      <point x="737" y="486" type="line"/>
      <point x="863" y="251" type="line"/>
      <point x="989" y="0" type="line"/>
      <point x="1457" y="0" type="line"/>
      <point x="1023" y="780" type="line"/>
      <point x="1405" y="1481" type="line"/>
      <point x="977" y="1481" type="line"/>
      <point x="871" y="1279" type="line"/>
      <point x="747" y="1028" type="line"/>
      <point x="625" y="1286" type="line"/>
      <point x="527" y="1481" type="line"/>
      <point x="55" y="1481" type="line"/>
      <point x="455" y="755" type="line"/>
    </contour>
  </outline>
</glyph>
<glyph name="Y" format="1">
  <advance width="1388"/>
  <unicode hex="0059"/>
  <outline>
    <contour>
      <point x="487" y="0" type="line"/>
      <point x="918" y="0" type="line"/>
      <point x="918" y="576" type="line"/>
      <point x="1365" y="1481" type="line"/>
      <point x="941" y="1481" type="line"/>
      <point x="709" y="955" type="line"/>
      <point x="465" y="1481" type="line"/>
      <point x="23" y="1481" type="line"/>
      <point x="487" y="563" type="line"/>
    </contour>
    <contour>
      <point x="694" y="1481" type="move" name="top"/>
    </contour>
  </outline>
</glyph>
<glyph name="Z" format="1">
  <advance width="1341"/>
  <unicode hex="005A"/>
  <outline>
    <contour>
      <point x="98" y="0" type="line"/>
      <point x="1267" y="0" type="line"/>
      <point x="1267" y="326" type="line"/>
      <point x="618" y="326" type="line"/>
      <point x="1234" y="1161" type="line"/>
      <point x="1234" y="1481" type="line"/>
      <point x="133" y="1481" type="line"/>
      <point x="133" y="1155" type="line"/>
      <point x="731" y="1155" type="line"/>
      <point x="98" y="320" type="line"/>
    </contour>
    <contour>
      <point x="671" y="1481" type="move" name="top"/>
    </contour>
  </outline>
</glyph>
<glyph name="bracketleft" format="1">
  <advance width="924"/>
  <unicode hex="005B"/>
  <outline>
    <contour>
      <point x="175" y="-362" type="line"/>
      <point x="816" y="-362" type="line"/>
      <point x="816" y="-116" type="line"/>
      <point x="520" y="-116" type="line"/>
      <point x="520" y="1298" type="line"/>
      <point x="816" y="1298" type="line"/>
      <point x="816" y="1546" type="line"/>
      <point x="175" y="1546" type="line"/>
    </contour>
  </outline>
</glyph>
<glyph name="backslash" format="1">
  <advance width="1277"/>
  <unicode hex="005C"/>
  <outline>
    <contour>
      <point x="827" y="0" type="line"/>
      <point x="1123" y="0" type="line"/>
      <point x="542" y="1481" type="line"/>
      <point x="249" y="1481" type="line"/>
    </contour>
  </outline>
</glyph>
<glyph name="bracketright" format="1">
  <advance width="924"/>
  <unicode hex="005D"/>
  <outline>
    <contour>
      <point x="108" y="-362" type="line"/>
      <point x="752" y="-362" type="line"/>
      <point x="752" y="1546" type="line"/>
      <point x="108" y="1546" type="line"/>
      <point x="108" y="1298" type="line"/>
      <point x="406" y="1298" type="line"/>
      <point x="406" y="-116" type="line"/>
      <point x="108" y="-116" type="line"/>
    </contour>
  </outline>
</glyph>
<glyph name="asciicircum" format="1">
  <advance width="1588"/>
  <unicode hex="005E"/>
  <outline>
    <contour>
      <point x="185" y="603" type="line"/>
      <point x="475" y="603" type="line"/>
      <point x="781" y="1146" type="line"/>
      <point x="1116" y="606" type="line"/>
      <point x="1407" y="606" type="line"/>
      <point x="899" y="1399" type="line"/>
      <point x="666" y="1399" type="line"/>
    </contour>
  </outline>
</glyph>
<glyph name="underscore" format="1">
  <advance width="1477"/>
  <unicode hex="005F"/>
  <outline>
    <contour>
      <point x="-23" y="-201" type="line"/>
      <point x="1503" y="-201" type="line"/>
      <point x="1503" y="0" type="line"/>
      <point x="-23" y="0" type="line"/>
    </contour>
  </outline>
</glyph>
<glyph name="grave" format="1">
  <advance width="1039"/>
  <unicode hex="0060"/>
  <outline>
    <contour>
      <point x="516" y="1186" type="line"/>
      <point x="795" y="1186" type="line"/>
      <point x="578" y="1534" type="line"/>
      <point x="197" y="1534" type="line"/>
    </contour>
    <contour>
      <point x="496" y="1038" type="move" name="_top"/>
    </contour>
  </outline>
</glyph>
<glyph name="a" format="1">
  <advance width="1247"/>
  <unicode hex="0061"/>
  <outline>
    <contour>
      <point x="417" y="-24" type="curve" smooth="yes"/>
      <point x="562" y="-24"/>
      <point x="696" y="56"/>
      <point x="759" y="219" type="curve"/>
      <point x="759" y="0" type="line"/>
      <point x="1124" y="0" type="line"/>
      <point x="1124" y="733" type="line" smooth="yes"/>
      <point x="1124" y="975"/>
      <point x="919" y="1059"/>
      <point x="558" y="1059" type="curve" smooth="yes"/>
      <point x="400" y="1059"/>
      <point x="199" y="999"/>
      <point x="168" y="986" type="curve"/>
      <point x="234" y="730" type="line"/>
      <point x="289" y="755"/>
      <point x="440" y="787"/>
      <point x="543" y="787" type="curve" smooth="yes"/>
      <point x="712" y="787"/>
      <point x="738" y="749"/>
      <point x="738" y="654" type="curve"/>
      <point x="380" y="654"/>
      <point x="89" y="621"/>
      <point x="89" y="306" type="curve" smooth="yes"/>
      <point x="89" y="124"/>
      <point x="218" y="-24"/>
    </contour>
    <contour>
      <point x="573" y="225" type="curve" smooth="yes"/>
      <point x="512" y="225"/>
      <point x="485" y="290"/>
      <point x="485" y="332" type="curve" smooth="yes"/>
      <point x="485" y="466"/>
      <point x="601" y="476"/>
      <point x="738" y="493" type="curve"/>
      <point x="738" y="246"/>
      <point x="617" y="225"/>
    </contour>
    <contour>
      <point x="624" y="1038" type="move" name="top"/>
    </contour>
    <contour>
      <point x="1122" y="10" type="move" name="ogonek"/>
    </contour>
  </outline>
</glyph>
<glyph name="b" format="1">
  <advance width="1356"/>
  <unicode hex="0062"/>
  <outline>
    <contour>
      <point x="853" y="-24" type="curve" smooth="yes"/>
      <point x="1132" y="-24"/>
      <point x="1254" y="230"/>
      <point x="1254" y="522" type="curve" smooth="yes"/>
      <point x="1254" y="848"/>
      <point x="1140" y="1059"/>
      <point x="841" y="1059" type="curve" smooth="yes"/>
      <point x="706" y="1059"/>
      <point x="642" y="1005"/>
      <point x="534" y="936" type="curve"/>
      <point x="534" y="1480.99" type="line"/>
      <point x="146" y="1480.99" type="line"/>
      <point x="146" y="0" type="line"/>
      <point x="534" y="0" type="line"/>
      <point x="534" y="132" type="line"/>
      <point x="613" y="44"/>
      <point x="731" y="-24"/>
    </contour>
    <contour>
      <point x="640.126" y="247.795" type="curve" smooth="yes"/>
      <point x="608.784" y="247.795"/>
      <point x="573.504" y="251.709"/>
      <point x="534" y="257" type="curve"/>
      <point x="534" y="734" type="line"/>
      <point x="534" y="734"/>
      <point x="612.768" y="786.812"/>
      <point x="691.774" y="786.812" type="curve" smooth="yes"/>
      <point x="771.266" y="786.812"/>
      <point x="851" y="733.376"/>
      <point x="851" y="527" type="curve" smooth="yes"/>
      <point x="851" y="330.721"/>
      <point x="791.454" y="247.795"/>
    </contour>
  </outline>
</glyph>
<glyph name="c" format="1">
  <advance width="1167"/>
  <unicode hex="0063"/>
  <outline>
    <contour>
      <point x="676" y="-24" type="curve" smooth="yes"/>
      <point x="820" y="-24"/>
      <point x="966" y="14"/>
      <point x="1073" y="73" type="curve"/>
      <point x="1014" y="324" type="line"/>
      <point x="962" y="290"/>
      <point x="854" y="248"/>
      <point x="742" y="248" type="curve" smooth="yes"/>
      <point x="638" y="248"/>
      <point x="485" y="307"/>
      <point x="485" y="517" type="curve" smooth="yes"/>
      <point x="485" y="711"/>
      <point x="612" y="787"/>
      <point x="750" y="787" type="curve" smooth="yes"/>
      <point x="837" y="787"/>
      <point x="931" y="758"/>
      <point x="1010" y="705" type="curve"/>
      <point x="1068" y="954" type="line"/>
      <point x="932" y="1029"/>
      <point x="793" y="1059"/>
      <point x="669" y="1059" type="curve" smooth="yes"/>
      <point x="392" y="1059"/>
      <point x="102" y="922"/>
      <point x="102" y="518" type="curve" smooth="yes"/>
      <point x="102" y="138"/>
      <point x="370" y="-24"/>
    </contour>
    <contour>
      <point x="584" y="1038" type="move" name="top"/>
    </contour>
    <contour>
      <point x="584" y="0" type="move" name="bottom"/>
    </contour>
  </outline>
</glyph>
<glyph name="d" format="1">
  <advance width="1348"/>
  <unicode hex="0064"/>
  <outline>
    <contour>
      <point x="520" y="-24" type="curve" smooth="yes"/>
      <point x="641" y="-24"/>
      <point x="759" y="37"/>
      <point x="822" y="129" type="curve"/>
      <point x="822" y="0" type="line"/>
      <point x="1210" y="0" type="line"/>
      <point x="1210" y="1481" type="line"/>
      <point x="822" y="1481" type="line"/>
      <point x="822" y="961" type="line"/>
      <point x="720" y="1024"/>
      <point x="645" y="1059"/>
      <point x="535" y="1059" type="curve" smooth="yes"/>
      <point x="248" y="1059"/>
      <point x="102" y="847"/>
      <point x="102" y="536" type="curve" smooth="yes"/>
      <point x="102" y="218"/>
      <point x="243" y="-24"/>
    </contour>
    <contour>
      <point x="716" y="248" type="curve" smooth="yes"/>
      <point x="565" y="248"/>
      <point x="485" y="331"/>
      <point x="485" y="527" type="curve" smooth="yes"/>
      <point x="485" y="733"/>
      <point x="585" y="787"/>
      <point x="664" y="787" type="curve" smooth="yes"/>
      <point x="743" y="787"/>
      <point x="822" y="734"/>
      <point x="822" y="734" type="curve"/>
      <point x="822" y="256" type="line"/>
      <point x="782" y="251"/>
      <point x="747" y="248"/>
    </contour>
    <contour>
      <point x="674" y="519" type="move" name="center"/>
    </contour>
  </outline>
</glyph>
<glyph name="e" format="1">
  <advance width="1279"/>
  <unicode hex="0065"/>
  <outline>
    <contour>
      <point x="732" y="-24" type="curve" smooth="yes"/>
      <point x="938" y="-24"/>
      <point x="1040" y="19"/>
      <point x="1139" y="85" type="curve"/>
      <point x="1095" y="302" type="line"/>
      <point x="1023" y="302" type="line"/>
      <point x="945.402" y="263.692"/>
      <point x="858.986" y="231.437"/>
      <point x="764.062" y="231.437" type="curve" smooth="yes"/>
      <point x="630.921" y="231.437"/>
      <point x="497.517" y="295.056"/>
      <point x="483" y="447" type="curve"/>
      <point x="1159" y="447" type="line"/>
      <point x="1159" y="617" type="line" smooth="yes"/>
      <point x="1159" y="901"/>
      <point x="976" y="1059"/>
      <point x="674" y="1059" type="curve" smooth="yes"/>
      <point x="330" y="1059"/>
      <point x="102" y="878"/>
      <point x="102" y="515" type="curve" smooth="yes"/>
      <point x="102" y="131"/>
      <point x="339" y="-24"/>
    </contour>
    <contour>
      <point x="474" y="638" type="line"/>
      <point x="480" y="741"/>
      <point x="565" y="833"/>
      <point x="652" y="833" type="curve" smooth="yes"/>
      <point x="757" y="833"/>
      <point x="850" y="774"/>
      <point x="855" y="638" type="curve"/>
    </contour>
    <contour>
      <point x="640" y="1038" type="move" name="top"/>
    </contour>
    <contour>
      <point x="640" y="0" type="move" name="bottom"/>
    </contour>
    <contour>
      <point x="1151" y="10" type="move" name="ogonek"/>
    </contour>
  </outline>
</glyph>
<glyph name="f" format="1">
  <advance width="855"/>
  <unicode hex="0066"/>
  <outline>
    <contour>
      <point x="196" y="0" type="line"/>
      <point x="583" y="0" type="line"/>
      <point x="583" y="808" type="line"/>
      <point x="818" y="808" type="line"/>
      <point x="818" y="1038" type="line"/>
      <point x="574" y="1038" type="line"/>
      <point x="574" y="1174.53"/>
      <point x="636.221" y="1206.06"/>
      <point x="737.577" y="1206.06" type="curve" smooth="yes"/>
      <point x="766.674" y="1206.06"/>
      <point x="798.998" y="1203.46"/>
      <point x="834" y="1200" type="curve"/>
      <point x="834" y="1452" type="line"/>
      <point x="777" y="1458"/>
      <point x="694" y="1466"/>
      <point x="620" y="1466" type="curve" smooth="yes"/>
      <point x="351" y="1466"/>
      <point x="196" y="1350"/>
      <point x="196" y="1099" type="curve" smooth="yes"/>
      <point x="196" y="1038" type="line"/>
      <point x="71" y="1038" type="line"/>
      <point x="71" y="808" type="line"/>
      <point x="196" y="808" type="line"/>
    </contour>
  </outline>
</glyph>
<glyph name="g" format="1">
  <advance width="1276"/>
  <unicode hex="0067"/>
  <outline>
    <contour>
      <point x="567" y="-408" type="curve" smooth="yes"/>
      <point x="862" y="-408"/>
      <point x="1160" y="-298"/>
      <point x="1160" y="74" type="curve" smooth="yes"/>
      <point x="1160" y="1035" type="line"/>
      <point x="761" y="1035" type="line"/>
      <point x="760" y="904" type="line"/>
      <point x="671" y="1025"/>
      <point x="597" y="1060"/>
      <point x="489" y="1060" type="curve" smooth="yes"/>
      <point x="216" y="1060"/>
      <point x="102" y="843"/>
      <point x="102" y="542" type="curve" smooth="yes"/>
      <point x="102" y="195"/>
      <point x="233" y="9"/>
      <point x="555" y="9" type="curve" smooth="yes"/>
      <point x="635" y="9"/>
      <point x="743" y="46"/>
      <point x="768" y="113" type="curve"/>
      <point x="768" y="59" type="line"/>
      <point x="767" y="-116"/>
      <point x="709" y="-133"/>
      <point x="530" y="-133" type="curve" smooth="yes"/>
      <point x="476" y="-133"/>
      <point x="351" y="-112"/>
      <point x="242" y="-64" type="curve"/>
      <point x="179" y="-325" type="line"/>
      <point x="274" y="-363"/>
      <point x="414" y="-408"/>
    </contour>
    <contour>
      <point x="651" y="248" type="curve" smooth="yes"/>
      <point x="500.673" y="248"/>
      <point x="503" y="381.072"/>
      <point x="503" y="551" type="curve" smooth="yes"/>
      <point x="503" y="670"/>
      <point x="562" y="787"/>
      <point x="703" y="787" type="curve" smooth="yes"/>
      <point x="717" y="787"/>
      <point x="737" y="785"/>
      <point x="760" y="775" type="curve"/>
      <point x="760" y="281" type="line"/>
      <point x="740" y="270"/>
      <point x="704" y="248"/>
    </contour>
    <contour>
      <point x="638" y="1038" type="move" name="top"/>
    </contour>
  </outline>
</glyph>
<glyph name="h" format="1">
  <advance width="1276"/>
  <unicode hex="0068"/>
  <outline>
    <contour>
      <point x="141" y="0" type="line"/>
      <point x="529" y="0" type="line"/>
      <point x="529" y="571" type="line" smooth="yes"/>
      <point x="529" y="677"/>
      <point x="582" y="741"/>
      <point x="643" y="741" type="curve" smooth="yes"/>
      <point x="769" y="741"/>
      <point x="774" y="661"/>
      <point x="774" y="506" type="curve" smooth="yes"/>
      <point x="774" y="0" type="line"/>
      <point x="1162" y="0" type="line"/>
      <point x="1162" y="675" type="line" smooth="yes"/>
      <point x="1162" y="921"/>
      <point x="1034" y="1060"/>
      <point x="815" y="1060" type="curve" smooth="yes"/>
      <point x="641" y="1060"/>
      <point x="554" y="929"/>
      <point x="529" y="877" type="curve"/>
      <point x="529" y="1481" type="line"/>
      <point x="141" y="1481" type="line"/>
    </contour>
    <contour>
      <point x="638" y="1038" type="move" name="top"/>
    </contour>
    <contour>
      <point x="638" y="519" type="move" name="center"/>
    </contour>
  </outline>
</glyph>
<glyph name="i" format="1">
  <advance width="716"/>
  <unicode hex="0069"/>
  <outline>
    <contour>
      <point x="170" y="0" type="line"/>
      <point x="558" y="0" type="line"/>
      <point x="558" y="1038" type="line"/>
      <point x="170" y="1038" type="line"/>
    </contour>
    <contour>
      <point x="363" y="1204" type="curve" smooth="yes"/>
      <point x="511" y="1204"/>
      <point x="586" y="1282"/>
      <point x="586" y="1389" type="curve" smooth="yes"/>
      <point x="586" y="1495"/>
      <point x="512" y="1579"/>
      <point x="363" y="1579" type="curve" smooth="yes"/>
      <point x="215" y="1579"/>
      <point x="141" y="1496"/>
      <point x="141" y="1391" type="curve" smooth="yes"/>
      <point x="141" y="1284"/>
      <point x="214" y="1204"/>
    </contour>
  </outline>
</glyph>
<glyph name="j" format="1">
  <advance width="775"/>
  <unicode hex="006A"/>
  <outline>
    <contour>
      <point x="182" y="-405" type="curve" smooth="yes"/>
      <point x="413" y="-405"/>
      <point x="608" y="-301"/>
      <point x="608" y="-81" type="curve" smooth="yes"/>
      <point x="608" y="1038" type="line"/>
      <point x="221" y="1038" type="line"/>
      <point x="221" y="122" type="line" smooth="yes"/>
      <point x="221" y="-83"/>
      <point x="155" y="-119"/>
      <point x="53" y="-119" type="curve" smooth="yes"/>
      <point x="22" y="-119"/>
      <point x="-59" y="-113"/>
      <point x="-59" y="-113" type="curve"/>
      <point x="-59" y="-388" type="line"/>
      <point x="-27" y="-391"/>
      <point x="79" y="-405"/>
    </contour>
    <contour>
      <point x="433" y="1204" type="curve" smooth="yes"/>
      <point x="581" y="1204"/>
      <point x="656" y="1282"/>
      <point x="656" y="1389" type="curve" smooth="yes"/>
      <point x="656" y="1495"/>
      <point x="582" y="1579"/>
      <point x="433" y="1579" type="curve" smooth="yes"/>
      <point x="285" y="1579"/>
      <point x="211" y="1496"/>
      <point x="211" y="1391" type="curve" smooth="yes"/>
      <point x="211" y="1284"/>
      <point x="284" y="1204"/>
    </contour>
  </outline>
</glyph>
<glyph name="k" format="1">
  <advance width="1265"/>
  <unicode hex="006B"/>
  <outline>
    <contour>
      <point x="141" y="0" type="line"/>
      <point x="529" y="0" type="line"/>
      <point x="529" y="355" type="line"/>
      <point x="596" y="445" type="line"/>
      <point x="821" y="0" type="line"/>
      <point x="1230" y="0" type="line"/>
      <point x="1230" y="87" type="line"/>
      <point x="912" y="597" type="line"/>
      <point x="1223" y="994" type="line"/>
      <point x="1223" y="1038" type="line"/>
      <point x="799" y="1038" type="line"/>
      <point x="529" y="655" type="line"/>
      <point x="529" y="1481" type="line"/>
      <point x="141" y="1481" type="line"/>
    </contour>
    <contour>
      <point x="633" y="0" type="move" name="bottom"/>
    </contour>
  </outline>
</glyph>
<glyph name="l" format="1">
  <advance width="722"/>
  <unicode hex="006C"/>
  <outline>
    <contour>
      <point x="561" y="-5" type="curve" smooth="yes"/>
      <point x="649" y="-5" type="line"/>
      <point x="649" y="247" type="line"/>
      <point x="554" y="247"/>
      <point x="528" y="313"/>
      <point x="528" y="377" type="curve" smooth="yes"/>
      <point x="528" y="1481" type="line"/>
      <point x="141" y="1481" type="line"/>
      <point x="141" y="352" type="line" smooth="yes"/>
      <point x="141" y="155"/>
      <point x="166" y="-5"/>
    </contour>
    <contour>
      <point x="361" y="1038" type="move" name="top"/>
    </contour>
    <contour>
      <point x="361" y="0" type="move" name="bottom"/>
    </contour>
    <contour>
      <point x="702" y="1038" type="move" name="topright"/>
    </contour>
  </outline>
</glyph>
<glyph name="m" format="1">
  <advance width="1908"/>
  <unicode hex="006D"/>
  <outline>
    <contour>
      <point x="141" y="0" type="line"/>
      <point x="529" y="0" type="line"/>
      <point x="529" y="662" type="line" smooth="yes"/>
      <point x="529" y="717"/>
      <point x="594" y="756"/>
      <point x="641" y="756" type="curve" smooth="yes"/>
      <point x="754" y="756"/>
      <point x="774" y="700"/>
      <point x="774" y="532" type="curve" smooth="yes"/>
      <point x="774" y="0" type="line"/>
      <point x="1161" y="0" type="line"/>
      <point x="1161" y="662" type="line" smooth="yes"/>
      <point x="1161" y="727"/>
      <point x="1244" y="756"/>
      <point x="1271" y="756" type="curve" smooth="yes"/>
      <point x="1396" y="756"/>
      <point x="1406" y="696"/>
      <point x="1406" y="507" type="curve" smooth="yes"/>
      <point x="1406" y="0" type="line"/>
      <point x="1794" y="0" type="line"/>
      <point x="1794" y="682" type="line" smooth="yes"/>
      <point x="1794" y="948"/>
      <point x="1640" y="1060"/>
      <point x="1458" y="1060" type="curve" smooth="yes"/>
      <point x="1335" y="1060"/>
      <point x="1188" y="1004"/>
      <point x="1121" y="852" type="curve"/>
      <point x="1073" y="1002"/>
      <point x="964" y="1060"/>
      <point x="849" y="1060" type="curve" smooth="yes"/>
      <point x="721" y="1060"/>
      <point x="605" y="983"/>
      <point x="529" y="850" type="curve"/>
      <point x="529" y="1038" type="line"/>
      <point x="141" y="1038" type="line"/>
    </contour>
  </outline>
</glyph>
<glyph name="n" format="1">
  <advance width="1279"/>
  <unicode hex="006E"/>
  <outline>
    <contour>
      <point x="141" y="0" type="line"/>
      <point x="529" y="0" type="line"/>
      <point x="529" y="638" type="line" smooth="yes"/>
      <point x="529" y="683"/>
      <point x="561" y="756"/>
      <point x="638" y="756" type="curve" smooth="yes"/>
      <point x="753" y="756"/>
      <point x="777" y="693"/>
      <point x="777" y="521" type="curve" smooth="yes"/>
      <point x="777" y="0" type="line"/>
      <point x="1165" y="0" type="line"/>
      <point x="1165" y="701" type="line" smooth="yes"/>
      <point x="1165" y="947"/>
      <point x="989" y="1060"/>
      <point x="839" y="1060" type="curve" smooth="yes"/>
      <point x="694" y="1060"/>
      <point x="570" y="942"/>
      <point x="529" y="835" type="curve"/>
      <point x="529" y="1038" type="line"/>
      <point x="141" y="1038" type="line"/>
    </contour>
    <contour>
      <point x="640" y="1038" type="move" name="top"/>
    </contour>
    <contour>
      <point x="640" y="0" type="move" name="bottom"/>
    </contour>
  </outline>
</glyph>
<glyph name="o" format="1">
  <advance width="1302"/>
  <unicode hex="006F"/>
  <outline>
    <contour>
      <point x="655" y="248" type="curve" smooth="yes"/>
      <point x="572" y="248"/>
      <point x="485" y="264"/>
      <point x="485" y="515" type="curve" smooth="yes"/>
      <point x="485" y="771"/>
      <point x="577" y="787"/>
      <point x="651" y="787" type="curve" smooth="yes"/>
      <point x="723" y="787"/>
      <point x="816" y="758"/>
      <point x="816" y="516" type="curve" smooth="yes"/>
      <point x="816" y="303"/>
      <point x="743" y="248"/>
    </contour>
    <contour>
      <point x="651" y="-24" type="curve" smooth="yes"/>
      <point x="1037" y="-24"/>
      <point x="1200" y="181"/>
      <point x="1200" y="516" type="curve" smooth="yes"/>
      <point x="1200" y="853"/>
      <point x="1037" y="1059"/>
      <point x="651" y="1059" type="curve" smooth="yes"/>
      <point x="258" y="1059"/>
      <point x="102" y="855"/>
      <point x="102" y="517" type="curve" smooth="yes"/>
      <point x="102" y="180"/>
      <point x="261" y="-24"/>
    </contour>
    <contour>
      <point x="651" y="1038" type="move" name="top"/>
    </contour>
  </outline>
</glyph>
<glyph name="p" format="1">
  <advance width="1350"/>
  <unicode hex="0070"/>
  <outline>
    <contour>
      <point x="141" y="-392" type="line"/>
      <point x="529" y="-392" type="line"/>
      <point x="529" y="43" type="line"/>
      <point x="626" y="-11"/>
      <point x="692" y="-24"/>
      <point x="794" y="-24" type="curve" smooth="yes"/>
      <point x="1076" y="-24"/>
      <point x="1248" y="196.9"/>
      <point x="1248" y="530" type="curve" smooth="yes"/>
      <point x="1248" y="850"/>
      <point x="1103" y="1059"/>
      <point x="823" y="1059" type="curve" smooth="yes"/>
      <point x="686" y="1059"/>
      <point x="594" y="991"/>
      <point x="529" y="867" type="curve"/>
      <point x="529" y="1038" type="line"/>
      <point x="141" y="1038" type="line"/>
    </contour>
    <contour>
      <point x="635.126" y="247.795" type="curve" smooth="yes"/>
      <point x="603.784" y="247.795"/>
      <point x="568.504" y="250.709"/>
      <point x="529" y="256" type="curve"/>
      <point x="529" y="734" type="line"/>
      <point x="529" y="734"/>
      <point x="607.768" y="786.812"/>
      <point x="686.774" y="786.812" type="curve" smooth="yes"/>
      <point x="766.266" y="786.812"/>
      <point x="846" y="733.376"/>
      <point x="846" y="527" type="curve" smooth="yes"/>
      <point x="846" y="330.721"/>
      <point x="786.454" y="247.795"/>
    </contour>
  </outline>
</glyph>
<glyph name="q" format="1">
  <advance width="1348"/>
  <unicode hex="0071"/>
  <outline>
    <contour>
      <point x="822" y="-392" type="line"/>
      <point x="1210" y="-392" type="line"/>
      <point x="1210" y="1038" type="line"/>
      <point x="822" y="1038" type="line"/>
      <point x="822" y="907" type="line"/>
      <point x="757" y="1009"/>
      <point x="602" y="1059"/>
      <point x="508" y="1059" type="curve" smooth="yes"/>
      <point x="198" y="1059"/>
      <point x="102" y="846"/>
      <point x="102" y="540" type="curve" smooth="yes"/>
      <point x="102" y="200"/>
      <point x="276" y="-24"/>
      <point x="567" y="-24" type="curve" smooth="yes"/>
      <point x="671" y="-24"/>
      <point x="755" y="10"/>
      <point x="822" y="72" type="curve"/>
    </contour>
    <contour>
      <point x="716" y="248" type="curve" smooth="yes"/>
      <point x="565" y="248"/>
      <point x="505" y="331"/>
      <point x="505" y="527" type="curve" smooth="yes"/>
      <point x="505" y="733"/>
      <point x="585" y="787"/>
      <point x="664" y="787" type="curve" smooth="yes"/>
      <point x="743" y="787"/>
      <point x="822" y="734"/>
      <point x="822" y="734" type="curve"/>
      <point x="822" y="256" type="line"/>
      <point x="782" y="251"/>
      <point x="747" y="248"/>
    </contour>
  </outline>
</glyph>
<glyph name="r" format="1">
  <advance width="943"/>
  <unicode hex="0072"/>
  <outline>
    <contour>
      <point x="141" y="0" type="line"/>
      <point x="529" y="0" type="line"/>
      <point x="529" y="633" type="line"/>
      <point x="575" y="695"/>
      <point x="682" y="710"/>
      <point x="742" y="710" type="curve" smooth="yes"/>
      <point x="801" y="710"/>
      <point x="841" y="694"/>
      <point x="873" y="679" type="curve"/>
      <point x="932" y="1015" type="line"/>
      <point x="905" y="1028"/>
      <point x="863" y="1039"/>
      <point x="827" y="1039" type="curve" smooth="yes"/>
      <point x="707.995" y="1039"/>
      <point x="582.904" y="975.872"/>
      <point x="529" y="904" type="curve"/>
      <point x="529" y="1038" type="line"/>
      <point x="141" y="1038" type="line"/>
    </contour>
    <contour>
      <point x="472" y="1038" type="move" name="top"/>
    </contour>
    <contour>
      <point x="472" y="0" type="move" name="bottom"/>
    </contour>
  </outline>
</glyph>
<glyph name="s" format="1">
  <advance width="1136"/>
  <unicode hex="0073"/>
  <outline>
    <contour>
      <point x="576" y="-24" type="curve" smooth="yes"/>
      <point x="912" y="-24"/>
      <point x="1069" y="130"/>
      <point x="1069" y="339" type="curve" smooth="yes"/>
      <point x="1069" y="537"/>
      <point x="967" y="591"/>
      <point x="687" y="655" type="curve"/>
      <point x="515" y="693"/>
      <point x="516" y="702"/>
      <point x="516" y="734" type="curve" smooth="yes"/>
      <point x="516" y="768"/>
      <point x="570" y="803"/>
      <point x="664" y="803" type="curve" smooth="yes"/>
      <point x="782" y="803"/>
      <point x="851" y="757"/>
      <point x="922" y="706" type="curve"/>
      <point x="966" y="706" type="line"/>
      <point x="1012" y="977" type="line"/>
      <point x="901" y="1031"/>
      <point x="776" y="1059"/>
      <point x="622" y="1059" type="curve" smooth="yes"/>
      <point x="309" y="1059"/>
      <point x="108" y="904"/>
      <point x="108" y="703" type="curve" smooth="yes"/>
      <point x="108" y="512"/>
      <point x="165" y="443"/>
      <point x="397" y="388" type="curve"/>
      <point x="536" y="354"/>
      <point x="652" y="351"/>
      <point x="652" y="283" type="curve" smooth="yes"/>
      <point x="652" y="236"/>
      <point x="570" y="229"/>
      <point x="523" y="229" type="curve" smooth="yes"/>
      <point x="370" y="229"/>
      <point x="266" y="289"/>
      <point x="208" y="337" type="curve"/>
      <point x="152" y="337" type="line"/>
      <point x="109" y="71" type="line"/>
      <point x="211" y="16"/>
      <point x="419" y="-24"/>
    </contour>
    <contour>
      <point x="568" y="1038" type="move" name="top"/>
    </contour>
    <contour>
      <point x="568" y="0" type="move" name="bottom"/>
    </contour>
  </outline>
</glyph>
<glyph name="t" format="1">
  <advance width="927"/>
  <unicode hex="0074"/>
  <outline>
    <contour>
      <point x="583" y="-13" type="curve" smooth="yes"/>
      <point x="693" y="-13"/>
      <point x="769" y="-8"/>
      <point x="834" y="5" type="curve"/>
      <point x="834" y="255" type="line"/>
      <point x="803.013" y="251.044"/>
      <point x="774.422" y="248.417"/>
      <point x="748.818" y="248.417" type="curve" smooth="yes"/>
      <point x="665.663" y="248.417"/>
      <point x="614" y="276.125"/>
      <point x="614" y="376" type="curve" smooth="yes"/>
      <point x="614" y="808" type="line"/>
      <point x="834" y="808" type="line"/>
      <point x="834" y="1038" type="line"/>
      <point x="614" y="1038" type="line"/>
      <point x="614" y="1365" type="line"/>
      <point x="226" y="1295" type="line"/>
      <point x="226" y="1038" type="line"/>
      <point x="103" y="1038" type="line"/>
      <point x="103" y="808" type="line"/>
      <point x="226" y="808" type="line"/>
      <point x="226" y="328" type="line" smooth="yes"/>
      <point x="226" y="89"/>
      <point x="334" y="-13"/>
    </contour>
    <contour>
      <point x="464" y="519" type="move" name="center"/>
    </contour>
    <contour>
      <point x="464" y="0" type="move" name="bottom"/>
    </contour>
  </outline>
</glyph>
<glyph name="u" format="1">
  <advance width="1289"/>
  <unicode hex="0075"/>
  <outline>
    <contour>
      <point x="456" y="-24" type="curve" smooth="yes"/>
      <point x="571" y="-24"/>
      <point x="698" y="28"/>
      <point x="761" y="171" type="curve"/>
      <point x="761" y="0" type="line"/>
      <point x="1148" y="0" type="line"/>
      <point x="1148" y="1038" type="line"/>
      <point x="761" y="1038" type="line"/>
      <point x="761" y="342" type="line" smooth="yes"/>
      <point x="761" y="283"/>
      <point x="691" y="248"/>
      <point x="656" y="248" type="curve" smooth="yes"/>
      <point x="538" y="248"/>
      <point x="517" y="328"/>
      <point x="517" y="500" type="curve" smooth="yes"/>
      <point x="517" y="1038" type="line"/>
      <point x="114" y="1038" type="line"/>
      <point x="114" y="339" type="line" smooth="yes"/>
      <point x="114" y="93"/>
      <point x="288" y="-24"/>
    </contour>
    <contour>
      <point x="645" y="1038" type="move" name="top"/>
    </contour>
    <contour>
      <point x="1160" y="10" type="move" name="ogonek"/>
    </contour>
  </outline>
</glyph>
<glyph name="v" format="1">
  <advance width="1159"/>
  <unicode hex="0076"/>
  <outline>
    <contour>
      <point x="374" y="0" type="line"/>
      <point x="780" y="0" type="line"/>
      <point x="1139" y="1038" type="line"/>
      <point x="752" y="1038" type="line"/>
      <point x="618" y="541" type="line"/>
      <point x="586" y="398" type="line"/>
      <point x="583" y="398" type="line"/>
      <point x="552" y="540" type="line"/>
      <point x="424" y="1038" type="line"/>
      <point x="20" y="1038" type="line"/>
    </contour>
  </outline>
</glyph>
<glyph name="w" format="1">
  <advance width="1806"/>
  <unicode hex="0077"/>
  <outline>
    <contour>
      <point x="347" y="0" type="line"/>
      <point x="741" y="0" type="line"/>
      <point x="901" y="650" type="line"/>
      <point x="903" y="650" type="line"/>
      <point x="1059" y="0" type="line"/>
      <point x="1459" y="0" type="line"/>
      <point x="1777" y="1038" type="line"/>
      <point x="1371" y="1038" type="line"/>
      <point x="1263" y="501" type="line"/>
      <point x="1242" y="390" type="line"/>
      <point x="1209" y="515" type="line"/>
      <point x="1069" y="1038" type="line"/>
      <point x="759" y="1038" type="line"/>
      <point x="584" y="462" type="line"/>
      <point x="561" y="384" type="line"/>
      <point x="559" y="384" type="line"/>
      <point x="545" y="459" type="line"/>
      <point x="435" y="1038" type="line"/>
      <point x="29" y="1038" type="line"/>
    </contour>
    <contour>
      <point x="903" y="1038" type="move" name="top"/>
    </contour>
  </outline>
</glyph>
<glyph name="x" format="1">
  <advance width="1250"/>
  <unicode hex="0078"/>
  <outline>
    <contour>
      <point x="35" y="0" type="line"/>
      <point x="461" y="0" type="line"/>
      <point x="541" y="145" type="line"/>
      <point x="625" y="300" type="line"/>
      <point x="707" y="148" type="line"/>
      <point x="783" y="0" type="line"/>
      <point x="1215" y="0" type="line"/>
      <point x="861" y="533" type="line"/>
      <point x="1201" y="1038" type="line"/>
      <point x="779" y="1038" type="line"/>
      <point x="701" y="896" type="line"/>
      <point x="623" y="756" type="line"/>
      <point x="547" y="900" type="line"/>
      <point x="471" y="1038" type="line"/>
      <point x="49" y="1038" type="line"/>
      <point x="391" y="525" type="line"/>
    </contour>
  </outline>
</glyph>
<glyph name="y" format="1">
  <advance width="1217"/>
  <unicode hex="0079"/>
  <outline>
    <contour>
      <point x="222" y="-393" type="curve"/>
      <point x="638" y="-393" type="line" smooth="yes"/>
      <point x="639" y="-393"/>
      <point x="726" y="-238"/>
      <point x="775" y="-104" type="curve"/>
      <point x="1175" y="1038" type="line"/>
      <point x="771" y="1038" type="line"/>
      <point x="621" y="479" type="line"/>
      <point x="450" y="1038" type="line"/>
      <point x="36" y="1038" type="line"/>
      <point x="406" y="55" type="line"/>
      <point x="346" y="-121"/>
      <point x="287" y="-260"/>
    </contour>
    <contour>
      <point x="609" y="1038" type="move" name="top"/>
    </contour>
  </outline>
</glyph>
<glyph name="z" format="1">
  <advance width="1089"/>
  <unicode hex="007A"/>
  <outline>
    <contour>
      <point x="127" y="0" type="line"/>
      <point x="989" y="0" type="line"/>
      <point x="989" y="286" type="line"/>
      <point x="601" y="286" type="line"/>
      <point x="984" y="795" type="line"/>
      <point x="984" y="1038" type="line"/>
      <point x="155" y="1038" type="line"/>
      <point x="155" y="761" type="line"/>
      <point x="532" y="761" type="line"/>
      <point x="127" y="240" type="line"/>
    </contour>
    <contour>
      <point x="545" y="1038" type="move" name="top"/>
    </contour>
  </outline>
</glyph>
<glyph name="braceleft" format="1">
  <advance width="1163"/>
  <unicode hex="007B"/>
  <outline>
    <contour>
      <point x="864" y="-361" type="curve" smooth="yes"/>
      <point x="1059" y="-361" type="line"/>
      <point x="1059" y="-134" type="line"/>
      <point x="1014" y="-135" type="line"/>
      <point x="826" y="-135"/>
      <point x="727" y="-118"/>
      <point x="727" y="128" type="curve" smooth="yes"/>
      <point x="727" y="211" type="line" smooth="yes"/>
      <point x="727" y="431"/>
      <point x="597" y="534"/>
      <point x="450" y="580" type="curve"/>
      <point x="450" y="604" type="line"/>
      <point x="630" y="662"/>
      <point x="727" y="773"/>
      <point x="727" y="1028" type="curve" smooth="yes"/>
      <point x="727" y="1090" type="line" smooth="yes"/>
      <point x="727" y="1300"/>
      <point x="845" y="1320"/>
      <point x="1025" y="1320" type="curve" smooth="yes"/>
      <point x="1059" y="1320" type="line"/>
      <point x="1059" y="1546" type="line"/>
      <point x="881" y="1546" type="line" smooth="yes"/>
      <point x="594" y="1546"/>
      <point x="354" y="1504"/>
      <point x="354" y="1208" type="curve" smooth="yes"/>
      <point x="354" y="1020" type="line" smooth="yes"/>
      <point x="354" y="784"/>
      <point x="260" y="709"/>
      <point x="7" y="709" type="curve"/>
      <point x="7" y="475" type="line"/>
      <point x="262" y="475"/>
      <point x="354" y="388"/>
      <point x="354" y="162" type="curve" smooth="yes"/>
      <point x="354" y="20" type="line" smooth="yes"/>
      <point x="354" y="-301"/>
      <point x="565" y="-361"/>
    </contour>
  </outline>
</glyph>
<glyph name="bar" format="1">
  <advance width="1557"/>
  <unicode hex="007C"/>
  <outline>
    <contour>
      <point x="629" y="-447" type="line"/>
      <point x="931" y="-447" type="line"/>
      <point x="931" y="1481" type="line"/>
      <point x="629" y="1481" type="line"/>
    </contour>
  </outline>
</glyph>
<glyph name="braceright" format="1">
  <advance width="1163"/>
  <unicode hex="007D"/>
  <outline>
    <contour>
      <point x="4" y="-364" type="line"/>
      <point x="183" y="-364" type="line" smooth="yes"/>
      <point x="469" y="-364"/>
      <point x="708" y="-321"/>
      <point x="708" y="-25" type="curve" smooth="yes"/>
      <point x="708" y="162" type="line" smooth="yes"/>
      <point x="708" y="397"/>
      <point x="803" y="475"/>
      <point x="1056" y="475" type="curve"/>
      <point x="1056" y="706" type="line"/>
      <point x="802" y="706"/>
      <point x="708" y="794"/>
      <point x="708" y="1020" type="curve" smooth="yes"/>
      <point x="708" y="1160" type="line" smooth="yes"/>
      <point x="708" y="1481"/>
      <point x="498" y="1546"/>
      <point x="199" y="1546" type="curve" smooth="yes"/>
      <point x="171" y="1546"/>
      <point x="4" y="1545"/>
      <point x="4" y="1545" type="curve"/>
      <point x="4" y="1318" type="line"/>
      <point x="49" y="1318" type="line" smooth="yes"/>
      <point x="237" y="1318"/>
      <point x="335" y="1300"/>
      <point x="335" y="1053" type="curve" smooth="yes"/>
      <point x="335" y="971" type="line" smooth="yes"/>
      <point x="335" y="751"/>
      <point x="468" y="650"/>
      <point x="615" y="604" type="curve"/>
      <point x="615" y="580" type="line"/>
      <point x="435" y="522"/>
      <point x="335" y="412"/>
      <point x="335" y="158" type="curve" smooth="yes"/>
      <point x="335" y="95" type="line" smooth="yes"/>
      <point x="335" y="-114"/>
      <point x="217" y="-137"/>
      <point x="38" y="-137" type="curve" smooth="yes"/>
      <point x="4" y="-137" type="line"/>
    </contour>
  </outline>
</glyph>
<glyph name="asciitilde" format="1">
  <advance width="1574"/>
  <unicode hex="007E"/>
  <outline>
    <contour>
      <point x="375" y="308" type="line"/>
      <point x="363" y="462"/>
      <point x="426" y="558"/>
      <point x="500" y="558" type="curve" smooth="yes"/>
      <point x="588" y="558"/>
      <point x="798" y="310"/>
      <point x="1082" y="310" type="curve" smooth="yes"/>
      <point x="1311" y="310"/>
      <point x="1410" y="478"/>
      <point x="1425" y="803" type="curve"/>
      <point x="1208" y="850" type="line"/>
      <point x="1219" y="779"/>
      <point x="1216" y="596"/>
      <point x="1080" y="596" type="curve" smooth="yes"/>
      <point x="943" y="596"/>
      <point x="727" y="848"/>
      <point x="522" y="848" type="curve" smooth="yes"/>
      <point x="307" y="848"/>
      <point x="175" y="684"/>
      <point x="160" y="352" type="curve"/>
    </contour>
  </outline>
</glyph>
<glyph name="exclamdown" format="1">
  <advance width="696"/>
  <unicode hex="00A1"/>
  <outline>
    <contour>
      <point x="100" y="-447" type="line"/>
      <point x="524" y="-447" type="line"/>
      <point x="434" y="488" type="line"/>
      <point x="180" y="488" type="line"/>
    </contour>
    <contour>
      <point x="308" y="610" type="curve" smooth="yes"/>
      <point x="430" y="610"/>
      <point x="535" y="713"/>
      <point x="535" y="836" type="curve" smooth="yes"/>
      <point x="535" y="958"/>
      <point x="430" y="1063"/>
      <point x="308" y="1063" type="curve" smooth="yes"/>
      <point x="183" y="1063"/>
      <point x="79" y="958"/>
      <point x="79" y="836" type="curve" smooth="yes"/>
      <point x="79" y="713"/>
      <point x="183" y="610"/>
    </contour>
  </outline>
</glyph>
<glyph name="cent" format="1">
  <advance width="1227"/>
  <unicode hex="00A2"/>
  <outline>
    <contour>
      <point x="706" y="-293" type="line"/>
      <point x="812" y="-293" type="line"/>
      <point x="812" y="-20" type="line"/>
      <point x="927" y="-6"/>
      <point x="1038" y="36"/>
      <point x="1124" y="83" type="curve"/>
      <point x="1065" y="335" type="line"/>
      <point x="1016" y="303"/>
      <point x="917" y="260"/>
      <point x="812" y="255" type="curve"/>
      <point x="812" y="784" type="line"/>
      <point x="893" y="777"/>
      <point x="1009" y="739"/>
      <point x="1061" y="697" type="curve"/>
      <point x="1119" y="954" type="line"/>
      <point x="1016" y="1011"/>
      <point x="911" y="1043"/>
      <point x="812" y="1055" type="curve"/>
      <point x="812" y="1316" type="line"/>
      <point x="706" y="1316" type="line"/>
      <point x="706" y="1061" type="line"/>
      <point x="432" y="1056"/>
      <point x="110" y="915"/>
      <point x="110" y="518" type="curve" smooth="yes"/>
      <point x="110" y="147"/>
      <point x="407" y="-18"/>
      <point x="706" y="-25" type="curve"/>
    </contour>
    <contour>
      <point x="706" y="266" type="line"/>
      <point x="612" y="290"/>
      <point x="513" y="359"/>
      <point x="513" y="517" type="curve" smooth="yes"/>
      <point x="513" y="673"/>
      <point x="606" y="749"/>
      <point x="706" y="775" type="curve"/>
    </contour>
  </outline>
</glyph>
<glyph name="sterling" format="1">
  <advance width="1259"/>
  <unicode hex="00A3"/>
  <outline>
    <contour>
      <point x="124" y="-15" type="line"/>
      <point x="216" y="5"/>
      <point x="317" y="12"/>
      <point x="422" y="12" type="curve" smooth="yes"/>
      <point x="608" y="12"/>
      <point x="803" y="-9"/>
      <point x="975" y="-9" type="curve" smooth="yes"/>
      <point x="1050" y="-9"/>
      <point x="1128" y="-5"/>
      <point x="1201" y="16" type="curve"/>
      <point x="1153" y="333" type="line"/>
      <point x="1074" y="308"/>
      <point x="991" y="300"/>
      <point x="908" y="300" type="curve" smooth="yes"/>
      <point x="804" y="300"/>
      <point x="699" y="312"/>
      <point x="599" y="314" type="curve"/>
      <point x="651" y="372"/>
      <point x="691" y="467"/>
      <point x="691" y="545" type="curve" smooth="yes"/>
      <point x="691" y="560"/>
      <point x="690" y="575"/>
      <point x="689" y="590" type="curve"/>
      <point x="1010" y="590" type="line"/>
      <point x="1010" y="808" type="line"/>
      <point x="671" y="808" type="line"/>
      <point x="660" y="855"/>
      <point x="655" y="896"/>
      <point x="655" y="933" type="curve" smooth="yes"/>
      <point x="655" y="1087"/>
      <point x="743" y="1162"/>
      <point x="847" y="1162" type="curve" smooth="yes"/>
      <point x="919" y="1162"/>
      <point x="998" y="1124"/>
      <point x="1062" y="1064" type="curve"/>
      <point x="1131" y="1064" type="line"/>
      <point x="1130" y="1395" type="line"/>
      <point x="1073" y="1451"/>
      <point x="901" y="1505"/>
      <point x="752" y="1505" type="curve" smooth="yes"/>
      <point x="430" y="1505"/>
      <point x="238" y="1290"/>
      <point x="238" y="987" type="curve" smooth="yes"/>
      <point x="238" y="930"/>
      <point x="245" y="870"/>
      <point x="259" y="808" type="curve"/>
      <point x="135" y="808" type="line"/>
      <point x="135" y="590" type="line"/>
      <point x="281" y="590" type="line"/>
      <point x="287" y="564"/>
      <point x="298" y="478"/>
      <point x="298" y="413" type="curve" smooth="yes"/>
      <point x="298" y="376"/>
      <point x="295" y="340"/>
      <point x="284" y="314" type="curve"/>
      <point x="245" y="309"/>
      <point x="188" y="300"/>
      <point x="124" y="296" type="curve"/>
    </contour>
  </outline>
</glyph>
<glyph name="currency" format="1">
  <advance width="897"/>
  <unicode hex="00A4"/>
  <outline>
    <contour>
      <point x="120" y="253" type="line"/>
      <point x="213" y="349" type="line"/>
      <point x="265" y="307"/>
      <point x="360" y="274"/>
      <point x="455" y="274" type="curve" smooth="yes"/>
      <point x="549" y="274"/>
      <point x="634" y="305"/>
      <point x="691" y="349" type="curve"/>
      <point x="786" y="253" type="line"/>
      <point x="888" y="354" type="line"/>
      <point x="793" y="449" type="line"/>
      <point x="836" y="501"/>
      <point x="873" y="595"/>
      <point x="873" y="689" type="curve" smooth="yes"/>
      <point x="873" y="783"/>
      <point x="836" y="876"/>
      <point x="793" y="932" type="curve"/>
      <point x="888" y="1026" type="line"/>
      <point x="786" y="1125" type="line"/>
      <point x="691" y="1034" type="line"/>
      <point x="634" y="1077"/>
      <point x="549" y="1107"/>
      <point x="455" y="1107" type="curve" smooth="yes"/>
      <point x="360" y="1107"/>
      <point x="265" y="1075"/>
      <point x="213" y="1032" type="curve"/>
      <point x="120" y="1125" type="line"/>
      <point x="16" y="1026" type="line"/>
      <point x="110" y="932" type="line"/>
      <point x="66" y="876"/>
      <point x="34" y="783"/>
      <point x="34" y="689" type="curve" smooth="yes"/>
      <point x="34" y="595"/>
      <point x="67" y="501"/>
      <point x="110" y="451" type="curve"/>
      <point x="16" y="354" type="line"/>
    </contour>
    <contour>
      <point x="455" y="421" type="curve" smooth="yes"/>
      <point x="302" y="421"/>
      <point x="197" y="524"/>
      <point x="197" y="689" type="curve" smooth="yes"/>
      <point x="197" y="854"/>
      <point x="302" y="957"/>
      <point x="455" y="957" type="curve" smooth="yes"/>
      <point x="609" y="957"/>
      <point x="708" y="854"/>
      <point x="708" y="689" type="curve" smooth="yes"/>
      <point x="708" y="524"/>
      <point x="609" y="421"/>
    </contour>
  </outline>
</glyph>
<glyph name="yen" format="1">
  <advance width="1606"/>
  <unicode hex="00A5"/>
  <outline>
    <contour>
      <point x="612" y="0" type="line"/>
      <point x="1017" y="0" type="line"/>
      <point x="1017" y="409" type="line"/>
      <point x="1398" y="409" type="line"/>
      <point x="1398" y="648" type="line"/>
      <point x="1017" y="648" type="line"/>
      <point x="1082" y="763" type="line"/>
      <point x="1398" y="763" type="line"/>
      <point x="1398" y="1009" type="line"/>
      <point x="1222" y="1009" type="line"/>
      <point x="1502" y="1481" type="line"/>
      <point x="1070" y="1481" type="line"/>
      <point x="817" y="972" type="line"/>
      <point x="551" y="1481" type="line"/>
      <point x="101" y="1481" type="line"/>
      <point x="401" y="1009" type="line"/>
      <point x="241" y="1009" type="line"/>
      <point x="241" y="763" type="line"/>
      <point x="538" y="763" type="line"/>
      <point x="609" y="648" type="line"/>
      <point x="241" y="648" type="line"/>
      <point x="241" y="409" type="line"/>
      <point x="612" y="409" type="line"/>
    </contour>
  </outline>
</glyph>
<glyph name="brokenbar" format="1">
  <advance width="477"/>
  <unicode hex="00A6"/>
  <outline>
    <contour>
      <point x="108" y="-142" type="line"/>
      <point x="370" y="-142" type="line"/>
      <point x="370" y="536" type="line"/>
      <point x="108" y="536" type="line"/>
    </contour>
    <contour>
      <point x="108" y="827" type="line"/>
      <point x="370" y="827" type="line"/>
      <point x="370" y="1505" type="line"/>
      <point x="108" y="1505" type="line"/>
    </contour>
  </outline>
</glyph>
<glyph name="section" format="1">
  <advance width="1198"/>
  <unicode hex="00A7"/>
  <outline>
    <contour>
      <point x="526" y="-99" type="curve" smooth="yes"/>
      <point x="863" y="-99"/>
      <point x="1082" y="55"/>
      <point x="1082" y="265" type="curve" smooth="yes"/>
      <point x="1082" y="362"/>
      <point x="1039" y="418"/>
      <point x="978" y="471" type="curve"/>
      <point x="1039" y="532"/>
      <point x="1082" y="638"/>
      <point x="1082" y="721" type="curve" smooth="yes"/>
      <point x="1082" y="1089"/>
      <point x="506" y="963"/>
      <point x="506" y="1102" type="curve" smooth="yes"/>
      <point x="506" y="1154"/>
      <point x="575" y="1173"/>
      <point x="676" y="1173" type="curve" smooth="yes"/>
      <point x="817" y="1173"/>
      <point x="922" y="1136"/>
      <point x="974" y="1105" type="curve"/>
      <point x="1024" y="1351" type="line"/>
      <point x="935" y="1395"/>
      <point x="805" y="1429"/>
      <point x="651" y="1429" type="curve" smooth="yes"/>
      <point x="338" y="1429"/>
      <point x="121" y="1284"/>
      <point x="121" y="1084" type="curve" smooth="yes"/>
      <point x="121" y="985"/>
      <point x="141" y="906"/>
      <point x="197" y="849" type="curve"/>
      <point x="146" y="786"/>
      <point x="121" y="703"/>
      <point x="121" y="630" type="curve" smooth="yes"/>
      <point x="121" y="254"/>
      <point x="663" y="387"/>
      <point x="663" y="222" type="curve" smooth="yes"/>
      <point x="663" y="163"/>
      <point x="587" y="156"/>
      <point x="537" y="155" type="curve"/>
      <point x="328" y="155"/>
      <point x="230" y="204"/>
      <point x="161" y="237" type="curve"/>
      <point x="122" y="-5" type="line"/>
      <point x="224" y="-60"/>
      <point x="369" y="-99"/>
    </contour>
    <contour>
      <point x="787" y="564" type="curve"/>
      <point x="600" y="609"/>
      <point x="479" y="620"/>
      <point x="399" y="646" type="curve" smooth="yes"/>
      <point x="380" y="652"/>
      <point x="372" y="666"/>
      <point x="372" y="681" type="curve" smooth="yes"/>
      <point x="372" y="707"/>
      <point x="383" y="750"/>
      <point x="404" y="765" type="curve"/>
      <point x="582" y="727"/>
      <point x="811" y="709"/>
      <point x="811" y="654" type="curve" smooth="yes"/>
      <point x="811" y="598"/>
      <point x="787" y="566"/>
    </contour>
  </outline>
</glyph>
<glyph name="dieresis" format="1">
  <advance width="903"/>
  <unicode hex="00A8"/>
  <outline>
    <contour>
      <point x="95" y="1160" type="line"/>
      <point x="363" y="1160" type="line"/>
      <point x="363" y="1448" type="line"/>
      <point x="95" y="1448" type="line"/>
    </contour>
    <contour>
      <point x="527" y="1160" type="line"/>
      <point x="793" y="1160" type="line"/>
      <point x="793" y="1448" type="line"/>
      <point x="527" y="1448" type="line"/>
    </contour>
    <contour>
      <point x="444" y="1038" type="move" name="_top"/>
    </contour>
  </outline>
</glyph>
<glyph name="copyright" format="1">
  <advance width="1898"/>
  <unicode hex="00A9"/>
  <outline>
    <contour>
      <point x="986" y="240" type="curve" smooth="yes"/>
      <point x="1110" y="240"/>
      <point x="1256" y="303"/>
      <point x="1271" y="325" type="curve"/>
      <point x="1225" y="476" type="line"/>
      <point x="1225" y="476"/>
      <point x="1140" y="407"/>
      <point x="993" y="407" type="curve" smooth="yes"/>
      <point x="795" y="407"/>
      <point x="725" y="560"/>
      <point x="725" y="709" type="curve" smooth="yes"/>
      <point x="725" y="867"/>
      <point x="818" y="1024"/>
      <point x="1020" y="1024" type="curve" smooth="yes"/>
      <point x="1144" y="1024"/>
      <point x="1247" y="951"/>
      <point x="1271" y="927" type="curve"/>
      <point x="1334" y="1072" type="line"/>
      <point x="1255" y="1125"/>
      <point x="1155" y="1186"/>
      <point x="997" y="1186" type="curve" smooth="yes"/>
      <point x="724" y="1186"/>
      <point x="516" y="998"/>
      <point x="516" y="709" type="curve" smooth="yes"/>
      <point x="516" y="439"/>
      <point x="721" y="240"/>
    </contour>
    <contour>
      <point x="952" y="79" type="curve" smooth="yes"/>
      <point x="573" y="79"/>
      <point x="307" y="337"/>
      <point x="307" y="702" type="curve" smooth="yes"/>
      <point x="307" y="1052"/>
      <point x="557" y="1329"/>
      <point x="952" y="1329" type="curve" smooth="yes"/>
      <point x="1335" y="1329"/>
      <point x="1608" y="1070"/>
      <point x="1608" y="708" type="curve" smooth="yes"/>
      <point x="1608" y="348"/>
      <point x="1354" y="79"/>
    </contour>
    <contour>
      <point x="952" y="-111" type="curve" smooth="yes"/>
      <point x="1444" y="-111"/>
      <point x="1815" y="232"/>
      <point x="1815" y="702" type="curve" smooth="yes"/>
      <point x="1815" y="1176"/>
      <point x="1431" y="1515"/>
      <point x="952" y="1515" type="curve" smooth="yes"/>
      <point x="459" y="1515"/>
      <point x="86" y="1172"/>
      <point x="86" y="702" type="curve" smooth="yes"/>
      <point x="86" y="207"/>
      <point x="478" y="-111"/>
    </contour>
    <contour>
      <point x="1269" y="922" type="line"/>
      <point x="1278" y="917"/>
      <point x="1278" y="920"/>
      <point x="1271" y="927" type="curve"/>
    </contour>
  </outline>
</glyph>
<glyph name="ordfeminine" format="1">
  <advance width="916"/>
  <unicode hex="00AA"/>
  <outline>
    <contour>
      <point x="265" y="632" type="curve" smooth="yes"/>
      <point x="355" y="632"/>
      <point x="453" y="659"/>
      <point x="511" y="714" type="curve"/>
      <point x="513" y="714" type="line"/>
      <point x="513" y="646" type="line"/>
      <point x="832" y="646" type="line"/>
      <point x="832" y="1176" type="line" smooth="yes"/>
      <point x="832" y="1366"/>
      <point x="649" y="1413"/>
      <point x="374" y="1413" type="curve" smooth="yes"/>
      <point x="251" y="1413"/>
      <point x="124" y="1390"/>
      <point x="87" y="1358" type="curve"/>
      <point x="123" y="1168" type="line"/>
      <point x="144" y="1183"/>
      <point x="228" y="1217"/>
      <point x="307" y="1217" type="curve" smooth="yes"/>
      <point x="435" y="1217"/>
      <point x="513" y="1201"/>
      <point x="513" y="1143" type="curve"/>
      <point x="273" y="1100"/>
      <point x="5" y="1122"/>
      <point x="5" y="858" type="curve" smooth="yes"/>
      <point x="5" y="698"/>
      <point x="128" y="632"/>
    </contour>
    <contour>
      <point x="424" y="819" type="curve" smooth="yes"/>
      <point x="386" y="819"/>
      <point x="325" y="826"/>
      <point x="325" y="885" type="curve" smooth="yes"/>
      <point x="325" y="970"/>
      <point x="447" y="950"/>
      <point x="513" y="961" type="curve"/>
      <point x="513" y="860" type="line"/>
      <point x="494" y="825"/>
      <point x="453" y="819"/>
    </contour>
    <contour>
      <point x="124" y="1161" type="curve"/>
      <point x="123" y="1168" type="line"/>
      <point x="116" y="1163"/>
      <point x="116" y="1161"/>
    </contour>
  </outline>
</glyph>
<glyph name="guillemotleft" format="1">
  <advance width="1102"/>
  <unicode hex="00AB"/>
  <outline>
    <contour>
      <point x="590" y="136" type="line"/>
      <point x="590" y="423" type="line"/>
      <point x="630" y="390"/>
      <point x="407" y="599"/>
      <point x="407" y="599" type="curve"/>
      <point x="590" y="777" type="line"/>
      <point x="590" y="1057" type="line"/>
      <point x="211" y="684" type="line"/>
      <point x="211" y="516" type="line"/>
    </contour>
    <contour>
      <point x="970" y="136" type="line"/>
      <point x="970" y="423" type="line"/>
      <point x="1010" y="390"/>
      <point x="787" y="599"/>
      <point x="787" y="599" type="curve"/>
      <point x="970" y="777" type="line"/>
      <point x="970" y="1057" type="line"/>
      <point x="589" y="684" type="line"/>
      <point x="589" y="516" type="line"/>
    </contour>
  </outline>
</glyph>
<glyph name="logicalnot" format="1">
  <advance width="1569"/>
  <unicode hex="00AC"/>
  <outline>
    <contour>
      <point x="1119" y="99" type="line"/>
      <point x="1380" y="99" type="line"/>
      <point x="1380" y="782" type="line"/>
      <point x="187" y="782" type="line"/>
      <point x="187" y="547" type="line"/>
      <point x="1119" y="547" type="line"/>
    </contour>
  </outline>
</glyph>
<glyph name="uni00AD" format="1">
  <advance width="800"/>
  <unicode hex="00AD"/>
  <outline>
    <contour>
      <point x="110" y="438" type="line"/>
      <point x="693" y="438" type="line"/>
      <point x="693" y="637" type="line"/>
      <point x="110" y="637" type="line"/>
    </contour>
  </outline>
</glyph>
<glyph name="registered" format="1">
  <advance width="1898"/>
  <unicode hex="00AE"/>
  <outline>
    <contour>
      <point x="634" y="254" type="line"/>
      <point x="811" y="254" type="line"/>
      <point x="811" y="632" type="line"/>
      <point x="976" y="632" type="line"/>
      <point x="1183" y="254" type="line"/>
      <point x="1370" y="254" type="line"/>
      <point x="1370" y="298" type="line"/>
      <point x="1143" y="660" type="line"/>
      <point x="1282" y="716"/>
      <point x="1308" y="774"/>
      <point x="1308" y="907" type="curve" smooth="yes"/>
      <point x="1308" y="1146"/>
      <point x="1112" y="1172"/>
      <point x="939" y="1172" type="curve" smooth="yes"/>
      <point x="634" y="1172" type="line"/>
    </contour>
    <contour>
      <point x="811" y="776" type="line"/>
      <point x="811" y="1037" type="line"/>
      <point x="954" y="1037" type="line" smooth="yes"/>
      <point x="1063" y="1037"/>
      <point x="1137" y="995"/>
      <point x="1137" y="915" type="curve" smooth="yes"/>
      <point x="1137" y="817"/>
      <point x="1100" y="776"/>
      <point x="972" y="776" type="curve" smooth="yes"/>
    </contour>
    <contour>
      <point x="952" y="79" type="curve" smooth="yes"/>
      <point x="573" y="79"/>
      <point x="307" y="337"/>
      <point x="307" y="702" type="curve" smooth="yes"/>
      <point x="307" y="1052"/>
      <point x="557" y="1329"/>
      <point x="952" y="1329" type="curve" smooth="yes"/>
      <point x="1335" y="1329"/>
      <point x="1608" y="1070"/>
      <point x="1608" y="708" type="curve" smooth="yes"/>
      <point x="1608" y="348"/>
      <point x="1354" y="79"/>
    </contour>
    <contour>
      <point x="952" y="-111" type="curve" smooth="yes"/>
      <point x="1444" y="-111"/>
      <point x="1815" y="232"/>
      <point x="1815" y="702" type="curve" smooth="yes"/>
      <point x="1815" y="1176"/>
      <point x="1431" y="1515"/>
      <point x="952" y="1515" type="curve" smooth="yes"/>
      <point x="459" y="1515"/>
      <point x="86" y="1172"/>
      <point x="86" y="702" type="curve" smooth="yes"/>
      <point x="86" y="207"/>
      <point x="478" y="-111"/>
    </contour>
  </outline>
</glyph>
<glyph name="macron" format="1">
  <advance width="318"/>
  <unicode hex="00AF"/>
  <outline>
    <contour>
      <point x="-123" y="1111" type="line"/>
      <point x="439" y="1111" type="line"/>
      <point x="439" y="1343" type="line"/>
      <point x="-123" y="1343" type="line"/>
    </contour>
    <contour>
      <point x="158" y="1038" type="move" name="_top"/>
    </contour>
  </outline>
</glyph>
<glyph name="degree" format="1">
  <advance width="1025"/>
  <unicode hex="00B0"/>
  <outline>
    <contour>
      <point x="515" y="874" type="curve" smooth="yes"/>
      <point x="400" y="874"/>
      <point x="306" y="963"/>
      <point x="306" y="1078" type="curve" smooth="yes"/>
      <point x="306" y="1188"/>
      <point x="398" y="1282"/>
      <point x="515" y="1282" type="curve" smooth="yes"/>
      <point x="631" y="1282"/>
      <point x="724" y="1188"/>
      <point x="724" y="1078" type="curve" smooth="yes"/>
      <point x="724" y="966"/>
      <point x="632" y="874"/>
    </contour>
    <contour>
      <point x="515" y="766" type="curve" smooth="yes"/>
      <point x="697" y="766"/>
      <point x="843" y="904"/>
      <point x="843" y="1078" type="curve" smooth="yes"/>
      <point x="843" y="1252"/>
      <point x="697" y="1387"/>
      <point x="515" y="1387" type="curve" smooth="yes"/>
      <point x="333" y="1387"/>
      <point x="188" y="1252"/>
      <point x="188" y="1078" type="curve" smooth="yes"/>
      <point x="188" y="905"/>
      <point x="332" y="766"/>
    </contour>
  </outline>
</glyph>
<glyph name="plusminus" format="1">
  <advance width="1679"/>
  <unicode hex="00B1"/>
  <outline>
    <contour>
      <point x="636" y="280" type="line"/>
      <point x="819" y="280" type="line"/>
      <point x="819" y="619" type="line"/>
      <point x="1220" y="619" type="line"/>
      <point x="1220" y="793" type="line"/>
      <point x="819" y="793" type="line"/>
      <point x="819" y="1133" type="line"/>
      <point x="636" y="1133" type="line"/>
      <point x="636" y="793" type="line"/>
      <point x="240" y="793" type="line"/>
      <point x="240" y="619" type="line"/>
      <point x="636" y="619" type="line"/>
    </contour>
    <contour>
      <point x="238" y="0" type="line"/>
      <point x="1217" y="0" type="line"/>
      <point x="1217" y="178" type="line"/>
      <point x="238" y="178" type="line"/>
    </contour>
  </outline>
</glyph>
<glyph name="uni00B2" format="1">
  <advance width="1523"/>
  <unicode hex="00B2"/>
  <outline>
    <contour>
      <point x="25" y="557" type="line"/>
      <point x="485" y="557" type="line"/>
      <point x="485" y="737" type="line"/>
      <point x="380" y="737" type="line"/>
      <point x="380" y="1381" type="line"/>
      <point x="164" y="1381" type="line"/>
      <point x="151" y="1303"/>
      <point x="76" y="1282"/>
      <point x="-30" y="1275" type="curve"/>
      <point x="-30" y="1125" type="line"/>
      <point x="136" y="1144" type="line"/>
      <point x="136" y="737" type="line"/>
      <point x="25" y="737" type="line"/>
    </contour>
    <contour>
      <point x="909" y="3" type="line"/>
      <point x="1558" y="3" type="line"/>
      <point x="1558" y="190" type="line"/>
      <point x="1240" y="190" type="line"/>
      <point x="1306" y="219"/>
      <point x="1518" y="409"/>
      <point x="1518" y="575" type="curve" smooth="yes"/>
      <point x="1518" y="735"/>
      <point x="1403" y="839"/>
      <point x="1196" y="839" type="curve" smooth="yes"/>
      <point x="1095" y="839"/>
      <point x="967" y="798"/>
      <point x="922" y="762" type="curve"/>
      <point x="975" y="585" type="line"/>
      <point x="1004" y="597"/>
      <point x="1086" y="635"/>
      <point x="1169" y="635" type="curve" smooth="yes"/>
      <point x="1198" y="635"/>
      <point x="1257" y="624"/>
      <point x="1257" y="543" type="curve" smooth="yes"/>
      <point x="1257" y="416"/>
      <point x="980" y="199"/>
      <point x="909" y="150" type="curve"/>
    </contour>
    <contour>
      <point x="256" y="0" type="line"/>
      <point x="383" y="0" type="line"/>
      <point x="1215" y="1430" type="line"/>
      <point x="1088" y="1430" type="line"/>
    </contour>
  </outline>
</glyph>
<glyph name="acute" format="1">
  <advance width="1021"/>
  <unicode hex="00B4"/>
  <outline>
    <contour>
      <point x="291" y="1186" type="line"/>
      <point x="568" y="1186" type="line"/>
      <point x="869" y="1534" type="line"/>
      <point x="504" y="1534" type="line"/>
    </contour>
    <contour>
      <point x="580" y="1038" type="move" name="_top"/>
    </contour>
  </outline>
</glyph>
<glyph name="paragraph" format="1">
  <advance width="1319"/>
  <unicode hex="00B6"/>
  <outline>
    <contour>
      <point x="589" y="-278" type="line"/>
      <point x="815" y="-278" type="line"/>
      <point x="815" y="1291" type="line"/>
      <point x="928" y="1291" type="line"/>
      <point x="928" y="-278" type="line"/>
      <point x="1141" y="-278" type="line"/>
      <point x="1141" y="1481" type="line"/>
      <point x="603" y="1481" type="line" smooth="yes"/>
      <point x="231" y="1481"/>
      <point x="49" y="1295"/>
      <point x="49" y="1055" type="curve" smooth="yes"/>
      <point x="49" y="809"/>
      <point x="213" y="635"/>
      <point x="589" y="626" type="curve"/>
    </contour>
  </outline>
</glyph>
<glyph name="periodcentered" format="1">
  <advance width="776"/>
  <unicode hex="00B7"/>
  <outline>
    <contour>
      <point x="398" y="389" type="curve" smooth="yes"/>
      <point x="523" y="389"/>
      <point x="627" y="494"/>
      <point x="627" y="616" type="curve" smooth="yes"/>
      <point x="627" y="740"/>
      <point x="523" y="842"/>
      <point x="398" y="842" type="curve" smooth="yes"/>
      <point x="276" y="842"/>
      <point x="172" y="740"/>
      <point x="172" y="616" type="curve" smooth="yes"/>
      <point x="172" y="494"/>
      <point x="276" y="389"/>
    </contour>
  </outline>
</glyph>
<glyph name="cedilla" format="1">
  <advance width="1110"/>
  <unicode hex="00B8"/>
  <outline>
    <contour>
      <point x="488" y="-523" type="curve" smooth="yes"/>
      <point x="686" y="-523"/>
      <point x="807" y="-409"/>
      <point x="807" y="-280" type="curve" smooth="yes"/>
      <point x="807" y="-198"/>
      <point x="749" y="-89"/>
      <point x="553" y="-91" type="curve"/>
      <point x="593" y="2" type="line"/>
      <point x="489" y="2" type="line"/>
      <point x="421" y="-185" type="line"/>
      <point x="436" y="-188"/>
      <point x="456" y="-194"/>
      <point x="471" y="-197" type="curve"/>
      <point x="488" y="-194"/>
      <point x="499" y="-192"/>
      <point x="512" y="-192" type="curve" smooth="yes"/>
      <point x="575" y="-192"/>
      <point x="627" y="-230"/>
      <point x="627" y="-280" type="curve" smooth="yes"/>
      <point x="627" y="-338"/>
      <point x="577" y="-386"/>
      <point x="490" y="-386" type="curve" smooth="yes"/>
      <point x="448" y="-386"/>
      <point x="393" y="-370"/>
      <point x="378" y="-342" type="curve"/>
      <point x="376" y="-343"/>
      <point x="318" y="-342"/>
      <point x="318" y="-342" type="curve"/>
      <point x="295" y="-480" type="line"/>
      <point x="347" y="-504"/>
      <point x="436" y="-523"/>
    </contour>
    <contour>
      <point x="551" y="0" type="move" name="_bottom"/>
    </contour>
  </outline>
</glyph>
<glyph name="uni00B9" format="1">
  <advance width="803"/>
  <unicode hex="00B9"/>
  <outline>
    <contour>
      <point x="182" y="557" type="line"/>
      <point x="642" y="557" type="line"/>
      <point x="642" y="737" type="line"/>
      <point x="537" y="737" type="line"/>
      <point x="537" y="1381" type="line"/>
      <point x="321" y="1381" type="line"/>
      <point x="308" y="1303"/>
      <point x="233" y="1282"/>
      <point x="127" y="1275" type="curve"/>
      <point x="127" y="1125" type="line"/>
      <point x="293" y="1144" type="line"/>
      <point x="293" y="737" type="line"/>
      <point x="182" y="737" type="line"/>
    </contour>
  </outline>
</glyph>
<glyph name="ordmasculine" format="1">
  <advance width="946"/>
  <unicode hex="00BA"/>
  <outline>
    <contour>
      <point x="499" y="831" type="curve" smooth="yes"/>
      <point x="410" y="831"/>
      <point x="362" y="879"/>
      <point x="362" y="1034" type="curve" smooth="yes"/>
      <point x="362" y="1219"/>
      <point x="428" y="1235"/>
      <point x="492" y="1235" type="curve" smooth="yes"/>
      <point x="576" y="1235"/>
      <point x="620" y="1188"/>
      <point x="620" y="1033" type="curve" smooth="yes"/>
      <point x="620" y="897"/>
      <point x="584" y="831"/>
    </contour>
    <contour>
      <point x="490" y="641" type="curve" smooth="yes"/>
      <point x="758" y="641"/>
      <point x="922" y="779"/>
      <point x="922" y="1034" type="curve" smooth="yes"/>
      <point x="922" y="1293"/>
      <point x="759" y="1430"/>
      <point x="492" y="1430" type="curve" smooth="yes"/>
      <point x="227" y="1430"/>
      <point x="63" y="1296"/>
      <point x="63" y="1037" type="curve" smooth="yes"/>
      <point x="63" y="782"/>
      <point x="221" y="641"/>
    </contour>
  </outline>
</glyph>
<glyph name="guillemotright" format="1">
  <advance width="1102"/>
  <unicode hex="00BB"/>
  <outline>
    <contour>
      <point x="207" y="136" type="line"/>
      <point x="587" y="509" type="line"/>
      <point x="587" y="674" type="line"/>
      <point x="207" y="1057" type="line"/>
      <point x="207" y="767" type="line"/>
      <point x="167" y="800"/>
      <point x="392" y="594"/>
      <point x="392" y="594" type="curve"/>
      <point x="207" y="415" type="line"/>
    </contour>
    <contour>
      <point x="586" y="136" type="line"/>
      <point x="967" y="509" type="line"/>
      <point x="967" y="674" type="line"/>
      <point x="586" y="1057" type="line"/>
      <point x="586" y="767" type="line"/>
      <point x="546" y="800"/>
      <point x="771" y="594"/>
      <point x="771" y="594" type="curve"/>
      <point x="586" y="415" type="line"/>
    </contour>
  </outline>
</glyph>
<glyph name="onequarter" format="1">
  <advance width="1620"/>
  <unicode hex="00BC"/>
  <outline>
    <contour>
      <point x="152" y="557" type="line"/>
      <point x="612" y="557" type="line"/>
      <point x="612" y="737" type="line"/>
      <point x="507" y="737" type="line"/>
      <point x="507" y="1381" type="line"/>
      <point x="291" y="1381" type="line"/>
      <point x="278" y="1303"/>
      <point x="203" y="1282"/>
      <point x="97" y="1275" type="curve"/>
      <point x="97" y="1125" type="line"/>
      <point x="263" y="1144" type="line"/>
      <point x="263" y="737" type="line"/>
      <point x="152" y="737" type="line"/>
    </contour>
    <contour>
      <point x="1178" y="0" type="line"/>
      <point x="1436" y="0" type="line"/>
      <point x="1436" y="122" type="line"/>
      <point x="1512" y="122" type="line"/>
      <point x="1512" y="263" type="line"/>
      <point x="1436" y="263" type="line"/>
      <point x="1436" y="819" type="line"/>
      <point x="1107" y="819" type="line"/>
      <point x="862" y="263" type="line"/>
      <point x="862" y="122" type="line"/>
      <point x="1178" y="122" type="line"/>
    </contour>
    <contour>
      <point x="370" y="0" type="line"/>
      <point x="497" y="0" type="line"/>
      <point x="1291" y="1430" type="line"/>
      <point x="1163" y="1430" type="line"/>
    </contour>
    <contour>
      <point x="1049" y="263" type="line"/>
      <point x="1178" y="602" type="line"/>
      <point x="1178" y="263" type="line"/>
    </contour>
  </outline>
</glyph>
<glyph name="onehalf" format="1">
  <advance width="1677"/>
  <unicode hex="00BD"/>
  <outline>
    <contour>
      <point x="147" y="557" type="line"/>
      <point x="607" y="557" type="line"/>
      <point x="607" y="737" type="line"/>
      <point x="502" y="737" type="line"/>
      <point x="502" y="1381" type="line"/>
      <point x="286" y="1381" type="line"/>
      <point x="273" y="1303"/>
      <point x="198" y="1282"/>
      <point x="92" y="1275" type="curve"/>
      <point x="92" y="1125" type="line"/>
      <point x="258" y="1144" type="line"/>
      <point x="258" y="737" type="line"/>
      <point x="147" y="737" type="line"/>
    </contour>
    <contour>
      <point x="1017" y="0" type="line"/>
      <point x="1666" y="0" type="line"/>
      <point x="1666" y="187" type="line"/>
      <point x="1348" y="187" type="line"/>
      <point x="1414" y="216"/>
      <point x="1626" y="406"/>
      <point x="1626" y="572" type="curve" smooth="yes"/>
      <point x="1626" y="732"/>
      <point x="1511" y="836"/>
      <point x="1304" y="836" type="curve" smooth="yes"/>
      <point x="1203" y="836"/>
      <point x="1075" y="795"/>
      <point x="1030" y="759" type="curve"/>
      <point x="1083" y="582" type="line"/>
      <point x="1112" y="594"/>
      <point x="1194" y="632"/>
      <point x="1277" y="632" type="curve" smooth="yes"/>
      <point x="1306" y="632"/>
      <point x="1365" y="621"/>
      <point x="1365" y="540" type="curve" smooth="yes"/>
      <point x="1365" y="413"/>
      <point x="1088" y="196"/>
      <point x="1017" y="147" type="curve"/>
    </contour>
    <contour>
      <point x="381" y="0" type="line"/>
      <point x="508" y="0" type="line"/>
      <point x="1302" y="1430" type="line"/>
      <point x="1174" y="1430" type="line"/>
    </contour>
  </outline>
</glyph>
<glyph name="threequarters" format="1">
  <advance width="1593"/>
  <unicode hex="00BE"/>
  <outline>
    <contour>
      <point x="329" y="551" type="curve" smooth="yes"/>
      <point x="549" y="551"/>
      <point x="667" y="661"/>
      <point x="667" y="824" type="curve" smooth="yes"/>
      <point x="667" y="923"/>
      <point x="593" y="967"/>
      <point x="522" y="988" type="curve"/>
      <point x="597" y="1021"/>
      <point x="652" y="1079"/>
      <point x="642" y="1201" type="curve"/>
      <point x="628" y="1324"/>
      <point x="526" y="1392"/>
      <point x="333" y="1392" type="curve" smooth="yes"/>
      <point x="235" y="1392"/>
      <point x="116" y="1351"/>
      <point x="65" y="1315" type="curve"/>
      <point x="65" y="1106" type="line"/>
      <point x="114" y="1106" type="line"/>
      <point x="189" y="1177"/>
      <point x="251" y="1203"/>
      <point x="295" y="1203" type="curve" smooth="yes"/>
      <point x="306" y="1203"/>
      <point x="396" y="1198"/>
      <point x="396" y="1132" type="curve" smooth="yes"/>
      <point x="396" y="1053"/>
      <point x="323" y="1065"/>
      <point x="255" y="1065" type="curve" smooth="yes"/>
      <point x="239" y="1065" type="line"/>
      <point x="239" y="918" type="line"/>
      <point x="322" y="918" type="line" smooth="yes"/>
      <point x="390" y="918"/>
      <point x="423" y="916"/>
      <point x="423" y="849" type="curve" smooth="yes"/>
      <point x="423" y="741"/>
      <point x="318" y="736"/>
      <point x="271" y="739" type="curve" smooth="yes"/>
      <point x="229" y="742"/>
      <point x="164" y="765"/>
      <point x="99" y="830" type="curve"/>
      <point x="65" y="830" type="line"/>
      <point x="65" y="619" type="line"/>
      <point x="132" y="572"/>
      <point x="204" y="551"/>
    </contour>
    <contour>
      <point x="1151" y="0" type="line"/>
      <point x="1409" y="0" type="line"/>
      <point x="1409" y="122" type="line"/>
      <point x="1484" y="122" type="line"/>
      <point x="1484" y="263" type="line"/>
      <point x="1409" y="263" type="line"/>
      <point x="1409" y="819" type="line"/>
      <point x="1080" y="819" type="line"/>
      <point x="835" y="263" type="line"/>
      <point x="835" y="122" type="line"/>
      <point x="1151" y="122" type="line"/>
    </contour>
    <contour>
      <point x="342" y="0" type="line"/>
      <point x="469" y="0" type="line"/>
      <point x="1263" y="1430" type="line"/>
      <point x="1135" y="1430" type="line"/>
    </contour>
    <contour>
      <point x="1021" y="263" type="line"/>
      <point x="1151" y="602" type="line"/>
      <point x="1151" y="263" type="line"/>
    </contour>
  </outline>
</glyph>
<glyph name="AE" format="1">
  <advance width="1941"/>
  <unicode hex="00C6"/>
  <outline>
    <contour>
      <point x="-77" y="0" type="line"/>
      <point x="361" y="0" type="line"/>
      <point x="462" y="310" type="line"/>
      <point x="796" y="310" type="line"/>
      <point x="796" y="0" type="line"/>
      <point x="1865" y="0" type="line"/>
      <point x="1865" y="317" type="line"/>
      <point x="1221" y="317" type="line"/>
      <point x="1221" y="569" type="line"/>
      <point x="1785" y="569" type="line"/>
      <point x="1785" y="877" type="line"/>
      <point x="1221" y="877" type="line"/>
      <point x="1221" y="1037" type="line"/>
      <point x="1868" y="1037" type="line"/>
      <point x="1868" y="1352" type="line"/>
      <point x="425" y="1352" type="line"/>
    </contour>
    <contour>
      <point x="579" y="617" type="line"/>
      <point x="722" y="1058" type="line"/>
      <point x="796" y="1058" type="line"/>
      <point x="796" y="617" type="line"/>
    </contour>
    <contour>
      <point x="971" y="1481" type="move" name="top"/>
    </contour>
  </outline>
</glyph>
<glyph name="Eth" format="1">
  <advance width="1220"/>
  <unicode hex="00D0"/>
  <outline>
    <contour>
      <point x="607" y="326" type="line"/>
      <point x="607" y="653" type="line"/>
      <point x="708" y="653" type="line"/>
      <point x="708" y="855" type="line"/>
      <point x="607" y="855" type="line"/>
      <point x="607" y="1155" type="line"/>
      <point x="757" y="1155" type="line" smooth="yes"/>
      <point x="938" y="1155"/>
      <point x="1027" y="1021"/>
      <point x="1027" y="735" type="curve" smooth="yes"/>
      <point x="1027" y="427"/>
      <point x="916" y="326"/>
      <point x="669" y="326" type="curve" smooth="yes"/>
    </contour>
    <contour>
      <point x="146" y="0" type="line"/>
      <point x="628" y="0" type="line" smooth="yes"/>
      <point x="1160" y="0"/>
      <point x="1502" y="164"/>
      <point x="1502" y="737" type="curve" smooth="yes"/>
      <point x="1502" y="1306"/>
      <point x="1180" y="1481"/>
      <point x="638" y="1481" type="curve" smooth="yes"/>
      <point x="146" y="1481" type="line"/>
      <point x="146" y="855" type="line"/>
      <point x="43" y="855" type="line"/>
      <point x="43" y="653" type="line"/>
      <point x="146" y="653" type="line"/>
    </contour>
  </outline>
</glyph>
<glyph name="multiply" format="1">
  <advance width="1206"/>
  <unicode hex="00D7"/>
  <outline>
    <contour>
      <point x="275" y="6" type="line"/>
      <point x="603" y="333" type="line"/>
      <point x="931" y="6" type="line"/>
      <point x="1074" y="149" type="line"/>
      <point x="748" y="477" type="line"/>
      <point x="1074" y="802" type="line"/>
      <point x="926" y="947" type="line"/>
      <point x="603" y="622" type="line"/>
      <point x="280" y="947" type="line"/>
      <point x="132" y="802" type="line"/>
      <point x="458" y="477" type="line"/>
      <point x="132" y="149" type="line"/>
    </contour>
  </outline>
</glyph>
<glyph name="Oslash" format="1">
  <advance width="1492"/>
  <unicode hex="00D8"/>
  <outline>
    <contour>
      <point x="255" y="-102" type="line"/>
      <point x="447" y="-102" type="line"/>
      <point x="514.787" y="23.9973" type="line"/>
      <point x="601.337" y="-7.81686"/>
      <point x="701.244" y="-24"/>
      <point x="814" y="-24" type="curve" smooth="yes"/>
      <point x="1272" y="-24"/>
      <point x="1516" y="243"/>
      <point x="1516" y="740" type="curve" smooth="yes"/>
      <point x="1516" y="1046.98"/>
      <point x="1424.01" y="1264.58"/>
      <point x="1248.26" y="1387.33" type="curve"/>
      <point x="1346" y="1569" type="line"/>
      <point x="1148" y="1569" type="line"/>
      <point x="1092.14" y="1464.46" type="line"/>
      <point x="1010.57" y="1491.39"/>
      <point x="917.717" y="1505"/>
      <point x="814" y="1505" type="curve" smooth="yes"/>
      <point x="359" y="1505"/>
      <point x="110" y="1240"/>
      <point x="110" y="740" type="curve" smooth="yes"/>
      <point x="110" y="443.663"/>
      <point x="197.457" y="229.095"/>
      <point x="365.163" y="104.139" type="curve"/>
    </contour>
    <contour>
      <point x="572.543" y="492.193" type="line"/>
      <point x="549.414" y="556.368"/>
      <point x="537" y="638.497"/>
      <point x="537" y="740" type="curve" smooth="yes"/>
      <point x="537" y="1041"/>
      <point x="646" y="1170"/>
      <point x="815" y="1170" type="curve" smooth="yes"/>
      <point x="854.737" y="1170"/>
      <point x="890.868" y="1162.73"/>
      <point x="922.908" y="1147.8" type="curve"/>
    </contour>
    <contour>
      <point x="815" y="311" type="curve" smooth="yes"/>
      <point x="766.737" y="311"/>
      <point x="723.572" y="321.435"/>
      <point x="686.473" y="343.115" type="curve"/>
      <point x="1045.51" y="1010.48" type="line"/>
      <point x="1073.8" y="943.137"/>
      <point x="1089" y="853.556"/>
      <point x="1089" y="740" type="curve" smooth="yes"/>
      <point x="1089" y="453"/>
      <point x="989" y="311"/>
    </contour>
    <contour>
      <point x="746" y="1481" type="move" name="top"/>
    </contour>
  </outline>
</glyph>
<glyph name="Thorn" format="1">
  <advance width="1427"/>
  <unicode hex="00DE"/>
  <outline>
    <contour>
      <point x="155" y="0" type="line"/>
      <point x="586" y="0" type="line"/>
      <point x="586" y="342" type="line"/>
      <point x="795" y="342" type="line" smooth="yes"/>
      <point x="1170" y="342"/>
      <point x="1387" y="557"/>
      <point x="1387" y="853" type="curve" smooth="yes"/>
      <point x="1387" y="1194"/>
      <point x="1098" y="1309"/>
      <point x="821" y="1309" type="curve" smooth="yes"/>
      <point x="586" y="1309" type="line"/>
      <point x="586" y="1481" type="line"/>
      <point x="155" y="1481" type="line"/>
    </contour>
    <contour>
      <point x="586" y="649" type="curve"/>
      <point x="586" y="1011" type="line"/>
      <point x="840" y="1011"/>
      <point x="973" y="995"/>
      <point x="973" y="846" type="curve" smooth="yes"/>
      <point x="973" y="647"/>
      <point x="774" y="650"/>
    </contour>
  </outline>
</glyph>
<glyph name="germandbls" format="1">
  <advance width="1286"/>
  <unicode hex="00DF"/>
  <outline>
    <contour>
      <point x="703" y="-5" type="curve" smooth="yes"/>
      <point x="1054" y="-5"/>
      <point x="1263" y="152"/>
      <point x="1263" y="467" type="curve" smooth="yes"/>
      <point x="1263" y="631"/>
      <point x="1146" y="808"/>
      <point x="871" y="857" type="curve"/>
      <point x="871" y="875" type="line"/>
      <point x="1007" y="897"/>
      <point x="1134" y="1007"/>
      <point x="1134" y="1163" type="curve" smooth="yes"/>
      <point x="1134" y="1363"/>
      <point x="937" y="1505"/>
      <point x="627" y="1505" type="curve" smooth="yes"/>
      <point x="289" y="1505"/>
      <point x="118" y="1334"/>
      <point x="118" y="1029" type="curve" smooth="yes"/>
      <point x="118" y="0" type="line"/>
      <point x="507" y="0" type="line"/>
      <point x="507" y="1068" type="line" smooth="yes"/>
      <point x="507" y="1139"/>
      <point x="511" y="1236"/>
      <point x="660" y="1236" type="curve" smooth="yes"/>
      <point x="750" y="1236"/>
      <point x="803" y="1178"/>
      <point x="803" y="1118" type="curve" smooth="yes"/>
      <point x="803" y="1055"/>
      <point x="743" y="990"/>
      <point x="603" y="990" type="curve"/>
      <point x="603" y="675" type="line"/>
      <point x="762" y="675"/>
      <point x="870" y="618"/>
      <point x="870" y="488" type="curve" smooth="yes"/>
      <point x="870" y="342"/>
      <point x="779" y="294"/>
      <point x="630" y="294" type="curve" smooth="yes"/>
      <point x="606" y="294" type="line"/>
      <point x="606" y="0" type="line"/>
      <point x="649" y="-1"/>
      <point x="686" y="-5"/>
    </contour>
  </outline>
</glyph>
<glyph name="ae" format="1">
  <advance width="1772"/>
  <unicode hex="00E6"/>
  <outline>
    <contour>
      <point x="1274" y="-28" type="curve" smooth="yes"/>
      <point x="1516" y="-28"/>
      <point x="1639" y="29"/>
      <point x="1726" y="86" type="curve"/>
      <point x="1671" y="375" type="line"/>
      <point x="1624" y="377" type="line"/>
      <point x="1562" y="287"/>
      <point x="1406" y="255"/>
      <point x="1323" y="255" type="curve" smooth="yes"/>
      <point x="1189" y="255"/>
      <point x="1063" y="277"/>
      <point x="1047" y="420" type="curve"/>
      <point x="1747" y="420" type="line"/>
      <point x="1747" y="610" type="line" smooth="yes"/>
      <point x="1747" y="914"/>
      <point x="1554" y="1067"/>
      <point x="1237" y="1067" type="curve" smooth="yes"/>
      <point x="1111" y="1067"/>
      <point x="947" y="1022"/>
      <point x="878" y="898" type="curve"/>
      <point x="806" y="1025"/>
      <point x="675" y="1063"/>
      <point x="497" y="1063" type="curve" smooth="yes"/>
      <point x="328" y="1063"/>
      <point x="116" y="1011"/>
      <point x="51" y="963" type="curve"/>
      <point x="108" y="703" type="line"/>
      <point x="190" y="754"/>
      <point x="340" y="798"/>
      <point x="424" y="798" type="curve" smooth="yes"/>
      <point x="618" y="798"/>
      <point x="654" y="731"/>
      <point x="653" y="662" type="curve"/>
      <point x="650" y="662"/>
      <point x="591" y="666"/>
      <point x="545" y="651" type="curve"/>
      <point x="266" y="630"/>
      <point x="12" y="548"/>
      <point x="12" y="304" type="curve" smooth="yes"/>
      <point x="12" y="106"/>
      <point x="137" y="-21"/>
      <point x="463" y="-21" type="curve" smooth="yes"/>
      <point x="614" y="-21"/>
      <point x="780" y="65"/>
      <point x="851" y="116" type="curve"/>
      <point x="946" y="51"/>
      <point x="1033" y="-28"/>
    </contour>
    <contour>
      <point x="564" y="240" type="curve" smooth="yes"/>
      <point x="446" y="240"/>
      <point x="408" y="259"/>
      <point x="408" y="334" type="curve" smooth="yes"/>
      <point x="408" y="454"/>
      <point x="570" y="415"/>
      <point x="666" y="426" type="curve"/>
      <point x="675" y="400"/>
      <point x="751" y="240"/>
    </contour>
    <contour>
      <point x="1044" y="652" type="line"/>
      <point x="1031" y="774"/>
      <point x="1110" y="819"/>
      <point x="1199" y="819" type="curve" smooth="yes"/>
      <point x="1283" y="819"/>
      <point x="1346" y="790"/>
      <point x="1348" y="652" type="curve"/>
    </contour>
    <contour>
      <point x="886" y="1038" type="move" name="top"/>
    </contour>
  </outline>
</glyph>
<glyph name="eth" format="1">
  <advance width="1290"/>
  <unicode hex="00F0"/>
  <outline>
    <contour>
      <point x="643" y="-25" type="curve" smooth="yes"/>
      <point x="988" y="-25"/>
      <point x="1210" y="173"/>
      <point x="1210" y="555" type="curve" smooth="yes"/>
      <point x="1210" y="1006"/>
      <point x="993" y="1286"/>
      <point x="671" y="1406" type="curve"/>
      <point x="726" y="1501" type="line"/>
      <point x="604" y="1552" type="line"/>
      <point x="539" y="1444" type="line"/>
      <point x="441" y="1459"/>
      <point x="381" y="1469"/>
      <point x="261" y="1479" type="curve"/>
      <point x="207" y="1245" type="line"/>
      <point x="306" y="1243"/>
      <point x="427" y="1209"/>
      <point x="427" y="1209" type="curve"/>
      <point x="364" y="1086" type="line"/>
      <point x="486" y="1035" type="line"/>
      <point x="557" y="1175" type="line"/>
      <point x="751" y="1103"/>
      <point x="787" y="942"/>
      <point x="787" y="847" type="curve"/>
      <point x="734" y="911"/>
      <point x="603" y="926"/>
      <point x="542" y="926" type="curve" smooth="yes"/>
      <point x="298" y="926"/>
      <point x="80" y="761"/>
      <point x="80" y="485" type="curve" smooth="yes"/>
      <point x="80" y="153"/>
      <point x="302" y="-25"/>
    </contour>
    <contour>
      <point x="653" y="244" type="curve" smooth="yes"/>
      <point x="526" y="244"/>
      <point x="524" y="333"/>
      <point x="524" y="470" type="curve" smooth="yes"/>
      <point x="524" y="642"/>
      <point x="575" y="681"/>
      <point x="655" y="681" type="curve" smooth="yes"/>
      <point x="741" y="681"/>
      <point x="787" y="629"/>
      <point x="787" y="629" type="curve"/>
      <point x="787" y="447" type="line" smooth="yes"/>
      <point x="787" y="316"/>
      <point x="755" y="244"/>
    </contour>
  </outline>
</glyph>
<glyph name="divide" format="1">
  <advance width="1568"/>
  <unicode hex="00F7"/>
  <outline>
    <contour>
      <point x="785" y="0" type="curve" smooth="yes"/>
      <point x="897" y="0"/>
      <point x="987" y="90"/>
      <point x="987" y="203" type="curve" smooth="yes"/>
      <point x="987" y="315"/>
      <point x="897" y="405"/>
      <point x="785" y="405" type="curve" smooth="yes"/>
      <point x="672" y="405"/>
      <point x="584" y="315"/>
      <point x="584" y="203" type="curve" smooth="yes"/>
      <point x="584" y="90"/>
      <point x="672" y="0"/>
    </contour>
    <contour>
      <point x="187" y="497" type="line"/>
      <point x="1385" y="497" type="line"/>
      <point x="1385" y="735" type="line"/>
      <point x="187" y="735" type="line"/>
    </contour>
    <contour>
      <point x="785" y="830" type="curve" smooth="yes"/>
      <point x="897" y="830"/>
      <point x="987" y="920"/>
      <point x="987" y="1032" type="curve" smooth="yes"/>
      <point x="987" y="1145"/>
      <point x="897" y="1236"/>
      <point x="785" y="1236" type="curve" smooth="yes"/>
      <point x="672" y="1236"/>
      <point x="584" y="1145"/>
      <point x="584" y="1032" type="curve" smooth="yes"/>
      <point x="584" y="920"/>
      <point x="672" y="830"/>
    </contour>
  </outline>
</glyph>
<glyph name="oslash" format="1">
  <advance width="1165"/>
  <unicode hex="00F8"/>
  <outline>
    <contour>
      <point x="163" y="-182" type="line"/>
      <point x="271" y="-182" type="line"/>
      <point x="384" y="8" type="line"/>
      <point x="453" y="-16"/>
      <point x="534" y="-28"/>
      <point x="629" y="-28" type="curve" smooth="yes"/>
      <point x="1015" y="-28"/>
      <point x="1178" y="181"/>
      <point x="1178" y="516" type="curve" smooth="yes"/>
      <point x="1178" y="732"/>
      <point x="1111" y="893"/>
      <point x="962" y="982" type="curve"/>
      <point x="1098" y="1212" type="line"/>
      <point x="983" y="1212" type="line"/>
      <point x="872" y="1023" type="line"/>
      <point x="804" y="1046"/>
      <point x="723" y="1059"/>
      <point x="629" y="1059" type="curve" smooth="yes"/>
      <point x="236" y="1059"/>
      <point x="80" y="855"/>
      <point x="80" y="517" type="curve" smooth="yes"/>
      <point x="80" y="300"/>
      <point x="146" y="136"/>
      <point x="298" y="47" type="curve"/>
    </contour>
    <contour>
      <point x="633" y="249" type="curve"/>
      <point x="627" y="250"/>
      <point x="567" y="251"/>
      <point x="538" y="269" type="curve"/>
      <point x="776" y="669" type="line"/>
      <point x="787" y="631"/>
      <point x="794" y="581"/>
      <point x="794" y="516" type="curve" smooth="yes"/>
      <point x="794" y="303"/>
      <point x="721" y="249"/>
    </contour>
    <contour>
      <point x="478" y="354" type="line"/>
      <point x="466" y="392"/>
      <point x="459" y="444"/>
      <point x="459" y="515" type="curve" smooth="yes"/>
      <point x="459" y="771"/>
      <point x="555" y="787"/>
      <point x="629" y="787" type="curve" smooth="yes"/>
      <point x="658" y="787"/>
      <point x="690" y="782"/>
      <point x="718" y="761" type="curve"/>
    </contour>
    <contour>
      <point x="583" y="1038" type="move" name="top"/>
    </contour>
  </outline>
</glyph>
<glyph name="thorn" format="1">
  <advance width="1217"/>
  <unicode hex="00FE"/>
  <outline>
    <contour>
      <point x="123" y="-392" type="line"/>
      <point x="513" y="-392" type="line"/>
      <point x="513" y="43" type="line"/>
      <point x="611" y="-11"/>
      <point x="657" y="-20"/>
      <point x="759" y="-20" type="curve" smooth="yes"/>
      <point x="1041" y="-20"/>
      <point x="1180" y="228"/>
      <point x="1180" y="530" type="curve" smooth="yes"/>
      <point x="1180" y="850"/>
      <point x="1112" y="1061"/>
      <point x="832" y="1061" type="curve" smooth="yes"/>
      <point x="695" y="1061"/>
      <point x="578" y="991"/>
      <point x="513" y="867" type="curve"/>
      <point x="513" y="1430" type="line"/>
      <point x="123" y="1430" type="line"/>
    </contour>
    <contour>
      <point x="582" y="260" type="curve" smooth="yes"/>
      <point x="543" y="260"/>
      <point x="522" y="263"/>
      <point x="513" y="264" type="curve"/>
      <point x="513" y="698" type="line"/>
      <point x="540" y="732"/>
      <point x="552" y="759"/>
      <point x="630" y="759" type="curve" smooth="yes"/>
      <point x="767" y="759"/>
      <point x="779" y="684"/>
      <point x="779" y="526" type="curve" smooth="yes"/>
      <point x="779" y="345"/>
      <point x="740" y="260"/>
    </contour>
  </outline>
</glyph>
<glyph name="Dcroat" format="1">
  <advance width="1551"/>
  <unicode hex="0110"/>
  <outline>
    <contour>
      <point x="676" y="1645" type="line"/>
      <point x="902" y="1645" type="line"/>
      <point x="1215" y="1987" type="line"/>
      <point x="957" y="1987" type="line"/>
      <point x="792" y="1803" type="line"/>
      <point x="624" y="1987" type="line"/>
      <point x="363" y="1987" type="line"/>
    </contour>
    <contour>
      <point x="607" y="326" type="line"/>
      <point x="607" y="1155" type="line"/>
      <point x="757" y="1155" type="line" smooth="yes"/>
      <point x="938" y="1155"/>
      <point x="1027" y="1021"/>
      <point x="1027" y="735" type="curve" smooth="yes"/>
      <point x="1027" y="427"/>
      <point x="916" y="326"/>
      <point x="669" y="326" type="curve" smooth="yes"/>
    </contour>
    <contour>
      <point x="146" y="0" type="line"/>
      <point x="628" y="0" type="line" smooth="yes"/>
      <point x="1160" y="0"/>
      <point x="1502" y="164"/>
      <point x="1502" y="737" type="curve" smooth="yes"/>
      <point x="1502" y="1306"/>
      <point x="1180" y="1481"/>
      <point x="638" y="1481" type="curve" smooth="yes"/>
      <point x="146" y="1481" type="line"/>
    </contour>
  </outline>
</glyph>
<glyph name="dcroat" format="1">
  <advance width="1309"/>
  <unicode hex="0111"/>
  <outline>
    <contour>
      <point x="496.7" y="1242.5" type="line"/>
      <point x="1303" y="1242.5" type="line"/>
      <point x="1303" y="1395.5" type="line"/>
      <point x="496.7" y="1395.5" type="line"/>
    </contour>
    <component base="d"/>
  </outline>
</glyph>
<glyph name="gcommaaccent" format="1">
  <advance width="1231"/>
  <unicode hex="0123"/>
  <outline>
    <contour>
      <point x="498" y="1222" type="line"/>
      <point x="833" y="1222" type="line"/>
      <point x="892" y="1795" type="line"/>
      <point x="721" y="1795" type="line"/>
    </contour>
    <component base="g"/>
  </outline>
</glyph>
<glyph name="Hbar" format="1">
  <advance width="1615"/>
  <unicode hex="0126"/>
  <outline>
    <contour>
      <point x="146" y="0" type="line"/>
      <point x="607" y="0" type="line"/>
      <point x="607" y="617" type="line"/>
      <point x="1008" y="617" type="line"/>
      <point x="1008" y="0" type="line"/>
      <point x="1469" y="0" type="line"/>
      <point x="1469" y="1481" type="line"/>
      <point x="1008" y="1481" type="line"/>
      <point x="1008" y="941" type="line"/>
      <point x="607" y="941" type="line"/>
      <point x="607" y="1481" type="line"/>
      <point x="146" y="1481" type="line"/>
    </contour>
    <contour>
      <point x="374" y="1647" type="line"/>
      <point x="662" y="1647" type="line"/>
      <point x="802" y="1811" type="line"/>
      <point x="933" y="1647" type="line"/>
      <point x="1231" y="1647" type="line"/>
      <point x="940" y="1992" type="line"/>
      <point x="664" y="1992" type="line"/>
    </contour>
  </outline>
</glyph>
<glyph name="hbar" format="1">
  <advance width="1247"/>
  <unicode hex="0127"/>
  <outline>
    <contour>
      <point x="124" y="0" type="line"/>
      <point x="512" y="0" type="line"/>
      <point x="512" y="571" type="line" smooth="yes"/>
      <point x="512" y="677"/>
      <point x="565" y="741"/>
      <point x="626" y="741" type="curve" smooth="yes"/>
      <point x="752" y="741"/>
      <point x="757" y="661"/>
      <point x="757" y="506" type="curve" smooth="yes"/>
      <point x="757" y="0" type="line"/>
      <point x="1145" y="0" type="line"/>
      <point x="1145" y="675" type="line" smooth="yes"/>
      <point x="1145" y="921"/>
      <point x="1017" y="1059"/>
      <point x="798" y="1059" type="curve" smooth="yes"/>
      <point x="624" y="1059"/>
      <point x="537" y="929"/>
      <point x="512" y="877" type="curve"/>
      <point x="512" y="1411" type="line"/>
      <point x="124" y="1411" type="line"/>
    </contour>
    <contour>
      <point x="198" y="1552" type="line"/>
      <point x="486" y="1552" type="line"/>
      <point x="626" y="1716" type="line"/>
      <point x="757" y="1552" type="line"/>
      <point x="1055" y="1552" type="line"/>
      <point x="764" y="1897" type="line"/>
      <point x="488" y="1897" type="line"/>
    </contour>
  </outline>
</glyph>
<glyph name="dotlessi" format="1">
  <advance width="692"/>
  <unicode hex="0131"/>
  <outline>
    <contour>
      <point x="153" y="0" type="line"/>
      <point x="541" y="0" type="line"/>
      <point x="541" y="1038" type="line"/>
      <point x="153" y="1038" type="line"/>
    </contour>
    <contour>
      <point x="346" y="1038" type="move" name="top"/>
    </contour>
    <contour>
      <point x="623" y="10" type="move" name="ogonek"/>
    </contour>
  </outline>
</glyph>
<glyph name="kgreenlandic" format="1">
  <advance width="1239"/>
  <unicode hex="0138"/>
  <outline>
    <contour>
      <point x="121" y="0" type="line"/>
      <point x="513" y="0" type="line"/>
      <point x="513" y="330" type="line"/>
      <point x="580" y="423" type="line"/>
      <point x="801" y="0" type="line"/>
      <point x="1230" y="0" type="line"/>
      <point x="1230" y="87" type="line"/>
      <point x="912" y="596" type="line"/>
      <point x="1203" y="994" type="line"/>
      <point x="1203" y="1038" type="line"/>
      <point x="779" y="1038" type="line"/>
      <point x="513" y="630" type="line"/>
      <point x="513" y="1038" type="line"/>
      <point x="121" y="1038" type="line"/>
    </contour>
  </outline>
</glyph>
<glyph name="Lslash" format="1">
  <advance width="1257"/>
  <unicode hex="0141"/>
  <outline>
    <contour>
      <point x="119" y="0" type="line"/>
      <point x="1216" y="0" type="line"/>
      <point x="1216" y="341" type="line"/>
      <point x="579" y="341" type="line"/>
      <point x="579" y="790" type="line"/>
      <point x="811" y="951" type="line"/>
      <point x="811" y="1197" type="line"/>
      <point x="579" y="1035" type="line"/>
      <point x="579" y="1481" type="line"/>
      <point x="119" y="1481" type="line"/>
      <point x="119" y="716" type="line"/>
      <point x="-14" y="624" type="line"/>
      <point x="-14" y="381" type="line"/>
      <point x="119" y="470" type="line"/>
    </contour>
  </outline>
</glyph>
<glyph name="lslash" format="1">
  <advance width="650"/>
  <unicode hex="0142"/>
  <outline>
    <contour>
      <point x="534" y="3" type="curve" smooth="yes"/>
      <point x="617" y="3" type="line"/>
      <point x="617" y="255" type="line"/>
      <point x="481" y="255"/>
      <point x="510" y="365"/>
      <point x="510" y="385" type="curve" smooth="yes"/>
      <point x="510" y="774" type="line"/>
      <point x="635" y="842" type="line"/>
      <point x="635" y="1037" type="line"/>
      <point x="510" y="966" type="line"/>
      <point x="511" y="1438" type="line"/>
      <point x="123" y="1438" type="line"/>
      <point x="123" y="737" type="line"/>
      <point x="0" y="667" type="line"/>
      <point x="0" y="475" type="line"/>
      <point x="123" y="544" type="line"/>
      <point x="123" y="360" type="line" smooth="yes"/>
      <point x="123" y="163"/>
      <point x="139" y="3"/>
    </contour>
  </outline>
</glyph>
<glyph name="OE" format="1">
  <advance width="1998"/>
  <unicode hex="0152"/>
  <outline>
    <contour>
      <point x="679" y="0" type="curve" smooth="yes"/>
      <point x="1976" y="0" type="line"/>
      <point x="1976" y="342" type="line"/>
      <point x="1395" y="342" type="line"/>
      <point x="1395" y="606" type="line"/>
      <point x="1894" y="606" type="line"/>
      <point x="1894" y="940" type="line"/>
      <point x="1395" y="940" type="line"/>
      <point x="1395" y="1139" type="line"/>
      <point x="1976" y="1139" type="line"/>
      <point x="1976" y="1481" type="line"/>
      <point x="720" y="1481" type="line" smooth="yes"/>
      <point x="337" y="1481"/>
      <point x="62" y="1275"/>
      <point x="62" y="729" type="curve" smooth="yes"/>
      <point x="62" y="109"/>
      <point x="436" y="0"/>
    </contour>
    <contour>
      <point x="766" y="342" type="line"/>
      <point x="588" y="350"/>
      <point x="502" y="408"/>
      <point x="502" y="727" type="curve" smooth="yes"/>
      <point x="502" y="1076"/>
      <point x="588" y="1139"/>
      <point x="773" y="1139" type="curve" smooth="yes"/>
      <point x="939" y="1139" type="line"/>
      <point x="939" y="342" type="line"/>
    </contour>
    <contour>
      <point x="999" y="1481" type="move" name="top"/>
    </contour>
  </outline>
</glyph>
<glyph name="oe" format="1">
  <advance width="1932"/>
  <unicode hex="0153"/>
  <outline>
    <contour>
      <point x="607" y="-28" type="curve" smooth="yes"/>
      <point x="835" y="-28"/>
      <point x="924" y="94"/>
      <point x="975" y="172" type="curve"/>
      <point x="1058" y="32"/>
      <point x="1241" y="-25"/>
      <point x="1415" y="-25" type="curve" smooth="yes"/>
      <point x="1635" y="-25"/>
      <point x="1757" y="30"/>
      <point x="1838" y="86" type="curve"/>
      <point x="1793" y="322" type="line"/>
      <point x="1746" y="322" type="line"/>
      <point x="1700" y="286"/>
      <point x="1530" y="240"/>
      <point x="1453" y="240" type="curve" smooth="yes"/>
      <point x="1320" y="240"/>
      <point x="1195" y="277"/>
      <point x="1176" y="443" type="curve"/>
      <point x="1859" y="443" type="line"/>
      <point x="1859" y="610" type="line" smooth="yes"/>
      <point x="1859" y="917"/>
      <point x="1642" y="1061"/>
      <point x="1365" y="1061" type="curve" smooth="yes"/>
      <point x="1239" y="1061"/>
      <point x="1068" y="1006"/>
      <point x="988" y="908" type="curve"/>
      <point x="902" y="1014"/>
      <point x="746" y="1058"/>
      <point x="615" y="1058" type="curve" smooth="yes"/>
      <point x="190" y="1058"/>
      <point x="80" y="823"/>
      <point x="80" y="519" type="curve" smooth="yes"/>
      <point x="80" y="209"/>
      <point x="219" y="-28"/>
    </contour>
    <contour>
      <point x="622" y="250" type="curve" smooth="yes"/>
      <point x="496" y="250"/>
      <point x="475" y="334"/>
      <point x="475" y="517" type="curve" smooth="yes"/>
      <point x="475" y="729"/>
      <point x="520" y="789"/>
      <point x="621" y="789" type="curve" smooth="yes"/>
      <point x="740" y="789"/>
      <point x="766" y="668"/>
      <point x="766" y="518" type="curve" smooth="yes"/>
      <point x="766" y="350"/>
      <point x="740" y="250"/>
    </contour>
    <contour>
      <point x="1173" y="649" type="line"/>
      <point x="1173" y="750"/>
      <point x="1244" y="819"/>
      <point x="1349" y="819" type="curve" smooth="yes"/>
      <point x="1444" y="819"/>
      <point x="1519" y="781"/>
      <point x="1524" y="649" type="curve"/>
    </contour>
    <contour>
      <point x="966" y="1038" type="move" name="top"/>
    </contour>
  </outline>
</glyph>
<glyph name="florin" format="1">
  <advance width="1178"/>
  <unicode hex="0192"/>
  <outline>
    <contour>
      <point x="206" y="-200" type="curve" smooth="yes"/>
      <point x="439" y="-200"/>
      <point x="665" y="-100"/>
      <point x="707" y="167" type="curve" smooth="yes"/>
      <point x="775" y="605" type="line"/>
      <point x="1012" y="605" type="line"/>
      <point x="1011" y="841" type="line"/>
      <point x="815" y="841" type="line"/>
      <point x="810" y="817"/>
      <point x="833" y="1008"/>
      <point x="828" y="982" type="curve"/>
      <point x="830" y="1004"/>
      <point x="843" y="1095"/>
      <point x="981" y="1095" type="curve" smooth="yes"/>
      <point x="1048" y="1095"/>
      <point x="1128" y="1078"/>
      <point x="1143" y="1083" type="curve"/>
      <point x="1138" y="1377" type="line"/>
      <point x="1071" y="1386"/>
      <point x="1004" y="1387"/>
      <point x="961" y="1387" type="curve" smooth="yes"/>
      <point x="746" y="1387"/>
      <point x="507" y="1370"/>
      <point x="447" y="992" type="curve"/>
      <point x="425" y="841" type="line"/>
      <point x="277" y="841" type="line"/>
      <point x="277" y="605" type="line"/>
      <point x="392" y="605" type="line"/>
      <point x="403.968" y="675.808"/>
      <point x="375.157" y="493.989"/>
      <point x="366.074" y="432.498" type="curve"/>
      <point x="366.304" y="433.332"/>
      <point x="367" y="434.166"/>
      <point x="367" y="435" type="curve"/>
      <point x="365" y="333"/>
      <point x="330" y="86"/>
      <point x="183" y="86" type="curve" smooth="yes"/>
      <point x="102" y="86"/>
      <point x="40" y="111"/>
      <point x="10" y="103" type="curve"/>
      <point x="14" y="-189" type="line"/>
      <point x="59" y="-196"/>
      <point x="163" y="-200"/>
    </contour>
    <contour>
      <point x="366" y="432" type="curve"/>
      <point x="366" y="432.166"/>
      <point x="366.028" y="432.332"/>
      <point x="366.074" y="432.498" type="curve"/>
      <point x="366.049" y="432.331"/>
      <point x="366.024" y="432.165"/>
    </contour>
    <contour>
      <point x="366" y="432" type="curve"/>
      <point x="362" y="403"/>
      <point x="363" y="409"/>
    </contour>
  </outline>
</glyph>
<glyph name="uni0237" format="1">
  <advance width="740"/>
  <unicode hex="0237"/>
  <outline>
    <contour>
      <point x="162" y="-405" type="curve" smooth="yes"/>
      <point x="393" y="-405"/>
      <point x="588" y="-301"/>
      <point x="588" y="-81" type="curve" smooth="yes"/>
      <point x="588" y="1038" type="line"/>
      <point x="201" y="1038" type="line"/>
      <point x="201" y="122" type="line" smooth="yes"/>
      <point x="201" y="-83"/>
      <point x="135" y="-119"/>
      <point x="33" y="-119" type="curve" smooth="yes"/>
      <point x="2" y="-119"/>
      <point x="-79" y="-113"/>
      <point x="-79" y="-113" type="curve"/>
      <point x="-79" y="-388" type="line"/>
      <point x="-47" y="-391"/>
      <point x="59" y="-405"/>
    </contour>
    <contour>
      <point x="370" y="1038" type="move" name="top"/>
    </contour>
  </outline>
</glyph>
<glyph name="circumflex" format="1">
  <advance width="824"/>
  <unicode hex="02C6"/>
  <outline>
    <contour>
      <point x="-13" y="1175" type="line"/>
      <point x="275" y="1175" type="line"/>
      <point x="415" y="1339" type="line"/>
      <point x="546" y="1175" type="line"/>
      <point x="844" y="1175" type="line"/>
      <point x="553" y="1520" type="line"/>
      <point x="277" y="1520" type="line"/>
    </contour>
    <contour>
      <point x="415.5" y="1038" type="move" name="_top"/>
    </contour>
  </outline>
</glyph>
<glyph name="caron" format="1">
  <advance width="765"/>
  <unicode hex="02C7"/>
  <outline>
    <contour>
      <point x="269" y="1178" type="line"/>
      <point x="495" y="1178" type="line"/>
      <point x="808" y="1520" type="line"/>
      <point x="550" y="1520" type="line"/>
      <point x="385" y="1336" type="line"/>
      <point x="217" y="1520" type="line"/>
      <point x="-44" y="1520" type="line"/>
    </contour>
    <contour>
      <point x="382" y="1038" type="move" name="_top"/>
    </contour>
  </outline>
</glyph>
<glyph name="uni02C9" format="1">
  <advance width="316"/>
  <unicode hex="02C9"/>
  <outline>
    <contour>
      <point x="-117" y="1167" type="line"/>
      <point x="438" y="1167" type="line"/>
      <point x="438" y="1356" type="line"/>
      <point x="-117" y="1356" type="line"/>
    </contour>
  </outline>
</glyph>
<glyph name="breve" format="1">
  <advance width="833"/>
  <unicode hex="02D8"/>
  <outline>
    <contour>
      <point x="424" y="1153" type="curve" smooth="yes"/>
      <point x="637" y="1153"/>
      <point x="771" y="1269"/>
      <point x="774" y="1485" type="curve"/>
      <point x="594" y="1485" type="line"/>
      <point x="588" y="1388"/>
      <point x="535" y="1320"/>
      <point x="424" y="1320" type="curve" smooth="yes"/>
      <point x="300" y="1320"/>
      <point x="264" y="1391"/>
      <point x="254" y="1485" type="curve"/>
      <point x="74" y="1485" type="line"/>
      <point x="77" y="1269"/>
      <point x="196" y="1153"/>
    </contour>
    <contour>
      <point x="424" y="1038" type="move" name="_top"/>
    </contour>
  </outline>
</glyph>
<glyph name="ring" format="1">
  <advance width="565"/>
  <unicode hex="02DA"/>
  <outline>
    <contour>
      <point x="277" y="235" type="curve" smooth="yes"/>
      <point x="151" y="235"/>
      <point x="48" y="332"/>
      <point x="48" y="456" type="curve" smooth="yes"/>
      <point x="48" y="575"/>
      <point x="149" y="677"/>
      <point x="277" y="677" type="curve" smooth="yes"/>
      <point x="405" y="677"/>
      <point x="508" y="575"/>
      <point x="508" y="456" type="curve" smooth="yes"/>
      <point x="508" y="335"/>
      <point x="406" y="235"/>
    </contour>
    <contour>
      <point x="277" y="118" type="curve" smooth="yes"/>
      <point x="478" y="118"/>
      <point x="638" y="268"/>
      <point x="638" y="456" type="curve" smooth="yes"/>
      <point x="638" y="644"/>
      <point x="478" y="791"/>
      <point x="277" y="791" type="curve" smooth="yes"/>
      <point x="78" y="791"/>
      <point x="-82" y="645"/>
      <point x="-82" y="456" type="curve" smooth="yes"/>
      <point x="-82" y="269"/>
      <point x="77" y="118"/>
    </contour>
    <contour>
      <point x="278" y="1038" type="move" name="_top"/>
    </contour>
  </outline>
</glyph>
<glyph name="ogonek" format="1">
  <advance width="1003"/>
  <unicode hex="02DB"/>
  <outline>
    <contour>
      <point x="574" y="-410" type="curve"/>
      <point x="636" y="-415"/>
      <point x="703" y="-401"/>
      <point x="767" y="-378" type="curve"/>
      <point x="757" y="-247" type="line"/>
      <point x="736" y="-257"/>
      <point x="694" y="-274"/>
      <point x="638" y="-274" type="curve" smooth="yes"/>
      <point x="561" y="-274"/>
      <point x="517" y="-224"/>
      <point x="520" y="-141" type="curve"/>
      <point x="524" y="-93"/>
      <point x="547" y="-40"/>
      <point x="583" y="5" type="curve"/>
      <point x="435" y="5" type="line"/>
      <point x="387" y="-54"/>
      <point x="343" y="-133"/>
      <point x="353" y="-235" type="curve"/>
      <point x="369" y="-338"/>
      <point x="453" y="-410"/>
    </contour>
    <contour>
      <point x="767" y="10" type="move" name="_ogonek"/>
    </contour>
  </outline>
</glyph>
<glyph name="tilde" format="1">
  <advance width="1304"/>
  <unicode hex="02DC"/>
  <outline>
    <contour>
      <point x="177" y="186" type="curve" smooth="yes"/>
      <point x="177" y="182"/>
      <point x="393" y="186"/>
      <point x="393" y="186" type="curve"/>
      <point x="393" y="281"/>
      <point x="425" y="283"/>
      <point x="465" y="283" type="curve" smooth="yes"/>
      <point x="536" y="283"/>
      <point x="795" y="186"/>
      <point x="906" y="186" type="curve" smooth="yes"/>
      <point x="1079" y="186"/>
      <point x="1124" y="269"/>
      <point x="1129" y="555" type="curve"/>
      <point x="908" y="555" type="line"/>
      <point x="908" y="471"/>
      <point x="904" y="446"/>
      <point x="860" y="446" type="curve" smooth="yes"/>
      <point x="806" y="446"/>
      <point x="520" y="555"/>
      <point x="407" y="555" type="curve" smooth="yes"/>
      <point x="260" y="555"/>
      <point x="177" y="436"/>
    </contour>
    <contour>
      <point x="653" y="1038" type="move" name="_top"/>
    </contour>
  </outline>
</glyph>
<glyph name="hungarumlaut" format="1">
  <advance width="900"/>
  <unicode hex="02DD"/>
  <outline>
    <contour>
      <point x="101" y="1186" type="line"/>
      <point x="379" y="1186" type="line"/>
      <point x="696" y="1534" type="line"/>
      <point x="310" y="1534" type="line"/>
    </contour>
    <contour>
      <point x="617" y="1186" type="line"/>
      <point x="893" y="1186" type="line"/>
      <point x="1197" y="1534" type="line"/>
      <point x="818" y="1534" type="line"/>
    </contour>
    <contour>
      <point x="649" y="1038" type="move" name="_top"/>
    </contour>
  </outline>
</glyph>
<glyph name="uni0307" format="1">
  <advance width="152"/>
  <unicode hex="0307"/>
  <outline>
    <contour>
      <point x="74" y="142" type="curve" smooth="yes"/>
      <point x="222" y="142"/>
      <point x="297" y="226"/>
      <point x="297" y="333" type="curve" smooth="yes"/>
      <point x="297" y="439"/>
      <point x="223" y="529"/>
      <point x="74" y="529" type="curve" smooth="yes"/>
      <point x="-74" y="529"/>
      <point x="-148" y="440"/>
      <point x="-148" y="335" type="curve" smooth="yes"/>
      <point x="-148" y="228"/>
      <point x="-75" y="142"/>
    </contour>
    <contour>
      <point x="74.5" y="1038" type="move" name="_top"/>
    </contour>
  </outline>
</glyph>
<glyph name="uni030F" format="1">
  <advance width="725"/>
  <unicode hex="030F"/>
  <outline>
    <contour>
      <point x="278" y="1137" type="line"/>
      <point x="433" y="1137" type="line"/>
      <point x="231" y="1481" type="line"/>
      <point x="-14" y="1481" type="line"/>
    </contour>
    <contour>
      <point x="585" y="1137" type="line"/>
      <point x="739" y="1137" type="line"/>
      <point x="547" y="1481" type="line"/>
      <point x="321" y="1481" type="line"/>
    </contour>
    <contour>
      <point x="362.5" y="1038" type="move" name="_top"/>
    </contour>
  </outline>
</glyph>
<glyph name="uni0311" format="1">
  <advance width="857"/>
  <unicode hex="0311"/>
  <outline>
    <contour>
      <point x="81" y="1147" type="curve"/>
      <point x="264" y="1147" type="line"/>
      <point x="272" y="1245"/>
      <point x="318" y="1311"/>
      <point x="429" y="1311" type="curve" smooth="yes"/>
      <point x="552" y="1311"/>
      <point x="588" y="1241"/>
      <point x="596" y="1147" type="curve"/>
      <point x="776" y="1147" type="line"/>
      <point x="773" y="1361"/>
      <point x="656" y="1474"/>
      <point x="429" y="1474" type="curve" smooth="yes"/>
      <point x="219" y="1474"/>
      <point x="84" y="1361"/>
    </contour>
  </outline>
</glyph>
<glyph name="uni0326" format="1">
  <advance width="470"/>
  <unicode hex="0326"/>
  <outline>
    <contour>
      <point x="45" y="-235" type="line"/>
      <point x="216" y="-235" type="line"/>
      <point x="439" y="338" type="line"/>
      <point x="104" y="338" type="line"/>
    </contour>
    <contour>
      <point x="242" y="0" type="move" name="_bottom"/>
    </contour>
  </outline>
</glyph>
<glyph name="mu" format="1">
  <advance width="1289"/>
  <unicode hex="03BC"/>
  <outline>
    <contour>
      <point x="456" y="-24" type="curve" smooth="yes"/>
      <point x="571" y="-24"/>
      <point x="698" y="28"/>
      <point x="761" y="171" type="curve"/>
      <point x="761" y="0" type="line"/>
      <point x="1148" y="0" type="line"/>
      <point x="1148" y="1038" type="line"/>
      <point x="761" y="1038" type="line"/>
      <point x="761" y="357" type="line" smooth="yes"/>
      <point x="761" y="298"/>
      <point x="691" y="263"/>
      <point x="656" y="263" type="curve" smooth="yes"/>
      <point x="538" y="263"/>
      <point x="517" y="343"/>
      <point x="517" y="515" type="curve" smooth="yes"/>
      <point x="517" y="1038" type="line"/>
      <point x="114" y="1038" type="line"/>
      <point x="114" y="339" type="line" smooth="yes"/>
      <point x="114" y="93"/>
      <point x="288" y="-24"/>
    </contour>
  </outline>
</glyph>
<glyph name="endash" format="1">
  <advance width="1054"/>
  <unicode hex="2013"/>
  <outline>
    <contour>
      <point x="-114" y="472" type="line"/>
      <point x="1171" y="472" type="line"/>
      <point x="1171" y="718" type="line"/>
      <point x="-114" y="718" type="line"/>
    </contour>
  </outline>
</glyph>
<glyph name="emdash" format="1">
  <advance width="1704"/>
  <unicode hex="2014"/>
  <outline>
    <contour>
      <point x="-114" y="472" type="line"/>
      <point x="1822" y="472" type="line"/>
      <point x="1822" y="718" type="line"/>
      <point x="-114" y="718" type="line"/>
    </contour>
  </outline>
</glyph>
<glyph name="quoteleft" format="1">
  <advance width="603"/>
  <unicode hex="2018"/>
  <outline>
    <contour>
      <point x="209" y="925" type="line"/>
      <point x="487" y="925" type="line"/>
      <point x="379" y="1481" type="line"/>
      <point x="17" y="1481" type="line"/>
    </contour>
  </outline>
</glyph>
<glyph name="quoteright" format="1">
  <advance width="603"/>
  <unicode hex="2019"/>
  <outline>
    <contour>
      <point x="122" y="990" type="line"/>
      <point x="373" y="990" type="line"/>
      <point x="580" y="1481" type="line"/>
      <point x="222" y="1481" type="line"/>
    </contour>
  </outline>
</glyph>
<glyph name="quotesinglbase" format="1">
  <advance width="585"/>
  <unicode hex="201A"/>
  <outline>
    <contour>
      <point x="120" y="-245" type="line"/>
      <point x="393" y="-245" type="line"/>
      <point x="393" y="-245"/>
      <point x="514" y="114"/>
      <point x="559" y="243" type="curve"/>
      <point x="220" y="243" type="line"/>
    </contour>
  </outline>
</glyph>
<glyph name="quotedblleft" format="1">
  <advance width="970"/>
  <unicode hex="201C"/>
  <outline>
    <contour>
      <point x="209" y="925" type="line"/>
      <point x="487" y="925" type="line"/>
      <point x="379" y="1481" type="line"/>
      <point x="17" y="1481" type="line"/>
    </contour>
    <contour>
      <point x="626" y="925" type="line"/>
      <point x="902" y="925" type="line"/>
      <point x="795" y="1481" type="line"/>
      <point x="433" y="1481" type="line"/>
    </contour>
  </outline>
</glyph>
<glyph name="quotedblright" format="1">
  <advance width="968"/>
  <unicode hex="201D"/>
  <outline>
    <contour>
      <point x="122" y="990" type="line"/>
      <point x="373" y="990" type="line"/>
      <point x="580" y="1481" type="line"/>
      <point x="222" y="1481" type="line"/>
    </contour>
    <contour>
      <point x="552" y="990" type="line"/>
      <point x="802" y="990" type="line"/>
      <point x="1010" y="1481" type="line"/>
      <point x="653" y="1481" type="line"/>
    </contour>
  </outline>
</glyph>
<glyph name="quotedblbase" format="1">
  <advance width="925"/>
  <unicode hex="201E"/>
  <outline>
    <contour>
      <point x="94" y="-245" type="line"/>
      <point x="271" y="-245" type="line"/>
      <point x="522" y="243" type="line"/>
      <point x="195" y="243" type="line"/>
    </contour>
    <contour>
      <point x="466" y="-245" type="line"/>
      <point x="644" y="-245" type="line"/>
      <point x="894" y="243" type="line"/>
      <point x="566" y="243" type="line"/>
    </contour>
  </outline>
</glyph>
<glyph name="dagger" format="1">
  <advance width="1222"/>
  <unicode hex="2020"/>
  <outline>
    <contour>
      <point x="481" y="-48" type="line"/>
      <point x="740" y="-48" type="line"/>
      <point x="740" y="820" type="line"/>
      <point x="1083" y="820" type="line"/>
      <point x="1083" y="1029" type="line"/>
      <point x="740" y="1029" type="line"/>
      <point x="740" y="1442" type="line"/>
      <point x="484" y="1442" type="line"/>
      <point x="484" y="1031" type="line"/>
      <point x="141" y="1031" type="line"/>
      <point x="141" y="824" type="line"/>
      <point x="481" y="824" type="line"/>
    </contour>
  </outline>
</glyph>
<glyph name="daggerdbl" format="1">
  <advance width="1219"/>
  <unicode hex="2021"/>
  <outline>
    <contour>
      <point x="480" y="-48" type="line"/>
      <point x="738" y="-48" type="line"/>
      <point x="738" y="335" type="line"/>
      <point x="1081" y="335" type="line"/>
      <point x="1081" y="542" type="line"/>
      <point x="736" y="542" type="line"/>
      <point x="736" y="860" type="line"/>
      <point x="1081" y="860" type="line"/>
      <point x="1081" y="1069" type="line"/>
      <point x="738" y="1069" type="line"/>
      <point x="738" y="1442" type="line"/>
      <point x="482" y="1442" type="line"/>
      <point x="482" y="1072" type="line"/>
      <point x="139" y="1072" type="line"/>
      <point x="139" y="863" type="line"/>
      <point x="486" y="863" type="line"/>
      <point x="486" y="545" type="line"/>
      <point x="139" y="545" type="line"/>
      <point x="139" y="337" type="line"/>
      <point x="480" y="337" type="line"/>
    </contour>
  </outline>
</glyph>
<glyph name="bullet" format="1">
  <advance width="1337"/>
  <unicode hex="2022"/>
  <outline>
    <contour>
      <point x="670" y="200" type="curve" smooth="yes"/>
      <point x="928" y="200"/>
      <point x="1154" y="411"/>
      <point x="1154" y="658" type="curve" smooth="yes"/>
      <point x="1154" y="905"/>
      <point x="930" y="1112"/>
      <point x="670" y="1112" type="curve" smooth="yes"/>
      <point x="414" y="1112"/>
      <point x="187" y="905"/>
      <point x="187" y="658" type="curve" smooth="yes"/>
      <point x="187" y="412"/>
      <point x="413" y="200"/>
    </contour>
  </outline>
</glyph>
<glyph name="ellipsis" format="1">
  <advance width="2328"/>
  <unicode hex="2026"/>
  <outline>
    <contour>
      <point x="398" y="-29" type="curve" smooth="yes"/>
      <point x="523" y="-29"/>
      <point x="627" y="76"/>
      <point x="627" y="198" type="curve" smooth="yes"/>
      <point x="627" y="321"/>
      <point x="523" y="424"/>
      <point x="398" y="424" type="curve" smooth="yes"/>
      <point x="276" y="424"/>
      <point x="172" y="321"/>
      <point x="172" y="198" type="curve" smooth="yes"/>
      <point x="172" y="76"/>
      <point x="276" y="-29"/>
    </contour>
    <contour>
      <point x="1174" y="-29" type="curve" smooth="yes"/>
      <point x="1299" y="-29"/>
      <point x="1403" y="76"/>
      <point x="1403" y="198" type="curve" smooth="yes"/>
      <point x="1403" y="321"/>
      <point x="1299" y="424"/>
      <point x="1174" y="424" type="curve" smooth="yes"/>
      <point x="1052" y="424"/>
      <point x="948" y="321"/>
      <point x="948" y="198" type="curve" smooth="yes"/>
      <point x="948" y="76"/>
      <point x="1052" y="-29"/>
    </contour>
    <contour>
      <point x="1950" y="-29" type="curve" smooth="yes"/>
      <point x="2075" y="-29"/>
      <point x="2179" y="76"/>
      <point x="2179" y="198" type="curve" smooth="yes"/>
      <point x="2179" y="321"/>
      <point x="2075" y="424"/>
      <point x="1950" y="424" type="curve" smooth="yes"/>
      <point x="1828" y="424"/>
      <point x="1724" y="321"/>
      <point x="1724" y="198" type="curve" smooth="yes"/>
      <point x="1724" y="76"/>
      <point x="1828" y="-29"/>
    </contour>
  </outline>
</glyph>
<glyph name="perthousand" format="1">
  <advance width="2748"/>
  <unicode hex="2030"/>
  <outline>
    <contour>
      <point x="487" y="859" type="curve" smooth="yes"/>
      <point x="394" y="859"/>
      <point x="389" y="934"/>
      <point x="389" y="1040" type="curve" smooth="yes"/>
      <point x="389" y="1162"/>
      <point x="396" y="1237"/>
      <point x="487" y="1237" type="curve" smooth="yes"/>
      <point x="573" y="1237"/>
      <point x="586" y="1165"/>
      <point x="586" y="1054" type="curve"/>
      <point x="584" y="915"/>
      <point x="567" y="859"/>
    </contour>
    <contour>
      <point x="487" y="688" type="curve" smooth="yes"/>
      <point x="707" y="688"/>
      <point x="808" y="812"/>
      <point x="808" y="1074" type="curve" smooth="yes"/>
      <point x="808" y="1297"/>
      <point x="692" y="1402"/>
      <point x="487" y="1402" type="curve" smooth="yes"/>
      <point x="268" y="1402"/>
      <point x="161" y="1284"/>
      <point x="161" y="1022" type="curve" smooth="yes"/>
      <point x="161" y="795"/>
      <point x="281" y="688"/>
    </contour>
    <contour>
      <point x="487" y="0" type="line"/>
      <point x="731" y="0" type="line"/>
      <point x="1465" y="1399" type="line"/>
      <point x="1219" y="1399" type="line"/>
    </contour>
    <contour>
      <point x="1479" y="167" type="curve" smooth="yes"/>
      <point x="1386" y="167"/>
      <point x="1380" y="243"/>
      <point x="1380" y="348" type="curve" smooth="yes"/>
      <point x="1380" y="470"/>
      <point x="1390" y="542"/>
      <point x="1479" y="542" type="curve" smooth="yes"/>
      <point x="1566" y="542"/>
      <point x="1577" y="473"/>
      <point x="1577" y="362" type="curve" smooth="yes"/>
      <point x="1577" y="223"/>
      <point x="1559" y="167"/>
    </contour>
    <contour>
      <point x="1479" y="-3" type="curve" smooth="yes"/>
      <point x="1701" y="-3"/>
      <point x="1800" y="117"/>
      <point x="1800" y="379" type="curve" smooth="yes"/>
      <point x="1800" y="601"/>
      <point x="1684" y="709"/>
      <point x="1479" y="709" type="curve" smooth="yes"/>
      <point x="1260" y="709"/>
      <point x="1155" y="590"/>
      <point x="1155" y="328" type="curve" smooth="yes"/>
      <point x="1155" y="101"/>
      <point x="1273" y="-3"/>
    </contour>
    <contour>
      <point x="2255" y="167" type="curve" smooth="yes"/>
      <point x="2162" y="167"/>
      <point x="2158" y="242"/>
      <point x="2158" y="348" type="curve" smooth="yes"/>
      <point x="2158" y="470"/>
      <point x="2164" y="542"/>
      <point x="2255" y="542" type="curve" smooth="yes"/>
      <point x="2342" y="542"/>
      <point x="2353" y="473"/>
      <point x="2353" y="362" type="curve"/>
      <point x="2351" y="223"/>
      <point x="2335" y="167"/>
    </contour>
    <contour>
      <point x="2255" y="-3" type="curve" smooth="yes"/>
      <point x="2477" y="-3"/>
      <point x="2577" y="117"/>
      <point x="2577" y="379" type="curve" smooth="yes"/>
      <point x="2577" y="601"/>
      <point x="2460" y="709"/>
      <point x="2255" y="709" type="curve" smooth="yes"/>
      <point x="2036" y="709"/>
      <point x="1932" y="590"/>
      <point x="1932" y="328" type="curve" smooth="yes"/>
      <point x="1932" y="101"/>
      <point x="2049" y="-3"/>
    </contour>
  </outline>
</glyph>
<glyph name="guilsinglleft" format="1">
  <advance width="881"/>
  <unicode hex="2039"/>
  <outline>
    <contour>
      <point x="734" y="136" type="curve"/>
      <point x="734" y="423" type="line"/>
      <point x="658" y="483"/>
      <point x="582" y="538"/>
      <point x="505" y="597" type="curve"/>
      <point x="734" y="777" type="line"/>
      <point x="734" y="1057" type="line"/>
      <point x="734" y="1057"/>
      <point x="331" y="740"/>
      <point x="229" y="655" type="curve"/>
      <point x="229" y="530" type="line"/>
      <point x="332" y="454"/>
      <point x="734" y="136"/>
    </contour>
  </outline>
</glyph>
<glyph name="guilsinglright" format="1">
  <advance width="881"/>
  <unicode hex="203A"/>
  <outline>
    <contour>
      <point x="223" y="136" type="line"/>
      <point x="223" y="136"/>
      <point x="625" y="451"/>
      <point x="727" y="537" type="curve"/>
      <point x="727" y="660" type="line"/>
      <point x="624" y="736"/>
      <point x="223" y="1057"/>
      <point x="223" y="1057" type="curve"/>
      <point x="223" y="767" type="line"/>
      <point x="299" y="707"/>
      <point x="371" y="657"/>
      <point x="448" y="598" type="curve"/>
      <point x="223" y="415" type="line"/>
    </contour>
  </outline>
</glyph>
<glyph name="Euro" format="1">
  <advance width="1180"/>
  <unicode hex="20AC"/>
  <outline>
    <contour>
      <point x="753" y="-25" type="curve" smooth="yes"/>
      <point x="974" y="-25"/>
      <point x="1100" y="24"/>
      <point x="1146" y="41" type="curve"/>
      <point x="1146" y="396" type="line"/>
      <point x="1049" y="396" type="line"/>
      <point x="992" y="332"/>
      <point x="941" y="273"/>
      <point x="831" y="273" type="curve" smooth="yes"/>
      <point x="738" y="273"/>
      <point x="606" y="312"/>
      <point x="543" y="509" type="curve"/>
      <point x="921" y="509" type="line"/>
      <point x="953" y="658" type="line"/>
      <point x="514" y="658" type="line"/>
      <point x="514" y="658"/>
      <point x="510" y="685"/>
      <point x="510" y="723" type="curve" smooth="yes"/>
      <point x="510" y="752"/>
      <point x="512" y="787"/>
      <point x="520" y="819" type="curve"/>
      <point x="1001" y="819" type="line"/>
      <point x="1031" y="968" type="line"/>
      <point x="552" y="968" type="line"/>
      <point x="601" y="1082"/>
      <point x="672" y="1213"/>
      <point x="842" y="1213" type="curve" smooth="yes"/>
      <point x="938" y="1213"/>
      <point x="992" y="1156"/>
      <point x="1013" y="1083" type="curve"/>
      <point x="1146" y="1083" type="line"/>
      <point x="1146" y="1437" type="line"/>
      <point x="1021" y="1465"/>
      <point x="877" y="1505"/>
      <point x="733" y="1505" type="curve" smooth="yes"/>
      <point x="381" y="1505"/>
      <point x="168" y="1258"/>
      <point x="92" y="968" type="curve"/>
      <point x="0" y="968" type="line"/>
      <point x="-45" y="819" type="line"/>
      <point x="63" y="819" type="line"/>
      <point x="59" y="750"/>
      <point x="59" y="731"/>
      <point x="59" y="710" type="curve" smooth="yes"/>
      <point x="59" y="658" type="line"/>
      <point x="-6" y="658" type="line"/>
      <point x="-54" y="509" type="line"/>
      <point x="99" y="509" type="line"/>
      <point x="181" y="192"/>
      <point x="413" y="-25"/>
    </contour>
  </outline>
</glyph>
<glyph name="trademark" format="1">
  <advance width="1829"/>
  <unicode hex="2122"/>
  <outline>
    <contour>
      <point x="805" y="762" type="line"/>
      <point x="1001" y="762" type="line"/>
      <point x="1001" y="1298" type="line"/>
      <point x="1026" y="1298" type="line"/>
      <point x="1208" y="852" type="line"/>
      <point x="1337" y="852" type="line"/>
      <point x="1524" y="1293" type="line"/>
      <point x="1540" y="1293" type="line"/>
      <point x="1540" y="762" type="line"/>
      <point x="1735" y="762" type="line"/>
      <point x="1735" y="1481" type="line"/>
      <point x="1428" y="1481" type="line"/>
      <point x="1275" y="1069" type="line"/>
      <point x="1128" y="1481" type="line"/>
      <point x="805" y="1481" type="line"/>
    </contour>
    <contour>
      <point x="267" y="762" type="line"/>
      <point x="480" y="762" type="line"/>
      <point x="480" y="1304" type="line"/>
      <point x="693" y="1304" type="line"/>
      <point x="693" y="1481" type="line"/>
      <point x="54" y="1481" type="line"/>
      <point x="54" y="1304" type="line"/>
      <point x="267" y="1304" type="line"/>
    </contour>
  </outline>
</glyph>
<glyph name="product" format="1">
  <advance width="1562"/>
  <unicode hex="220F"/>
  <outline>
    <contour>
      <point x="189" y="0" type="line"/>
      <point x="544" y="0" type="line"/>
      <point x="544" y="1211" type="line"/>
      <point x="1036" y="1211" type="line"/>
      <point x="1036" y="0" type="line"/>
      <point x="1392" y="0" type="line"/>
      <point x="1392" y="1481" type="line"/>
      <point x="189" y="1481" type="line"/>
    </contour>
  </outline>
</glyph>
<glyph name="minus" format="1">
  <advance width="1159"/>
  <unicode hex="2212"/>
  <outline>
    <contour>
      <point x="90" y="371" type="line"/>
      <point x="1076" y="371" type="line"/>
      <point x="1076" y="660" type="line"/>
      <point x="90" y="660" type="line"/>
    </contour>
  </outline>
</glyph>
<glyph name="uni2215" format="1">
  <advance width="1358"/>
  <unicode hex="2215"/>
  <outline>
    <contour>
      <point x="230" y="0" type="line"/>
      <point x="522" y="0" type="line"/>
      <point x="1083" y="1482" type="line"/>
      <point x="787" y="1482" type="line"/>
    </contour>
  </outline>
</glyph>
<glyph name="infinity" format="1">
  <advance width="1497"/>
  <unicode hex="221E"/>
  <outline>
    <contour>
      <point x="1100" y="205" type="curve" smooth="yes"/>
      <point x="1284" y="205"/>
      <point x="1437" y="356"/>
      <point x="1437" y="557" type="curve" smooth="yes"/>
      <point x="1437" y="765"/>
      <point x="1298" y="906"/>
      <point x="1103" y="907" type="curve" smooth="yes"/>
      <point x="954" y="907"/>
      <point x="844" y="816"/>
      <point x="753" y="684" type="curve"/>
      <point x="661" y="828"/>
      <point x="552" y="911"/>
      <point x="408" y="911" type="curve" smooth="yes"/>
      <point x="218" y="911"/>
      <point x="71" y="759"/>
      <point x="71" y="564" type="curve" smooth="yes"/>
      <point x="71" y="353"/>
      <point x="215" y="211"/>
      <point x="406" y="211" type="curve" smooth="yes"/>
      <point x="549" y="211"/>
      <point x="656" y="290"/>
      <point x="751" y="432" type="curve"/>
      <point x="853" y="274"/>
      <point x="966" y="205"/>
    </contour>
    <contour>
      <point x="426" y="378" type="curve" smooth="yes"/>
      <point x="324" y="378"/>
      <point x="249" y="454"/>
      <point x="249" y="559" type="curve" smooth="yes"/>
      <point x="249" y="664"/>
      <point x="319" y="747"/>
      <point x="422" y="747" type="curve" smooth="yes"/>
      <point x="518" y="747"/>
      <point x="596" y="672"/>
      <point x="668" y="557" type="curve"/>
      <point x="597" y="449"/>
      <point x="520" y="378"/>
    </contour>
    <contour>
      <point x="1083" y="372" type="curve" smooth="yes"/>
      <point x="994" y="372"/>
      <point x="922" y="430"/>
      <point x="839" y="557" type="curve"/>
      <point x="905" y="659"/>
      <point x="987" y="741"/>
      <point x="1081" y="741" type="curve" smooth="yes"/>
      <point x="1183" y="741"/>
      <point x="1254" y="662"/>
      <point x="1254" y="554" type="curve" smooth="yes"/>
      <point x="1254" y="457"/>
      <point x="1185" y="372"/>
    </contour>
  </outline>
</glyph>
<glyph name="integral" format="1">
  <advance width="1130"/>
  <unicode hex="222B"/>
  <outline>
    <contour>
      <point x="355" y="-380" type="curve" smooth="yes"/>
      <point x="612" y="-380"/>
      <point x="759" y="-226"/>
      <point x="759" y="53" type="curve" smooth="yes"/>
      <point x="759" y="1019" type="line" smooth="yes"/>
      <point x="759" y="1113"/>
      <point x="760" y="1254"/>
      <point x="884" y="1254" type="curve" smooth="yes"/>
      <point x="915" y="1254"/>
      <point x="997" y="1236"/>
      <point x="982" y="1243" type="curve"/>
      <point x="1019" y="1430" type="line"/>
      <point x="986" y="1440"/>
      <point x="839" y="1461"/>
      <point x="782" y="1461" type="curve" smooth="yes"/>
      <point x="556" y="1461"/>
      <point x="390" y="1311"/>
      <point x="390" y="1041" type="curve" smooth="yes"/>
      <point x="390" y="36" type="line" smooth="yes"/>
      <point x="390" y="-143"/>
      <point x="334" y="-170"/>
      <point x="248" y="-170" type="curve" smooth="yes"/>
      <point x="217" y="-170"/>
      <point x="137" y="-150"/>
      <point x="153" y="-157" type="curve"/>
      <point x="112" y="-337" type="line"/>
      <point x="147" y="-350"/>
      <point x="298" y="-380"/>
    </contour>
  </outline>
</glyph>
<glyph name="approxequal" format="1">
  <advance width="1384"/>
  <unicode hex="2248"/>
  <outline>
    <contour>
      <point x="360" y="205" type="line"/>
      <point x="378" y="294"/>
      <point x="424" y="352"/>
      <point x="506" y="352" type="curve" smooth="yes"/>
      <point x="542" y="352"/>
      <point x="591" y="328"/>
      <point x="659" y="289" type="curve" smooth="yes"/>
      <point x="753" y="236"/>
      <point x="832" y="211"/>
      <point x="896" y="211" type="curve" smooth="yes"/>
      <point x="1057" y="211"/>
      <point x="1157" y="326"/>
      <point x="1179" y="498" type="curve"/>
      <point x="1025" y="519" type="line"/>
      <point x="1014" y="433"/>
      <point x="971" y="393"/>
      <point x="894" y="383" type="curve"/>
      <point x="850" y="376"/>
      <point x="789" y="403"/>
      <point x="717" y="445" type="curve" smooth="yes"/>
      <point x="647" y="486"/>
      <point x="574" y="517"/>
      <point x="496" y="517" type="curve" smooth="yes"/>
      <point x="335" y="517"/>
      <point x="231" y="403"/>
      <point x="206" y="225" type="curve"/>
    </contour>
    <contour>
      <point x="360" y="597" type="line"/>
      <point x="378" y="684"/>
      <point x="424" y="738"/>
      <point x="506" y="738" type="curve" smooth="yes"/>
      <point x="545" y="738"/>
      <point x="593" y="712"/>
      <point x="659" y="676" type="curve"/>
      <point x="753" y="623"/>
      <point x="829" y="597"/>
      <point x="895" y="597" type="curve" smooth="yes"/>
      <point x="1054" y="597"/>
      <point x="1157" y="715"/>
      <point x="1179" y="887" type="curve"/>
      <point x="1025" y="907" type="line"/>
      <point x="1014" y="822"/>
      <point x="968" y="769"/>
      <point x="885" y="767" type="curve" smooth="yes"/>
      <point x="841" y="765"/>
      <point x="785" y="791"/>
      <point x="717" y="832" type="curve" smooth="yes"/>
      <point x="648" y="874"/>
      <point x="576" y="903"/>
      <point x="499" y="903" type="curve" smooth="yes"/>
      <point x="336" y="903"/>
      <point x="231" y="791"/>
      <point x="206" y="617" type="curve"/>
    </contour>
  </outline>
</glyph>
<glyph name="notequal" format="1">
  <advance width="1372"/>
  <unicode hex="2260"/>
  <outline>
    <contour>
      <point x="520" y="39" type="line"/>
      <point x="641" y="273" type="line"/>
      <point x="1142" y="273" type="line"/>
      <point x="1142" y="438" type="line"/>
      <point x="722" y="438" type="line"/>
      <point x="842" y="666" type="line"/>
      <point x="1142" y="666" type="line"/>
      <point x="1142" y="833" type="line"/>
      <point x="925" y="833" type="line"/>
      <point x="1045" y="1063" type="line"/>
      <point x="852" y="1075" type="line"/>
      <point x="729" y="833" type="line"/>
      <point x="234" y="833" type="line"/>
      <point x="234" y="666" type="line"/>
      <point x="645" y="666" type="line"/>
      <point x="527" y="438" type="line"/>
      <point x="234" y="438" type="line"/>
      <point x="234" y="273" type="line"/>
      <point x="445" y="273" type="line"/>
      <point x="328" y="52" type="line"/>
    </contour>
  </outline>
</glyph>
<glyph name="lessequal" format="1">
  <advance width="1723"/>
  <unicode hex="2264"/>
  <outline>
    <contour>
      <point x="1464" y="293" type="line"/>
      <point x="1464" y="572" type="line"/>
      <point x="743" y="748" type="line"/>
      <point x="1464" y="921" type="line"/>
      <point x="1464" y="1198" type="line"/>
      <point x="323" y="869" type="line"/>
      <point x="323" y="631" type="line"/>
    </contour>
    <contour>
      <point x="331" y="0" type="line"/>
      <point x="1457" y="0" type="line"/>
      <point x="1457" y="185" type="line"/>
      <point x="331" y="185" type="line"/>
    </contour>
  </outline>
</glyph>
